{"glyphs":{"0":{"ha":809,"x_min":0,"x_max":0,"o":""},"1":{"ha":363,"x_min":0,"x_max":0,"o":""},"2":{"ha":543,"x_min":0,"x_max":0,"o":""},"3":{"ha":648,"x_min":0,"x_max":0,"o":""},"4":{"ha":526,"x_min":0,"x_max":0,"o":""},"5":{"ha":553,"x_min":0,"x_max":0,"o":""},"6":{"ha":602,"x_min":0,"x_max":0,"o":""},"7":{"ha":528,"x_min":0,"x_max":0,"o":""},"8":{"ha":559,"x_min":0,"x_max":0,"o":""},"9":{"ha":520,"x_min":0,"x_max":0,"o":""}," ":{"ha":271,"x_min":0,"x_max":0,"o":""}," ":{"ha":271,"x_min":0,"x_max":0,"o":""},"!":{"ha":524,"x_min":12,"x_max":567,"o":"m 555 1653 l 555 1653 l 567 1653 l 567 1649 q 551 1621 551 1631 l 543 1621 l 543 1633 q 555 1653 555 1646 m 490 1613 l 490 1613 l 502 1613 l 502 1602 l 498 1602 q 490 1609 490 1602 l 490 1613 m 547 1598 l 547 1598 l 551 1598 l 551 1594 q 400 1234 522 1556 q 384 1172 384 1181 q 388 1156 388 1165 q 327 930 368 1156 q 282 715 307 867 l 274 711 q 270 715 274 715 q 290 832 290 797 l 290 836 l 286 836 l 241 625 q 229 583 238 583 l 225 583 l 225 586 q 237 656 225 599 q 229 661 229 656 q 237 723 229 678 l 233 746 q 237 750 237 746 l 233 750 q 205 637 205 662 l 197 637 q 201 672 197 658 l 197 699 q 201 743 201 734 q 197 754 197 750 l 189 754 l 189 750 q 180 699 189 739 l 172 699 q 164 707 164 699 l 164 727 l 168 750 q 164 762 164 758 l 172 825 l 172 832 l 168 832 q 152 777 164 777 l 148 777 q 140 785 148 785 q 197 1152 140 877 q 286 1430 258 1360 l 286 1434 l 294 1434 l 302 1430 q 184 1043 266 1390 q 180 1027 184 1041 l 180 1020 l 184 1020 q 270 1312 250 1278 q 298 1375 279 1312 l 311 1375 l 311 1371 q 294 1336 302 1360 l 302 1340 l 311 1340 l 311 1336 q 262 1192 286 1284 l 262 1187 l 266 1187 q 368 1430 332 1373 q 388 1457 368 1445 l 388 1449 q 368 1383 368 1413 q 372 1379 372 1383 q 335 1270 355 1343 q 331 1265 331 1270 l 331 1262 l 339 1262 q 425 1485 380 1413 l 429 1485 l 433 1476 l 425 1465 q 433 1457 433 1463 q 404 1394 419 1457 q 408 1383 408 1387 q 384 1309 384 1311 l 384 1305 l 388 1305 q 494 1547 420 1402 l 502 1547 l 502 1543 q 368 1192 415 1373 l 368 1187 l 372 1187 q 473 1445 399 1289 q 547 1598 518 1571 m 465 1567 l 465 1567 l 469 1567 l 469 1563 q 449 1527 453 1527 l 445 1527 l 445 1531 q 465 1567 453 1567 m 400 1535 l 400 1535 l 404 1527 l 404 1523 l 400 1523 q 392 1531 392 1523 l 400 1535 m 351 1457 l 351 1457 l 355 1449 q 327 1394 345 1449 l 319 1394 l 319 1402 q 351 1457 319 1424 m 339 1328 l 339 1328 l 339 1328 q 331 1305 339 1322 l 331 1301 l 335 1301 q 343 1324 335 1308 l 343 1328 l 339 1328 m 327 1242 l 327 1242 l 298 1160 l 298 1156 l 302 1156 q 331 1238 302 1165 l 331 1242 l 327 1242 m 262 1156 l 262 1156 l 262 1149 l 266 1149 l 266 1156 l 262 1156 m 294 1152 l 294 1152 l 294 1145 l 298 1145 l 298 1152 l 294 1152 m 319 1152 l 319 1152 l 319 1145 l 323 1145 l 323 1152 l 319 1152 m 258 1145 l 258 1145 l 258 1145 q 250 1114 258 1133 l 250 1109 l 254 1109 q 262 1141 262 1139 l 262 1145 l 258 1145 m 290 1141 l 290 1141 l 290 1133 l 294 1133 l 294 1141 l 290 1141 m 327 1098 l 327 1098 l 327 1090 l 331 1090 l 331 1098 l 327 1098 m 323 1086 l 323 1086 l 323 1074 l 327 1074 l 327 1086 l 323 1086 m 319 1070 l 319 1070 l 315 1051 l 315 1047 l 319 1047 l 323 1067 l 323 1070 l 319 1070 m 311 1043 l 311 1043 l 311 1036 l 315 1036 l 315 1043 l 311 1043 m 266 1031 l 266 1031 l 266 1031 q 250 961 250 970 l 250 954 l 254 954 q 270 1027 254 968 l 270 1031 l 266 1031 m 205 1027 l 205 1027 l 205 1020 l 209 1020 l 209 1027 l 205 1027 m 201 1016 l 201 1016 l 184 938 l 184 934 l 189 934 q 205 1008 189 940 l 205 1016 l 201 1016 m 176 1012 l 176 1012 l 176 1004 l 180 1004 l 180 1012 l 176 1012 m 298 996 l 298 996 l 298 988 l 302 988 l 302 996 l 298 996 m 327 992 l 327 992 l 327 992 q 311 926 327 986 l 311 918 l 315 918 q 331 988 315 930 l 331 992 l 327 992 m 294 981 l 294 981 l 294 969 l 298 969 l 298 981 l 294 981 m 290 965 l 290 965 l 290 949 l 294 949 l 294 965 l 290 965 m 245 949 l 245 949 l 245 938 l 250 938 l 250 949 l 245 949 m 286 945 l 286 945 l 286 934 l 290 934 l 290 945 l 286 945 m 282 930 l 282 930 l 282 914 l 286 914 l 286 930 l 282 930 m 307 914 l 307 914 l 307 903 l 311 903 l 311 914 l 307 914 m 278 910 l 278 910 l 278 899 l 282 899 l 282 910 l 278 910 m 302 899 l 302 899 l 302 887 l 307 887 l 307 899 l 302 899 m 201 867 l 201 867 l 176 758 l 184 758 l 184 762 q 205 863 184 781 l 205 867 l 201 867 m 172 848 l 172 848 l 172 840 l 176 840 l 176 848 l 172 848 m 221 817 l 221 817 l 213 758 l 213 750 l 217 750 q 225 809 217 760 l 225 817 l 221 817 m 176 754 l 176 754 l 176 743 l 180 743 l 180 754 l 176 754 m 189 617 l 189 617 l 197 606 l 189 606 q 180 614 180 606 l 189 617 m 199 517 l 199 517 l 199 517 q 272 477 272 498 q 280 408 280 444 l 280 404 q 288 395 281 395 q 243 269 267 282 q 239 265 243 264 l 235 265 l 235 269 q 268 347 268 323 l 268 351 l 264 351 q 130 224 211 224 l 77 241 q 142 208 99 208 q 162 216 155 216 l 162 212 q 134 196 155 196 q 28 302 80 196 q 24 334 24 317 q 64 448 24 387 l 60 448 q 24 387 24 408 l 12 387 q 77 477 12 414 q 199 517 113 504 m 170 493 l 170 493 l 170 489 l 178 489 l 182 497 q 170 493 174 493 m 231 497 l 231 497 l 231 497 q 252 485 231 490 l 252 489 q 231 497 238 497 m 182 477 l 182 477 l 182 473 q 195 469 186 473 l 195 477 l 182 477 m 227 473 l 227 473 l 227 465 l 231 465 l 231 473 l 227 473 m 260 473 l 260 473 l 260 456 q 264 444 264 448 l 268 444 l 268 452 l 264 473 l 260 473 m 85 460 l 85 460 l 64 428 l 64 424 l 68 424 q 89 460 68 433 l 85 460 m 170 456 l 170 456 l 170 452 l 182 452 l 182 456 l 170 456 m 199 452 l 199 452 l 199 452 q 203 412 203 437 l 207 412 l 211 432 q 199 452 208 452 m 231 452 l 231 452 l 231 452 q 235 440 235 444 l 239 440 l 239 448 l 231 452 m 162 444 l 162 444 l 162 440 q 186 395 180 440 q 195 404 195 395 l 195 408 q 166 444 195 439 l 162 444 m 121 428 l 121 428 l 113 412 l 113 408 l 117 408 q 125 428 117 414 l 121 428 m 150 416 l 150 416 l 150 412 q 170 371 150 380 l 170 395 l 166 416 l 150 416 m 77 391 l 77 391 l 77 387 l 81 387 q 85 404 85 401 q 77 391 77 404 m 134 404 l 134 404 l 134 387 q 158 342 146 342 l 162 342 q 170 351 170 342 l 170 355 q 138 404 144 374 l 134 404 m 304 387 l 304 387 l 309 379 q 292 338 303 338 l 288 338 q 300 379 288 347 q 296 383 296 379 l 304 387 m 109 371 l 109 371 l 109 359 q 142 302 109 318 l 154 302 q 162 310 162 302 q 113 371 123 310 l 109 371 m 36 367 l 36 367 l 36 310 q 52 277 43 277 l 52 281 q 40 367 40 319 l 36 367 m 199 355 l 199 355 l 195 347 l 199 347 l 203 355 l 199 355 m 134 338 l 134 338 l 134 334 l 146 326 l 146 330 l 134 338 m 81 334 l 81 334 l 81 314 l 89 310 l 85 334 l 81 334 m 105 326 l 105 326 l 105 318 q 121 294 115 294 l 134 294 l 134 298 q 109 326 116 298 l 105 326 m 73 294 l 73 294 l 73 294 q 89 273 80 275 l 89 277 l 73 294 m 215 290 l 215 290 l 215 290 q 158 249 176 249 l 158 245 l 162 245 q 219 290 194 256 l 215 290 m 121 265 l 121 265 l 121 261 l 134 261 l 134 265 l 121 265 m 89 257 l 89 257 l 89 253 q 117 241 109 241 l 125 241 l 125 245 q 89 257 109 245 z "},"\"":{"ha":629,"x_min":0,"x_max":0,"o":""},"#":{"ha":772,"x_min":0,"x_max":0,"o":""},"$":{"ha":600,"x_min":0,"x_max":0,"o":""},"%":{"ha":687,"x_min":0,"x_max":0,"o":""},"&":{"ha":630,"x_min":0,"x_max":0,"o":""},"'":{"ha":352,"x_min":0,"x_max":0,"o":""},"(":{"ha":1851,"x_min":-150,"x_max":1893,"o":"m 497 1572 q 912 1507 688 1572 q 1246 1316 1158 1430 l 1242 1308 l 1242 1283 q 1449 954 1242 1141 q 1815 783 1675 789 l 1815 779 l 1811 770 q 1844 750 1844 755 l 1844 746 q 1791 758 1836 746 l 1787 758 l 1787 754 q 1815 742 1797 754 l 1799 722 q 1795 726 1795 722 l 1783 726 l 1783 722 q 1824 713 1813 718 l 1820 705 q 1758 713 1797 705 l 1758 709 q 1820 677 1820 686 l 1820 673 q 1811 665 1820 665 q 1803 673 1803 665 q 1754 685 1761 678 l 1750 685 q 1824 640 1764 667 l 1820 632 q 1746 669 1765 654 q 1742 656 1746 665 q 1832 587 1809 609 l 1832 579 l 1828 579 q 1787 612 1826 579 q 1746 636 1759 624 l 1742 636 q 1811 579 1793 579 l 1811 567 l 1807 567 l 1775 587 l 1775 579 q 1791 563 1784 563 q 1868 457 1791 551 l 1868 449 l 1860 449 l 1872 425 q 1868 420 1868 425 q 1852 445 1852 429 l 1844 441 q 1795 502 1810 479 l 1791 502 l 1864 400 l 1860 392 q 1893 331 1893 349 l 1889 331 q 1881 339 1881 331 l 1876 339 l 1893 315 l 1893 307 l 1889 307 q 1624 567 1776 471 l 1620 567 q 1669 522 1669 526 l 1669 518 l 1665 518 q 1234 689 1453 689 l 1230 689 q 1160 681 1193 689 q 1156 685 1160 685 q 1234 701 1156 699 q 1286 697 1284 697 l 1295 697 l 1295 701 q 1136 718 1185 718 q 790 648 962 718 q 766 616 766 642 l 762 616 l 753 620 l 758 640 l 758 681 q 656 901 758 795 q 395 1043 502 1033 l 399 1051 l 416 1051 q 696 864 604 992 l 701 864 q 314 1072 558 1072 l 306 1072 q 286 1059 286 1072 l 277 1059 q 245 1190 277 1090 q -20 1417 131 1417 q -105 1397 -47 1417 q -113 1405 -105 1405 l -113 1409 q 497 1572 119 1572 m 562 1552 l 546 1552 l 546 1548 l 562 1548 l 562 1552 m 627 1548 l 583 1548 l 583 1544 l 627 1544 l 627 1548 m 660 1544 l 635 1544 l 635 1539 l 660 1539 l 660 1544 m 489 1531 l 460 1531 q 347 1523 445 1531 l 347 1519 l 359 1519 q 489 1527 459 1527 l 489 1531 m 286 1523 l 277 1523 l 216 1511 l 216 1507 l 220 1507 q 286 1519 275 1519 l 286 1523 m 534 1511 l 432 1511 l 432 1507 l 534 1507 l 534 1511 m 782 1491 l 774 1491 l 774 1487 l 782 1487 l 782 1491 m 802 1487 l 790 1487 l 790 1482 l 802 1482 l 802 1487 m 814 1482 l 806 1482 l 806 1478 l 814 1478 l 814 1482 m 998 1356 q 489 1458 797 1458 l 456 1458 q 208 1430 300 1458 l 208 1426 q 241 1393 208 1421 q 347 1226 323 1314 l 342 1226 q 355 1177 355 1181 l 355 1173 q 631 1080 489 1173 l 570 1133 l 570 1137 q 635 1092 585 1137 q 839 807 812 922 l 839 803 q 1079 844 968 844 l 1116 844 q 1510 746 1305 844 l 1510 750 q 1148 868 1306 868 q 1140 880 1148 880 l 1116 880 l 1116 876 l 1140 872 l 1140 864 q 1034 888 1034 871 l 1022 880 l 1018 880 l 1018 892 q 989 872 989 886 l 977 872 l 977 880 l 969 876 l 961 876 l 961 880 q 973 888 961 888 l 973 892 l 945 897 l 945 905 l 965 905 q 945 917 965 916 l 945 921 l 949 929 l 969 921 l 969 929 q 953 937 953 929 l 953 941 q 969 937 962 941 l 973 937 l 961 954 l 981 954 l 981 966 q 969 974 969 966 l 969 978 q 994 990 994 978 q 989 1006 989 1004 q 1006 1015 1006 1006 l 998 1015 l 998 1027 l 1002 1027 l 1010 1023 l 1006 1031 l 1006 1039 l 1010 1039 l 1018 1035 l 1022 1043 l 1022 1047 l 1018 1055 q 1022 1059 1022 1055 q 1026 1055 1026 1059 q 1050 1100 1050 1072 l 1059 1096 q 1144 1202 1110 1168 l 1144 1210 q 1067 1145 1095 1193 q 908 880 980 1078 l 908 868 l 904 868 q 892 892 897 868 q 953 1019 920 960 l 949 1019 q 876 880 881 885 l 871 880 q 924 1002 882 920 q 867 909 917 1002 l 859 909 l 859 913 q 941 1059 871 961 l 941 1063 l 937 1063 q 843 941 867 963 l 835 941 l 880 1006 q 867 1010 875 1006 q 831 958 863 1009 q 827 962 827 958 l 814 954 l 810 954 q 847 1015 836 1009 l 847 1019 q 810 982 813 982 l 806 982 l 806 990 l 814 1002 l 810 1010 q 843 1047 812 1010 q 835 1055 843 1054 q 814 1035 817 1035 l 810 1035 l 810 1047 q 823 1059 817 1059 l 819 1080 q 794 1055 796 1055 l 790 1055 l 790 1063 q 806 1088 806 1084 l 798 1100 l 790 1096 l 786 1096 q 770 1112 770 1106 q 741 1084 745 1096 l 733 1088 q 758 1120 733 1093 l 758 1124 l 753 1124 q 741 1112 741 1118 l 733 1116 l 745 1137 l 741 1145 q 680 1104 709 1145 l 672 1108 l 680 1124 q 676 1120 676 1124 q 668 1128 668 1120 l 668 1133 q 684 1128 677 1133 l 753 1173 l 745 1173 q 692 1141 692 1160 l 688 1141 l 680 1145 q 725 1177 680 1161 l 725 1185 l 721 1185 q 672 1161 702 1185 l 668 1161 l 668 1165 q 701 1190 684 1190 l 701 1194 q 688 1198 696 1194 q 587 1149 665 1198 l 583 1149 l 583 1153 q 587 1157 583 1157 l 656 1210 q 599 1185 644 1210 q 587 1190 594 1185 q 570 1177 587 1185 l 562 1177 q 578 1202 562 1202 l 578 1206 l 574 1206 q 526 1181 540 1181 l 526 1190 q 599 1226 589 1226 l 599 1230 l 595 1230 q 509 1185 535 1208 l 505 1185 l 505 1194 q 835 1287 558 1252 q 847 1279 845 1279 q 880 1287 865 1279 l 904 1279 q 928 1287 921 1287 q 932 1279 932 1287 l 941 1283 l 985 1283 l 994 1287 q 998 1283 994 1283 l 1050 1283 l 1050 1287 q 900 1299 951 1299 q 460 1198 607 1299 l 456 1198 l 456 1210 q 473 1218 463 1210 l 473 1222 q 456 1210 456 1216 l 448 1214 q 465 1230 448 1218 q 534 1267 534 1262 q 456 1230 517 1267 l 452 1230 l 452 1234 q 517 1271 452 1249 l 517 1275 l 513 1275 q 432 1234 433 1244 q 424 1242 424 1234 q 460 1271 424 1247 q 847 1340 638 1340 l 847 1344 l 705 1356 q 701 1352 705 1352 l 692 1356 q 399 1287 505 1328 l 387 1295 l 379 1291 q 375 1295 379 1295 q 387 1308 375 1298 q 477 1344 477 1328 l 477 1348 q 363 1312 448 1348 l 359 1312 l 359 1316 q 444 1360 359 1336 l 444 1373 q 375 1352 431 1373 l 375 1360 q 432 1381 420 1381 l 432 1389 q 395 1377 395 1384 l 383 1377 l 367 1369 l 359 1373 l 391 1397 l 310 1373 l 310 1381 q 395 1417 386 1406 l 404 1413 l 408 1413 l 408 1421 q 347 1413 385 1421 q 334 1421 347 1421 l 334 1426 q 412 1442 334 1436 q 729 1421 639 1434 q 989 1352 853 1401 l 998 1352 l 998 1356 m 200 1446 l 184 1446 l 184 1442 l 200 1442 l 200 1446 m 1095 1413 q 1046 1438 1090 1413 q 1091 1409 1046 1431 l 1095 1409 l 1095 1413 m -40 1434 l -56 1426 l -56 1421 q -40 1426 -50 1426 l -40 1434 m 1042 1413 q 1026 1426 1042 1419 q 1042 1413 1026 1419 m 505 1421 l 493 1421 l 493 1417 l 505 1417 l 505 1421 m 310 1426 q 322 1401 319 1426 l 318 1401 q 306 1417 312 1401 l 310 1426 m 290 1426 q 294 1409 290 1417 l 286 1405 l 269 1405 l 269 1417 q 277 1426 277 1417 l 290 1426 m -81 1421 l -89 1417 l -89 1413 l -81 1417 l -81 1421 m 481 1417 l 460 1417 l 465 1409 q 481 1413 471 1413 l 481 1417 m 538 1413 l 522 1413 l 522 1409 l 538 1409 l 538 1413 m 452 1413 l 440 1413 l 432 1409 l 436 1401 q 452 1405 443 1405 l 452 1413 m 1124 1409 l 1120 1409 l 1124 1401 l 1128 1401 l 1124 1409 m 578 1409 l 562 1409 l 562 1405 l 566 1397 q 578 1409 578 1403 m 509 1409 l 501 1409 l 501 1405 l 509 1405 l 509 1409 m 550 1405 q 526 1393 526 1400 l 526 1389 q 554 1397 533 1389 l 550 1405 m 489 1405 l 473 1401 l 473 1397 l 489 1397 l 489 1405 m 424 1405 l 420 1405 l 399 1401 l 399 1393 q 424 1397 420 1397 l 424 1405 m 172 1405 l 168 1405 l 172 1397 l 176 1397 l 172 1405 m 465 1397 l 452 1397 q 444 1389 444 1397 l 465 1393 l 465 1397 m 1148 1393 l 1144 1393 l 1148 1385 l 1152 1385 l 1148 1393 m 513 1393 l 505 1393 q 513 1385 505 1385 l 513 1393 m 501 1381 q 493 1389 501 1388 l 493 1381 l 501 1381 m 1160 1385 l 1156 1385 l 1160 1377 l 1164 1377 l 1160 1385 m 550 1385 q 505 1373 511 1373 l 505 1369 l 509 1369 q 550 1377 539 1377 l 550 1385 m 469 1385 q 452 1381 461 1381 l 452 1377 l 456 1369 q 473 1373 471 1373 l 473 1377 l 469 1385 m 587 1377 q 574 1364 574 1371 l 574 1360 q 587 1373 587 1367 l 587 1377 m 603 1373 l 595 1369 l 595 1364 l 603 1369 l 603 1373 m 37 1373 l 41 1364 l 41 1360 q -7 1348 7 1348 l -12 1348 l -12 1356 q 37 1373 3 1356 m 538 1364 q 493 1340 498 1364 q 538 1364 538 1346 m -68 1369 l -68 1364 q -77 1356 -68 1356 l -81 1356 l -81 1360 q -73 1369 -81 1367 l -68 1369 m 204 1287 q 139 1360 163 1355 q 200 1287 180 1318 l 204 1287 m 347 1360 l 355 1356 q 347 1348 355 1348 q 338 1356 338 1348 l 338 1360 l 347 1360 m -117 1360 l -117 1352 q -146 1344 -125 1352 l -150 1352 l -150 1356 l -121 1360 l -117 1360 m 318 1348 l 326 1344 q 318 1336 326 1336 l 310 1340 q 318 1348 310 1347 m -101 1336 l -93 1332 q -101 1324 -93 1324 l -109 1324 l -109 1328 q -101 1336 -109 1335 m 41 1332 q 50 1324 48 1332 l 50 1320 l 25 1320 l 17 1324 q 25 1332 17 1331 l 41 1332 m 229 1320 l 224 1320 l 257 1267 l 261 1267 l 229 1320 m 847 1316 l 770 1316 l 770 1312 l 847 1312 l 847 1316 m 766 1312 l 749 1312 l 749 1308 l 766 1308 l 766 1312 m 530 1316 l 530 1303 l 509 1299 l 509 1303 q 530 1316 509 1310 m 74 1299 l 74 1283 l 66 1283 l 66 1299 l 74 1299 m 473 1295 l 473 1291 l 469 1283 q 460 1291 460 1283 l 460 1295 l 473 1295 m 648 1287 l 644 1287 l 619 1283 l 619 1279 l 627 1279 l 648 1283 l 648 1287 m 1201 1283 l 1197 1283 l 1197 1275 l 1201 1275 l 1201 1283 m 448 1287 l 448 1275 l 440 1275 l 440 1287 l 448 1287 m 424 1287 l 420 1259 l 420 1251 l 416 1251 l 408 1255 q 420 1287 412 1287 l 424 1287 m 615 1279 l 607 1279 l 607 1275 l 615 1275 l 615 1279 m 391 1279 q 379 1246 391 1249 l 375 1246 q 383 1279 375 1253 l 391 1279 m 229 1271 l 224 1271 l 224 1267 q 241 1242 234 1242 q 229 1271 241 1247 m 762 1263 l 758 1263 l 701 1251 l 701 1246 l 705 1246 l 762 1259 l 762 1263 m 888 1246 l 884 1246 q 867 1242 876 1242 l 867 1238 l 876 1238 q 888 1242 883 1242 l 888 1246 m 688 1246 l 684 1246 q 676 1238 676 1246 l 676 1234 q 688 1238 684 1238 l 688 1246 m 265 1246 l 261 1246 l 261 1238 l 265 1238 l 265 1246 m 668 1234 l 660 1234 q 591 1206 643 1234 l 591 1202 l 595 1202 q 668 1230 632 1222 l 668 1234 m 611 1234 l 603 1234 l 603 1230 l 611 1230 l 611 1234 m 843 1230 l 827 1230 l 827 1222 l 843 1226 l 843 1230 m 932 1226 q 920 1222 924 1222 l 920 1218 l 924 1218 l 932 1222 l 932 1226 m 770 1222 l 762 1222 l 762 1218 l 770 1218 l 770 1222 m 249 1222 l 245 1222 l 245 1218 q 253 1194 253 1200 l 257 1194 l 257 1198 l 249 1222 m 814 1218 l 806 1218 l 806 1214 l 814 1214 l 814 1218 m 888 1206 q 867 1198 874 1198 l 867 1194 l 871 1194 q 888 1198 886 1198 l 888 1206 m 770 1206 l 762 1206 l 762 1202 l 770 1202 l 770 1206 m 717 1206 l 701 1206 l 701 1202 l 717 1202 l 717 1206 m 924 1202 l 916 1202 l 916 1194 q 924 1202 923 1194 m 749 1190 q 741 1198 749 1196 q 733 1190 733 1198 l 749 1190 m 778 1185 l 758 1185 l 758 1177 l 778 1181 l 778 1185 m 876 1177 q 859 1173 873 1177 l 859 1165 l 880 1169 l 876 1177 m 831 1173 l 823 1173 q 814 1165 814 1173 l 823 1165 q 831 1173 829 1165 m 770 1161 q 745 1157 758 1161 q 758 1145 751 1145 q 770 1161 764 1145 m 847 1153 q 839 1161 847 1160 l 839 1153 l 847 1153 m 1136 1157 l 1132 1157 l 1132 1149 l 1136 1149 l 1136 1157 m 802 1157 l 794 1157 q 786 1149 786 1157 q 794 1141 786 1141 q 802 1157 794 1147 m 831 1153 q 823 1145 823 1153 q 835 1141 827 1145 l 835 1145 l 831 1153 m 912 1149 l 904 1145 l 904 1141 l 912 1145 l 912 1149 m 900 1141 l 892 1137 l 892 1133 l 900 1137 l 900 1141 m 867 1141 l 863 1141 q 851 1128 851 1135 l 851 1124 q 867 1141 867 1135 m 823 1133 q 814 1141 823 1139 l 810 1141 q 802 1133 802 1141 q 810 1124 802 1124 l 823 1133 m 782 1133 q 774 1141 782 1139 l 766 1141 q 774 1133 766 1133 l 782 1133 m 1201 1133 l 1197 1133 q 1225 1067 1209 1099 q 1584 783 1342 867 l 1584 787 q 1409 897 1540 795 q 1201 1133 1238 1051 m 920 1133 q 904 1124 910 1124 l 904 1116 l 920 1128 l 920 1133 m 802 1116 q 790 1128 795 1128 l 786 1128 l 786 1124 q 794 1112 786 1122 l 802 1116 m 884 1124 l 863 1112 l 863 1108 l 884 1120 l 884 1124 m 965 1120 q 876 1027 880 1027 l 880 1010 q 965 1116 937 1088 l 965 1120 m 839 1120 q 831 1112 831 1120 l 831 1108 q 839 1116 838 1108 l 839 1120 m 1140 1116 l 1136 1116 l 1140 1108 l 1144 1108 l 1140 1116 m 493 1104 l 440 1116 l 440 1112 l 489 1100 l 493 1100 l 493 1104 m 896 1112 q 871 1096 880 1096 l 876 1088 q 896 1108 896 1103 l 896 1112 m 810 1112 l 806 1112 l 806 1104 l 810 1104 l 810 1112 m 843 1104 l 839 1104 q 843 1092 843 1096 l 847 1092 l 855 1096 l 855 1100 q 851 1096 851 1100 q 843 1104 843 1096 m 684 1023 q 578 1100 637 1071 q 680 1023 680 1029 l 684 1023 m 839 1084 q 831 1092 839 1090 l 823 1088 q 831 1076 823 1086 q 839 1084 838 1076 m 489 1063 q 416 1088 427 1088 l 408 1088 l 408 1084 q 485 1059 429 1084 l 489 1059 l 489 1063 m 871 1076 q 863 1084 871 1082 l 859 1084 l 859 1080 l 863 1072 l 871 1076 m 371 1084 l 355 1084 l 355 1080 l 371 1080 l 371 1084 m 306 1084 l 294 1084 l 294 1080 l 306 1080 l 306 1084 m 851 1072 q 843 1063 843 1072 l 847 1055 q 855 1063 854 1055 l 851 1072 m 1303 1067 l 1299 1067 l 1315 1043 l 1319 1043 l 1303 1067 m 778 1072 q 782 1059 778 1067 q 778 1055 778 1059 q 766 1059 770 1059 l 766 1072 l 778 1072 m 745 1055 l 741 1039 l 729 1039 l 733 1055 l 745 1055 m 607 1002 q 542 1051 585 1028 l 542 1043 q 603 1002 603 1013 l 607 1002 m 725 868 l 705 901 q 513 1051 584 1023 l 509 1051 l 509 1047 q 721 868 617 1002 l 725 868 m 770 1051 l 766 1035 l 758 1035 l 758 1051 l 770 1051 m 371 1051 l 379 1047 q 371 1039 379 1039 l 342 1039 l 342 1047 q 371 1051 355 1047 m 607 1035 l 603 1035 l 607 1027 l 611 1027 l 607 1035 m 322 1039 q 330 1031 329 1039 l 330 1027 l 322 1027 q 314 1035 314 1027 l 314 1039 l 322 1039 m 1335 1031 l 1331 1031 q 1339 1019 1331 1029 l 1343 1019 l 1335 1031 m 619 1027 l 615 1027 l 660 982 l 664 982 q 619 1027 619 1023 m 261 1031 l 261 1023 q 253 1015 261 1015 l 249 1015 l 249 1023 q 257 1031 249 1029 l 261 1031 m 1075 1019 l 1067 1019 q 1075 1010 1067 1010 l 1075 1019 m 1055 1010 q 1042 998 1042 1004 l 1050 998 q 1055 1010 1050 1002 m 1282 1010 q 1339 949 1286 1010 l 1335 949 q 1282 1006 1282 996 l 1282 1010 m 1164 1006 l 1156 1006 l 1156 1002 l 1164 1002 l 1164 1006 m 1018 1006 l 1014 1006 l 1014 998 l 1018 998 l 1018 1006 m 1071 1002 l 1063 1002 l 1063 990 q 1071 998 1069 990 l 1071 1002 m 1095 990 l 1087 990 l 1087 982 l 1095 982 l 1095 990 m 1018 990 l 1010 990 q 1002 982 1002 990 l 1002 974 l 1014 974 q 1018 986 1014 978 l 1018 990 m 1030 982 l 1026 982 q 1022 970 1026 978 l 1030 970 l 1030 982 m 1124 974 q 1112 978 1119 974 l 1107 978 l 1107 974 q 1120 970 1112 974 l 1124 970 l 1124 974 m 1095 966 q 1087 974 1095 972 l 1087 966 l 1095 966 m 1124 954 q 1107 966 1124 960 l 1107 958 q 1124 954 1116 958 m 1506 966 q 1539 941 1531 941 l 1539 933 l 1527 933 q 1498 962 1498 956 l 1498 966 l 1506 966 m 1010 962 l 998 962 q 989 954 989 962 q 1002 949 994 954 q 1010 962 1006 949 m 1030 958 l 1022 958 l 1022 949 l 1030 949 l 1030 958 m 1050 954 l 1046 954 l 1046 945 l 1050 945 l 1050 954 m 1181 933 q 1168 937 1176 933 l 1164 937 l 1164 933 q 1177 929 1168 933 l 1181 929 l 1181 933 m 1050 937 l 1042 937 l 1042 925 q 1050 933 1049 925 l 1050 937 m 1030 937 l 1018 937 q 1022 925 1022 929 l 1030 925 l 1030 937 m 1079 933 l 1075 933 l 1075 925 l 1079 925 l 1079 933 m 1360 933 q 1384 909 1384 914 l 1380 909 q 1356 933 1356 928 l 1360 933 m 1209 925 q 1193 929 1200 925 l 1193 921 q 1209 917 1202 921 l 1209 925 m 994 929 l 985 929 l 985 925 l 994 925 l 994 929 m 1588 925 l 1588 921 q 1579 913 1588 913 l 1555 913 l 1555 917 q 1563 925 1555 924 l 1588 925 m 1238 905 q 1221 917 1238 911 q 1238 905 1221 911 m 1152 913 q 1140 917 1147 913 l 1140 905 l 1152 905 l 1152 913 m 1128 917 l 1120 917 l 1120 909 l 1128 909 l 1128 917 m 1030 909 l 1018 909 l 1018 905 l 1030 905 l 1030 909 m 989 909 l 981 909 l 981 901 l 989 901 l 989 909 m 1099 897 q 1091 905 1099 903 l 1091 892 l 1099 892 l 1099 897 m 1079 905 q 1067 892 1067 899 l 1079 892 l 1079 905 m 1010 905 l 1002 901 l 1002 897 l 1010 901 l 1010 905 m 1116 901 l 1107 901 l 1107 897 l 1116 897 l 1116 901 m 1050 901 l 1042 901 q 1050 892 1042 892 l 1050 901 m 1128 897 l 1124 897 l 1124 888 l 1128 888 l 1128 897 m 1628 897 q 1636 888 1635 897 q 1628 880 1636 880 l 1624 880 l 1624 888 l 1628 897 m 1225 888 q 1209 892 1216 888 q 1205 888 1209 888 q 1213 880 1205 880 l 1225 880 l 1225 888 m 1156 892 l 1140 892 l 1140 888 l 1156 888 l 1156 892 m 1339 868 q 1323 880 1339 874 l 1323 872 q 1335 868 1327 872 l 1339 868 m 1693 880 l 1693 876 q 1657 856 1693 864 l 1657 860 q 1689 880 1657 866 l 1693 880 m 1531 860 q 1522 868 1531 867 l 1518 868 l 1518 860 l 1531 860 m 1718 864 l 1726 860 q 1710 848 1726 854 l 1706 856 l 1706 860 q 1718 864 1710 860 m 1441 864 q 1453 852 1453 858 l 1449 852 q 1437 864 1437 858 l 1441 864 m 1551 848 q 1543 856 1551 854 l 1539 856 q 1547 848 1539 848 l 1551 848 m 1335 852 q 1323 856 1331 852 l 1315 856 l 1315 852 q 1327 848 1319 852 l 1335 848 l 1335 852 m 721 856 l 717 856 q 758 766 739 820 l 762 766 l 762 770 q 721 856 754 804 m 876 856 q 884 848 882 856 l 884 844 l 863 848 l 863 856 l 876 856 m 1457 852 q 1466 844 1464 852 l 1461 844 q 1453 852 1453 844 l 1457 852 m 855 844 q 859 831 855 840 l 859 827 l 855 827 l 843 836 q 851 844 843 842 l 855 844 m 1771 831 l 1771 827 q 1763 819 1771 819 l 1750 819 l 1750 831 l 1771 831 m 1714 795 q 1632 823 1679 801 l 1624 823 l 1624 819 q 1710 791 1702 791 l 1714 791 l 1714 795 m 1661 787 q 1596 815 1655 787 q 1657 783 1596 807 l 1661 783 l 1661 787 m 1726 791 l 1718 791 l 1718 787 l 1726 787 l 1726 791 m 961 791 l 949 791 l 949 787 l 961 787 l 961 791 m 1193 787 l 1173 787 l 1173 783 l 1193 783 l 1193 787 m 1763 754 q 1710 770 1751 754 l 1706 770 q 1754 750 1706 764 l 1763 750 l 1763 754 m 1116 770 l 1071 770 q 981 762 1061 770 l 981 758 l 989 758 q 1116 766 1063 766 l 1116 770 m 1348 754 q 1331 758 1338 754 l 1323 758 l 1323 754 q 1339 750 1332 754 l 1348 750 l 1348 754 m 973 758 l 969 758 q 937 750 967 758 l 937 746 l 941 746 l 973 754 l 973 758 m 1441 722 l 1360 750 l 1352 750 l 1352 746 q 1437 718 1362 746 l 1441 718 l 1441 722 m 1132 750 l 1087 750 l 1087 746 l 1132 746 l 1132 750 m 1083 746 l 1050 746 l 1050 742 l 1083 742 l 1083 746 m 1323 713 q 1136 734 1219 734 q 1030 730 1107 734 l 1030 726 l 1046 726 q 1116 730 1094 730 q 1315 709 1221 730 l 1323 709 l 1323 713 m 1571 701 q 1531 726 1571 707 q 1571 701 1531 720 m 1026 726 l 1002 726 l 1002 722 l 1026 722 l 1026 726 m 994 722 l 973 722 l 973 718 l 994 718 l 994 722 m 1453 718 l 1445 718 l 1445 713 l 1453 713 l 1453 718 m 969 718 l 957 718 l 957 713 l 969 713 l 969 718 m 1449 681 l 1441 681 l 1441 677 l 1449 677 l 1449 681 m 1132 685 l 1132 681 q 1087 665 1132 672 q 1083 669 1087 669 q 1132 685 1083 679 m 1470 673 q 1457 677 1465 673 l 1453 677 l 1453 673 q 1466 669 1457 673 l 1470 669 l 1470 673 m 1522 652 q 1478 669 1512 652 l 1474 669 l 1474 665 q 1514 648 1483 665 l 1522 648 l 1522 652 m 1059 669 l 1059 665 q 1050 656 1059 656 l 1042 656 l 1042 669 l 1059 669 m 668 669 l 668 661 l 660 661 l 660 669 l 668 669 m 985 652 l 985 644 l 981 636 q 973 644 973 636 q 981 652 973 651 l 985 652 m 737 652 q 729 644 737 644 l 717 644 l 717 652 l 737 652 m 1864 359 q 1535 644 1747 546 l 1535 640 q 1661 563 1535 637 q 1860 359 1807 450 l 1864 359 m 1742 616 l 1738 616 l 1750 600 l 1758 600 l 1758 604 q 1742 616 1742 604 m 1689 587 l 1685 587 l 1697 571 l 1702 571 l 1689 587 m 1710 571 l 1706 571 l 1718 555 l 1722 555 l 1710 571 m 1820 494 l 1815 494 l 1815 490 l 1828 473 l 1832 473 q 1820 494 1820 487 m 1702 490 q 1750 441 1750 454 l 1750 433 q 1693 477 1706 477 l 1693 490 l 1702 490 m 1856 461 l 1852 461 l 1856 453 l 1860 453 l 1856 461 m 1763 420 q 1775 408 1775 414 l 1775 404 l 1763 404 q 1758 416 1763 408 q 1763 420 1763 416 m 1791 388 q 1803 372 1797 388 l 1803 368 l 1791 368 q 1787 380 1791 372 l 1791 388 z "},")":{"ha":1884,"x_min":-5,"x_max":2005,"o":"m 1386 1581 l 1386 1581 l 1386 1581 q 1586 1569 1487 1581 q 2005 1415 1894 1516 q 1992 1411 1992 1415 l 1992 1407 q 1919 1427 1936 1427 q 1826 1394 1881 1427 q 1663 1158 1714 1323 l 1655 1158 l 1655 1166 q 1809 1394 1704 1322 l 1809 1398 q 1695 1293 1756 1371 q 1610 1069 1625 1183 l 1602 1069 q 1594 1081 1602 1081 l 1561 1081 q 1187 878 1341 1081 l 1187 873 q 1492 1061 1365 1061 l 1492 1053 q 1358 1004 1455 1053 q 1130 694 1130 860 q 1134 625 1130 673 l 1130 625 q 1122 646 1122 625 q 764 727 945 727 q 593 711 698 727 l 593 707 l 601 707 l 650 711 q 731 703 680 711 l 731 699 l 727 690 q 662 699 709 699 l 654 699 q 227 528 429 699 l 218 532 q 267 572 227 545 l 267 576 q 3 316 107 481 l -5 320 l 11 349 l -1 340 l -5 340 q 27 406 11 379 l 23 406 q 92 499 64 471 l 92 503 q 43 450 87 503 l 35 454 q 19 430 35 437 l 19 434 q 31 458 19 454 l 31 463 l 23 458 l 19 458 l 19 467 q 60 515 54 514 q 52 524 60 522 l 64 544 q 239 699 194 676 l 239 703 q 76 581 115 631 q 68 589 68 581 q 153 658 115 641 l 153 666 l 149 666 l 92 629 l 88 629 l 88 633 q 174 690 130 673 l 174 694 l 170 694 q 88 670 97 670 l 88 674 l 92 682 q 153 707 153 700 q 104 699 125 699 l 84 699 l 84 703 l 88 711 q 100 707 92 711 q 210 739 154 714 l 210 743 l 206 743 q 72 715 115 715 l 64 719 q 129 731 64 728 l 129 735 l 109 735 l 88 731 q 76 743 88 743 l 76 755 q 100 764 79 755 l 100 768 l 96 768 q 43 755 50 755 l 43 764 q 76 784 76 774 l 72 792 l 121 800 q 491 1012 286 831 q 654 1305 654 1183 q 650 1309 650 1305 l 650 1317 l 662 1317 l 662 1301 l 666 1301 l 666 1317 q 841 1443 743 1390 l 841 1447 q 666 1325 758 1407 l 662 1325 l 662 1329 q 764 1415 700 1374 q 1386 1581 1048 1581 m 1573 1557 l 1573 1557 l 1451 1569 l 1431 1569 l 1431 1565 q 1561 1553 1463 1565 l 1573 1553 l 1573 1557 m 1358 1561 l 1358 1561 l 1325 1561 q 1154 1537 1266 1561 q 837 1423 1019 1521 l 837 1419 q 1358 1557 1114 1557 l 1358 1561 m 1594 1553 l 1594 1553 l 1577 1553 l 1577 1549 l 1594 1549 l 1594 1553 m 1712 1537 l 1712 1537 l 1687 1541 l 1683 1541 l 1683 1537 q 1699 1533 1693 1537 l 1712 1533 l 1712 1537 m 1545 1533 l 1545 1533 l 1545 1533 q 1435 1541 1450 1541 l 1374 1541 l 1374 1537 q 1533 1529 1443 1537 l 1545 1529 l 1545 1533 m 1459 1520 l 1459 1520 l 1362 1520 l 1362 1516 l 1459 1516 l 1459 1520 m 1097 1496 l 1097 1496 l 1089 1496 l 1089 1492 l 1097 1492 l 1097 1496 m 1081 1492 l 1081 1492 l 1073 1492 l 1073 1488 l 1081 1488 l 1081 1492 m 1679 1439 l 1679 1439 l 1679 1439 q 1443 1468 1586 1468 l 1394 1468 q 1195 1455 1313 1468 q 833 1333 1028 1441 l 833 1329 l 837 1329 q 853 1333 851 1333 q 1366 1443 1057 1443 l 1374 1439 l 1374 1443 l 1394 1439 l 1419 1439 q 1427 1447 1426 1439 q 1508 1431 1444 1431 q 1520 1439 1518 1439 l 1529 1435 q 1525 1431 1529 1430 q 1533 1423 1525 1423 l 1545 1423 q 1557 1431 1555 1431 l 1561 1431 l 1561 1427 l 1557 1419 q 1586 1411 1577 1411 l 1586 1402 q 1569 1382 1569 1402 l 1565 1382 l 1557 1386 l 1565 1402 q 1549 1411 1565 1407 q 1533 1390 1541 1409 q 1561 1382 1541 1390 l 1557 1374 q 1492 1386 1548 1374 q 1468 1374 1472 1386 q 1480 1370 1472 1374 q 1496 1378 1486 1370 l 1504 1378 q 1500 1366 1504 1373 q 1516 1358 1500 1360 l 1525 1370 l 1533 1366 q 1525 1354 1533 1364 q 1545 1341 1545 1350 l 1545 1337 q 1488 1358 1537 1337 l 1480 1354 q 1472 1362 1480 1360 l 1451 1358 q 1431 1370 1451 1368 q 1423 1362 1431 1362 l 1415 1362 l 1415 1370 l 1411 1370 q 1407 1358 1411 1365 q 1533 1317 1450 1358 q 1525 1309 1533 1309 q 1354 1354 1449 1349 l 1341 1337 l 1362 1333 l 1370 1333 l 1382 1341 l 1386 1341 l 1386 1337 l 1382 1329 q 1394 1325 1386 1329 q 1407 1333 1407 1325 l 1415 1329 l 1411 1321 q 1468 1301 1468 1308 l 1468 1297 q 1374 1321 1458 1297 q 1362 1313 1374 1316 q 1333 1325 1361 1320 l 1329 1325 q 1321 1317 1321 1325 q 1463 1252 1430 1289 l 1463 1248 l 1455 1248 q 1386 1280 1434 1262 l 1382 1280 l 1382 1276 q 1435 1248 1435 1255 l 1435 1240 l 1431 1240 q 1362 1276 1413 1255 l 1354 1276 l 1354 1272 q 1439 1227 1419 1244 l 1435 1219 l 1415 1232 l 1431 1215 l 1431 1207 l 1427 1207 q 996 1309 1286 1309 q 768 1276 867 1309 l 768 1272 l 837 1211 q 1032 918 985 1047 l 1020 918 q 963 1020 1020 924 l 959 1020 q 1016 890 1016 907 l 1008 890 q 943 1024 991 934 l 939 1024 q 996 906 996 911 q 991 890 996 904 q 1000 882 991 882 l 996 873 q 882 886 944 886 l 861 886 q 515 817 694 886 l 515 812 l 519 812 q 772 853 659 853 l 812 853 q 1044 812 925 853 q 1313 1146 1125 1015 l 1317 1146 l 1317 1134 q 1252 1089 1298 1127 l 1252 1085 q 1529 1183 1394 1183 q 1549 1248 1542 1209 q 1679 1435 1549 1308 l 1679 1439 m 1402 1431 l 1402 1431 l 1382 1431 q 1362 1411 1362 1416 l 1382 1411 q 1402 1423 1396 1423 l 1402 1431 m 1362 1431 l 1362 1431 l 1358 1431 q 1350 1423 1350 1431 l 1350 1419 l 1358 1419 q 1362 1431 1358 1423 m 1341 1431 l 1341 1431 l 1309 1431 l 1313 1423 q 1317 1427 1317 1423 q 1333 1423 1326 1427 q 1341 1431 1340 1423 m 1496 1419 l 1496 1419 l 1496 1419 q 1455 1427 1466 1423 q 1435 1402 1435 1409 l 1439 1402 l 1459 1419 l 1463 1419 l 1463 1415 q 1455 1402 1463 1413 l 1476 1402 q 1496 1415 1489 1415 l 1496 1419 m 1439 1427 l 1439 1427 l 1423 1427 q 1402 1407 1402 1412 l 1419 1407 q 1439 1427 1439 1421 m 1223 1423 l 1223 1423 l 1219 1423 q 1211 1415 1211 1423 l 1223 1415 l 1223 1423 m 1618 1423 l 1618 1423 l 1634 1419 l 1634 1411 l 1618 1411 l 1618 1423 m 1533 1415 l 1533 1415 l 1508 1419 l 1492 1398 l 1512 1394 l 1525 1394 q 1533 1411 1525 1400 l 1533 1415 m 1606 1419 l 1606 1419 l 1606 1407 l 1598 1407 l 1598 1419 l 1606 1419 m 1805 1411 l 1805 1411 l 1805 1411 q 1687 1301 1725 1372 q 1805 1407 1779 1407 l 1805 1411 m 1463 1390 l 1463 1390 l 1463 1390 q 1447 1394 1455 1390 l 1435 1378 q 1455 1374 1449 1378 l 1463 1390 m 1431 1394 l 1431 1394 l 1431 1394 q 1419 1382 1419 1388 l 1419 1378 q 1431 1390 1431 1384 l 1431 1394 m 1415 1394 l 1415 1394 l 1411 1394 l 1398 1386 l 1390 1390 q 1378 1386 1390 1385 l 1378 1382 l 1402 1382 q 1415 1394 1415 1388 m 1358 1394 l 1358 1394 l 1350 1394 q 1341 1386 1341 1394 l 1345 1386 l 1354 1390 q 1358 1386 1354 1385 l 1358 1394 m 1305 1386 l 1305 1386 l 1305 1386 q 1297 1394 1305 1393 l 1293 1394 l 1293 1386 l 1305 1386 m 1276 1394 l 1276 1394 l 1260 1394 l 1260 1390 l 1276 1390 l 1276 1394 m 1716 1382 l 1716 1382 l 1716 1382 q 1695 1358 1701 1374 q 1716 1378 1699 1358 l 1716 1382 m 1398 1370 l 1398 1370 l 1398 1370 q 1378 1374 1385 1370 q 1370 1362 1378 1372 l 1398 1362 l 1398 1370 m 1341 1358 l 1341 1358 l 1329 1358 q 1313 1341 1313 1348 l 1325 1341 q 1341 1358 1341 1351 m 1309 1358 l 1309 1358 l 1289 1358 l 1289 1354 q 1301 1350 1293 1354 q 1309 1358 1308 1350 m 1284 1333 l 1284 1333 l 1284 1333 q 1272 1337 1280 1333 q 1264 1329 1264 1337 l 1264 1325 l 1276 1325 q 1284 1333 1283 1325 m 1256 1337 l 1256 1337 l 1240 1337 l 1240 1333 q 1252 1329 1244 1333 l 1256 1329 l 1256 1337 m 1317 1329 l 1317 1329 l 1317 1329 q 1301 1333 1308 1329 q 1293 1321 1301 1331 l 1309 1321 q 1317 1329 1316 1321 m 792 1301 l 792 1301 l 784 1301 l 784 1297 l 792 1297 l 792 1301 m 1268 1293 l 1268 1293 l 1268 1293 q 1252 1297 1259 1293 l 1240 1297 l 1240 1293 l 1264 1289 l 1268 1289 l 1268 1293 m 1280 1289 l 1280 1289 l 1272 1289 l 1272 1284 l 1280 1284 l 1280 1289 m 1048 1293 l 1048 1293 l 1048 1293 q 1374 1215 1237 1293 l 1370 1207 q 1276 1248 1324 1231 l 1272 1248 l 1272 1244 q 1321 1211 1279 1244 l 1317 1191 l 1313 1191 q 1232 1260 1257 1229 q 1219 1256 1223 1256 l 1219 1252 q 1301 1187 1301 1191 l 1301 1183 l 1293 1183 l 1268 1203 l 1268 1199 q 1276 1187 1268 1197 l 1276 1183 l 1272 1183 q 1223 1223 1230 1223 q 1211 1215 1211 1223 q 1260 1179 1240 1203 l 1260 1175 l 1252 1175 q 1171 1232 1219 1203 l 1166 1232 l 1166 1223 q 1199 1203 1171 1223 q 1203 1207 1199 1207 l 1207 1207 l 1207 1199 q 1248 1158 1207 1193 l 1248 1150 l 1244 1150 q 1199 1191 1199 1187 q 1154 1219 1185 1191 l 1150 1219 q 1154 1215 1150 1215 l 1150 1207 l 1215 1146 l 1215 1138 l 1211 1138 q 1130 1211 1130 1207 q 1122 1203 1122 1211 q 1138 1187 1138 1192 q 1187 1134 1187 1143 l 1187 1130 l 1183 1130 l 1114 1195 q 1081 1191 1110 1195 q 1150 1122 1150 1125 l 1150 1118 l 1142 1118 q 1118 1142 1118 1136 q 1105 1138 1109 1138 l 1105 1134 l 1126 1105 l 1126 1097 l 1122 1097 q 1093 1130 1119 1097 q 1081 1126 1089 1130 q 1073 1138 1073 1126 l 1065 1134 l 1105 1089 l 1105 1085 l 1093 1085 q 1048 1130 1093 1098 q 1036 1122 1046 1130 l 1032 1122 q 1073 1057 1032 1111 l 1073 1053 l 1065 1053 q 1020 1118 1020 1108 l 1008 1118 l 1008 1114 q 1061 1028 1023 1097 l 1061 1020 l 1057 1020 l 1048 1024 l 1048 1016 l 1036 1016 l 1036 1020 q 1048 1028 1036 1027 q 1032 1061 1032 1055 l 1016 1053 l 1012 1061 l 1012 1065 q 1024 1073 1024 1065 l 1020 1081 l 1000 1077 q 979 1105 995 1077 l 975 1105 q 1028 979 1028 1013 l 1028 975 l 1024 975 q 1004 1032 1017 975 q 833 1244 886 1244 q 837 1248 833 1248 l 833 1256 l 833 1260 q 1028 1293 919 1293 l 1048 1293 m 1057 1284 l 1057 1284 l 1044 1284 l 1044 1280 l 1057 1280 l 1057 1284 m 1109 1268 l 1109 1268 l 1109 1268 q 1097 1272 1105 1268 l 1101 1264 l 1109 1264 l 1109 1268 m 1520 1264 l 1520 1264 l 1520 1252 q 1508 1248 1516 1252 q 1500 1256 1500 1248 l 1500 1260 l 1520 1264 m 1191 1240 l 1191 1240 l 1191 1240 q 1171 1256 1191 1245 l 1162 1256 l 1162 1248 q 1191 1240 1171 1248 m 1154 1240 l 1154 1240 l 1154 1240 q 1130 1256 1154 1246 l 1130 1248 q 1150 1240 1137 1248 l 1154 1240 m 1089 1240 l 1089 1240 l 1089 1240 q 1073 1252 1089 1246 l 1073 1244 q 1085 1240 1077 1244 l 1089 1240 m 1118 1248 l 1118 1248 l 1105 1248 l 1105 1244 q 1122 1236 1112 1244 l 1126 1236 l 1118 1248 m 1211 1236 l 1211 1236 l 1211 1236 q 1199 1240 1207 1236 l 1195 1240 q 1211 1227 1195 1234 l 1211 1236 m 1122 1219 l 1122 1219 l 1122 1219 q 1101 1223 1108 1219 q 1105 1211 1105 1215 l 1114 1211 q 1122 1219 1120 1211 m 1065 1223 l 1065 1223 l 1044 1223 l 1044 1219 l 1065 1219 l 1065 1223 m 1476 1223 l 1476 1223 l 1476 1223 q 1488 1207 1482 1223 q 1484 1203 1484 1207 q 1472 1215 1472 1209 l 1476 1223 m 991 1219 l 991 1219 l 983 1219 q 991 1211 983 1211 l 991 1219 m 1036 1207 l 1036 1207 l 1036 1207 q 1028 1215 1036 1214 l 1024 1215 q 1032 1207 1024 1207 l 1036 1207 m 1085 1211 l 1085 1211 l 1077 1211 l 1077 1207 l 1085 1207 l 1085 1211 m 646 1211 l 646 1211 l 642 1211 q 629 1183 642 1203 q 646 1207 636 1183 l 646 1211 m 1020 1199 l 1020 1199 l 1020 1199 q 1004 1207 1014 1199 q 996 1199 996 1207 q 1008 1195 1000 1199 l 1020 1195 l 1020 1199 m 821 1203 l 821 1203 l 817 1203 q 825 1191 817 1201 l 829 1191 l 821 1203 m 739 1203 l 739 1203 l 735 1203 q 393 833 636 985 l 393 829 l 418 841 q 743 1179 718 1044 q 739 1203 739 1200 m 1061 1183 l 1061 1183 l 1053 1183 l 1053 1179 l 1061 1179 l 1061 1183 m 987 1183 l 987 1183 l 979 1183 l 979 1179 l 987 1179 l 987 1183 m 1081 1175 l 1081 1175 l 1073 1171 l 1065 1175 q 1081 1154 1065 1172 l 1097 1158 l 1081 1175 m 1008 1171 l 1008 1171 l 996 1171 l 996 1166 l 1008 1166 l 1008 1171 m 1057 1166 l 1057 1166 l 1036 1162 l 1036 1154 q 1053 1142 1053 1152 q 1069 1146 1067 1146 l 1069 1150 l 1057 1166 m 1146 1162 l 1146 1162 l 1146 1150 l 1142 1150 l 1134 1154 q 1142 1162 1134 1161 l 1146 1162 m 1040 1138 l 1040 1138 l 1040 1138 q 1024 1154 1030 1154 l 1004 1154 l 1004 1150 l 1012 1150 q 1024 1130 1018 1130 l 1028 1130 l 1040 1138 m 991 1154 l 991 1154 l 991 1154 q 983 1146 983 1154 l 983 1142 l 987 1142 l 996 1146 l 991 1154 m 1105 1150 l 1105 1150 l 1093 1150 l 1093 1142 l 1097 1142 q 1105 1150 1104 1142 m 1008 1134 l 1008 1134 l 1004 1134 l 996 1130 l 1000 1122 q 1008 1130 1006 1122 l 1008 1134 m 1000 1109 l 1000 1109 l 996 1109 q 1000 1089 1000 1103 l 1012 1089 l 1000 1109 m 1569 1097 l 1569 1097 l 1561 1097 l 1561 1089 q 1569 1097 1568 1089 m 1594 1093 l 1594 1093 l 1581 1093 l 1581 1089 l 1594 1089 l 1594 1093 m 1537 1093 l 1537 1093 l 1516 1093 l 1516 1089 l 1537 1089 l 1537 1093 m 1699 1093 l 1699 1093 l 1699 1093 q 1708 1085 1706 1093 q 1667 1057 1691 1065 l 1659 1069 q 1699 1093 1685 1069 m 784 1081 l 784 1081 l 784 1081 q 776 1089 784 1088 l 776 1081 l 784 1081 m 1419 1081 l 1419 1081 l 1411 1081 l 1325 1032 l 1325 1028 q 1350 1044 1350 1040 q 1419 1081 1419 1075 m 1179 1085 l 1179 1085 l 1179 1085 q 1187 1077 1185 1085 l 1187 1073 l 1171 1073 q 1162 1081 1162 1073 l 1162 1085 l 1179 1085 m 1350 1061 l 1350 1061 l 1345 1061 l 1280 1016 l 1280 1012 l 1350 1061 m 833 1053 l 833 1053 l 833 1053 q 825 1061 833 1059 l 821 1061 l 821 1048 l 833 1048 l 833 1053 m 808 1048 l 808 1048 l 808 1048 q 800 1057 808 1055 l 796 1057 l 796 1048 l 808 1048 m 747 1057 l 747 1057 l 739 1057 l 739 1044 q 747 1053 746 1044 l 747 1057 m 1529 1053 l 1529 1053 l 1529 1053 q 1537 1044 1535 1053 l 1537 1040 l 1529 1040 q 1516 1053 1516 1046 l 1529 1053 m 910 1048 l 910 1048 l 906 1048 l 906 1044 l 930 1004 l 935 1004 q 910 1048 910 1042 m 1284 1044 l 1284 1044 l 1284 1044 q 1236 1004 1257 1023 l 1236 1000 q 1284 1040 1257 1019 l 1284 1044 m 1126 1048 l 1126 1048 l 1126 1048 q 1134 1040 1133 1048 l 1134 1036 l 1114 1036 q 1105 1044 1105 1036 l 1105 1048 l 1126 1048 m 1651 1044 l 1651 1044 l 1651 1032 l 1630 1028 l 1630 1032 q 1647 1044 1630 1038 l 1651 1044 m 873 1024 l 873 1024 l 873 1024 q 861 1040 867 1040 l 857 1040 q 869 1024 863 1024 l 873 1024 m 845 1040 l 845 1040 l 829 1040 l 833 1032 q 837 1036 837 1032 l 845 1032 l 845 1040 m 825 1020 l 825 1020 l 825 1020 q 812 1040 822 1040 l 808 1040 l 808 1036 q 825 1020 819 1020 m 1561 1040 l 1561 1040 l 1561 1032 l 1553 1032 l 1553 1040 l 1561 1040 m 796 1036 l 796 1036 l 784 1036 l 784 1032 q 800 1024 790 1032 l 804 1024 l 796 1036 m 1321 1028 l 1321 1028 l 1321 1028 q 1162 878 1202 951 q 1321 1024 1277 1006 l 1321 1028 m 967 918 l 967 918 l 967 918 q 902 1024 944 980 l 898 1024 l 898 1020 q 963 918 943 959 l 967 918 m 873 996 l 873 996 l 873 996 q 853 1012 872 1006 l 849 1012 l 869 996 l 873 996 m 837 1012 l 837 1012 l 829 1012 l 829 1008 l 837 1008 l 837 1012 m 812 1012 l 812 1012 l 800 1012 l 800 1008 l 812 1008 l 812 1012 m 788 1012 l 788 1012 l 776 1012 l 776 1008 l 788 1008 l 788 1012 m 727 1008 l 727 1008 l 715 1008 l 715 1004 l 727 1004 l 727 1008 m 894 1004 l 894 1004 l 882 1004 q 894 991 888 991 l 898 991 q 894 1004 894 999 m 837 971 l 837 971 l 837 971 q 817 1000 826 997 l 808 1000 q 825 967 825 974 l 829 967 l 837 971 m 1097 1000 l 1097 1000 l 1097 1000 q 1105 991 1104 1000 l 1105 987 l 1093 987 q 1085 996 1085 987 l 1085 1000 l 1097 1000 m 800 996 l 800 996 l 780 996 q 804 983 780 983 l 800 975 l 800 971 l 808 959 l 817 963 q 800 996 800 990 m 768 996 l 768 996 l 755 996 q 764 979 764 985 l 776 979 q 768 996 768 989 m 751 971 l 751 971 l 751 971 q 735 996 751 987 l 723 996 l 723 991 q 739 971 734 971 l 751 971 m 715 991 l 715 991 l 703 991 q 711 983 703 983 l 715 983 l 715 991 m 1065 991 l 1065 991 l 1073 987 q 1065 979 1073 979 l 1057 979 l 1057 983 q 1065 991 1057 990 m 886 983 l 886 983 l 865 983 q 873 975 865 975 l 878 975 q 886 983 884 975 m 857 975 l 857 975 l 857 975 q 849 983 857 982 l 845 983 l 845 979 q 853 971 845 971 l 857 971 l 857 975 m 682 983 l 682 983 l 674 983 l 674 971 l 682 971 l 682 983 m 625 983 l 625 983 l 621 983 q 601 967 601 972 q 625 983 617 967 m 963 890 l 963 890 l 963 890 q 906 979 963 905 l 898 979 q 939 906 928 937 l 939 902 l 935 902 q 902 935 911 935 l 898 935 q 918 894 918 898 l 943 894 q 959 890 952 894 l 963 890 m 719 979 l 719 979 l 719 979 q 711 971 711 979 l 711 967 l 727 967 l 719 979 m 784 971 l 784 971 l 776 971 l 776 967 q 784 959 776 959 l 788 959 q 784 971 784 966 m 906 943 l 906 943 l 906 943 q 890 967 906 959 l 878 967 q 906 943 888 943 m 703 967 l 703 967 l 699 967 q 690 959 690 967 l 690 955 l 694 955 q 703 963 701 955 l 703 967 m 869 963 l 869 963 l 857 963 q 861 947 857 961 q 873 951 869 951 q 869 963 869 958 m 764 963 l 764 963 l 764 963 q 719 955 748 963 l 723 947 q 768 955 730 947 l 764 963 m 857 935 l 857 935 l 857 935 q 841 959 848 959 l 833 959 q 853 935 833 941 l 857 935 m 650 959 l 650 959 l 646 959 l 637 955 l 637 951 q 650 955 646 955 l 650 959 m 825 955 l 825 955 l 817 955 l 817 951 q 829 939 823 939 q 825 955 825 953 m 1191 947 l 1191 947 l 1183 947 q 1146 894 1183 937 l 1146 890 q 1191 947 1152 890 m 1081 951 l 1081 951 l 1081 939 l 1073 939 l 1073 951 l 1081 951 m 800 926 l 800 926 l 800 926 q 772 947 776 947 q 739 939 751 939 q 747 918 739 918 l 751 918 l 800 922 l 800 914 q 755 910 785 910 l 760 902 l 760 898 l 751 898 q 739 910 739 904 q 735 906 735 910 q 727 914 727 906 l 731 922 q 723 935 727 922 l 711 926 q 723 898 711 909 l 723 894 l 682 890 l 662 890 l 666 882 l 686 886 l 690 886 l 690 878 q 837 894 753 894 l 837 898 l 784 898 l 768 894 q 764 898 768 898 q 849 910 764 910 l 865 910 l 873 906 l 869 898 q 906 894 903 898 l 906 898 q 878 939 884 938 l 873 939 q 865 922 865 939 l 837 926 l 800 926 m 715 947 l 715 947 l 694 943 l 694 935 q 719 939 716 939 l 715 947 m 572 943 l 572 943 l 568 943 l 568 935 l 572 935 l 572 943 m 686 930 l 686 930 l 686 930 q 678 939 686 937 l 674 939 l 674 926 l 678 926 l 686 930 m 650 939 l 650 939 l 642 939 l 642 935 l 650 935 l 650 939 m 633 926 l 633 926 l 633 926 q 625 935 633 933 q 621 922 625 930 l 625 922 l 633 926 m 666 930 l 666 930 l 654 930 l 654 922 l 658 922 q 666 930 665 922 m 699 918 l 699 918 l 682 918 q 686 914 682 913 l 678 902 l 707 902 q 699 918 699 911 m 674 914 l 674 914 l 654 910 l 654 902 l 674 906 l 674 914 m 585 914 l 585 914 l 576 910 l 576 906 l 585 910 l 585 914 m 642 910 l 642 910 l 642 910 q 629 906 633 906 l 629 898 q 646 902 637 902 l 642 910 m 564 910 l 564 910 l 556 906 l 556 902 l 564 906 l 564 910 m 979 906 l 979 906 l 979 906 q 971 898 971 906 l 971 890 l 979 890 l 979 906 m 861 902 l 861 902 l 841 902 l 841 898 l 861 898 l 861 902 m 621 894 l 621 894 l 621 894 q 613 902 621 901 l 609 902 q 601 894 601 902 l 601 890 l 621 894 m 243 906 l 243 906 l 243 898 l 231 898 l 231 906 l 243 906 m 540 894 l 540 894 l 532 890 l 532 886 l 540 890 l 540 894 m 369 878 l 369 878 l 365 878 q 357 869 357 878 l 369 869 l 369 878 m 202 878 l 202 878 l 202 865 q 182 857 195 865 l 178 857 l 178 869 q 198 878 188 869 l 202 878 m 1171 865 l 1171 865 l 1171 865 q 1154 845 1165 865 l 1154 841 q 1171 865 1161 841 m 349 865 l 349 865 l 345 865 q 336 857 336 865 l 340 857 q 349 865 347 857 m 589 857 l 589 857 l 581 857 l 581 853 l 589 853 l 589 857 m 263 833 l 263 833 l 259 833 q 174 804 184 804 l 174 800 l 178 800 q 263 829 213 808 l 263 833 m 381 825 l 381 825 l 381 825 q 353 804 353 809 q 381 821 363 804 l 381 825 m 251 804 l 251 804 l 218 792 l 218 788 l 222 788 q 251 804 251 798 m 170 800 l 170 800 l 161 800 l 161 796 l 170 796 l 170 800 m 715 796 l 715 796 l 690 796 l 690 792 l 715 792 l 715 796 m 1195 784 l 1195 784 l 1195 772 l 1183 772 l 1183 776 q 1191 784 1183 783 l 1195 784 m 890 768 l 890 768 l 890 768 q 821 780 890 777 l 792 780 l 792 776 q 890 768 840 776 m 788 780 l 788 780 l 776 780 l 776 776 l 788 776 l 788 780 m 186 780 l 186 780 l 182 780 q 149 772 156 772 l 149 768 l 153 768 q 186 776 179 776 l 186 780 m 564 768 l 564 768 l 560 768 q 446 731 527 760 l 446 727 l 450 727 q 564 764 527 756 l 564 768 m 841 755 l 841 755 l 841 755 q 788 760 823 755 l 751 760 l 751 755 q 829 751 799 755 l 841 751 l 841 755 m 861 739 l 861 739 l 861 739 q 760 743 794 743 l 755 743 q 564 723 665 743 l 564 719 l 572 719 q 760 739 665 739 q 849 735 795 739 l 861 735 l 861 739 m 149 739 l 149 739 l 133 739 l 133 735 l 149 735 l 149 739 m 1179 739 l 1179 739 l 1183 731 l 1183 727 l 1162 723 l 1158 723 l 1158 731 q 1179 739 1166 731 m 890 735 l 890 735 l 865 735 l 865 731 l 890 731 l 890 735 m 914 731 l 914 731 l 894 731 l 894 727 l 914 727 l 914 731 m 935 727 l 935 727 l 922 727 l 922 723 l 935 723 l 935 727 m 210 727 l 210 727 l 210 727 q 186 719 208 727 l 186 715 l 190 715 q 210 727 210 720 m 951 723 l 951 723 l 943 723 l 943 719 l 951 719 l 951 723 m 235 715 l 235 715 l 218 707 l 218 703 l 235 711 l 235 715 m 214 703 l 214 703 l 214 703 q 161 670 191 691 l 161 666 q 214 699 191 687 l 214 703 m 446 690 l 446 690 l 438 690 l 438 686 l 446 686 l 446 690 m 434 686 l 434 686 l 430 686 l 422 682 l 422 678 q 434 682 430 682 l 434 686 m 68 646 l 68 646 l 68 642 q 39 629 68 633 l 39 642 l 60 646 l 68 646 m 198 633 l 198 633 l 190 629 l 190 625 l 198 629 l 198 633 m 186 625 l 186 625 l 174 617 l 174 613 l 186 621 l 186 625 m 206 601 l 206 601 l 206 601 q 165 568 202 601 l 165 564 l 206 597 l 206 601 m 39 605 l 39 605 l 39 597 l 19 593 l 19 605 l 39 605 m 11 552 l 11 552 l 11 552 q 19 544 18 552 l 19 540 l 11 540 l 3 544 q 11 552 3 551 m 76 536 l 76 536 l 68 532 l 68 528 l 76 532 l 76 536 m 206 511 l 206 511 l 206 507 q 178 475 181 475 l 174 475 l 174 483 q 198 511 191 511 l 206 511 m 170 458 l 170 458 l 170 450 l 157 450 l 157 458 l 170 458 m 133 414 l 133 414 l 133 401 l 125 401 l 125 414 l 133 414 m 47 401 l 47 401 l 47 401 q 27 373 41 401 q 47 401 34 373 z "},"*":{"ha":734,"x_min":0,"x_max":0,"o":""},"+":{"ha":575,"x_min":0,"x_max":0,"o":""},",":{"ha":362,"x_min":0,"x_max":0,"o":""},"-":{"ha":663,"x_min":0,"x_max":0,"o":""},"­":{"ha":663,"x_min":0,"x_max":0,"o":""},".":{"ha":442,"x_min":0,"x_max":0,"o":""},"/":{"ha":579,"x_min":0,"x_max":0,"o":""},":":{"ha":384,"x_min":0,"x_max":0,"o":""},";":{"ha":384,"x_min":0,"x_max":0,"o":""},"<":{"ha":805,"x_min":0,"x_max":0,"o":""},"=":{"ha":594,"x_min":0,"x_max":0,"o":""},">":{"ha":784,"x_min":0,"x_max":0,"o":""},"?":{"ha":616,"x_min":18,"x_max":643,"o":"m 423 1572 l 423 1572 l 423 1572 q 535 1525 501 1561 l 543 1514 l 542 1506 l 538 1506 q 431 1560 488 1560 l 422 1560 l 422 1556 q 600 1428 494 1556 q 620 1248 625 1362 q 568 1100 616 1173 l 572 1100 q 632 1240 629 1176 q 628 1244 628 1240 l 636 1248 l 640 1240 l 640 1221 q 517 1025 636 1148 q 328 718 332 825 q 321 671 323 705 l 321 651 q 312 643 320 643 q 302 686 300 643 l 304 729 l 296 729 q 282 616 283 647 q 290 608 290 614 l 282 604 q 275 643 274 604 l 271 643 l 271 620 l 258 620 l 263 647 l 264 651 l 256 651 l 253 593 l 245 593 l 247 635 q 245 694 248 655 l 241 694 q 226 631 227 658 l 225 608 l 221 608 l 205 631 l 204 593 q 174 635 180 593 q 199 749 185 713 l 199 752 l 195 752 q 176 705 195 751 q 180 702 180 705 q 156 608 160 696 q 159 596 159 600 l 155 596 q 148 604 147 596 l 149 627 q 165 713 151 667 q 153 718 160 713 q 137 647 144 702 l 129 647 l 130 678 l 126 678 l 124 631 q 127 608 124 629 l 123 608 q 113 655 111 608 l 117 655 q 110 667 114 667 l 114 674 l 115 694 q 336 1006 121 840 l 405 1072 l 401 1072 q 257 959 368 1036 q 227 916 233 917 l 222 916 q 359 1041 224 959 q 457 1150 456 1132 q 463 1190 463 1185 q 408 1322 467 1284 l 408 1326 l 416 1326 q 471 1190 475 1295 l 470 1174 l 474 1174 l 494 1240 q 437 1345 470 1345 q 374 1381 403 1378 l 341 1381 q 129 1182 159 1381 l 136 1170 l 128 1166 q 117 1178 122 1166 q 218 1357 121 1285 q 370 1392 265 1392 q 481 1318 421 1385 q 350 1400 431 1400 l 326 1400 q 111 1221 189 1400 q 114 1217 115 1221 l 106 1213 q 102 1232 102 1219 l 98 1232 q 77 1123 79 1159 l 77 1116 l 85 1116 l 85 1107 l 68 1107 q 65 1123 65 1121 q 126 1310 68 1196 l 122 1310 q 115 1318 115 1310 q 64 1205 67 1254 l 56 1205 q 53 1213 57 1213 q 94 1307 67 1263 l 90 1307 q 45 1213 45 1233 q 52 1205 53 1212 l 44 1205 q 37 1213 37 1205 l 37 1217 q 60 1272 38 1237 q 43 1276 43 1272 q 26 1248 33 1276 l 22 1248 l 18 1256 l 18 1260 q 172 1506 23 1364 q 61 1396 92 1469 l 53 1396 l 53 1400 q 151 1506 77 1463 q 423 1572 270 1572 m 422 1545 l 422 1545 l 422 1541 q 505 1501 428 1541 l 505 1506 q 426 1545 473 1535 l 422 1545 m 279 1525 l 279 1525 l 279 1525 q 303 1533 296 1533 l 304 1537 l 300 1537 q 279 1525 279 1532 m 319 1533 l 319 1533 l 319 1529 l 344 1529 l 364 1533 l 365 1537 l 349 1537 l 319 1533 m 376 1533 l 376 1533 l 376 1529 l 385 1529 l 385 1533 l 376 1533 m 241 1514 l 241 1514 l 237 1506 q 254 1510 244 1510 l 254 1514 l 241 1514 m 178 1470 l 178 1470 l 182 1470 q 224 1501 224 1498 q 178 1470 183 1481 m 391 1498 l 391 1498 l 391 1494 l 399 1490 l 399 1494 l 391 1498 m 322 1494 l 322 1494 l 321 1490 l 330 1490 l 330 1494 l 322 1494 m 218 1459 l 218 1459 l 222 1459 q 285 1490 285 1482 l 281 1490 q 218 1459 233 1474 m 403 1490 l 403 1490 l 403 1486 q 463 1455 419 1486 l 471 1455 q 411 1490 471 1468 l 403 1490 m 220 1486 l 220 1486 l 220 1478 l 224 1478 l 224 1486 l 220 1486 m 203 1478 l 203 1478 l 203 1478 q 170 1451 170 1454 l 174 1451 q 215 1474 196 1473 l 216 1478 l 203 1478 m 512 1474 l 512 1474 l 512 1470 l 524 1463 l 524 1467 l 512 1474 m 536 1474 l 536 1474 l 536 1470 q 556 1451 552 1451 q 536 1474 551 1467 m 479 1470 l 479 1470 l 479 1467 l 499 1451 l 499 1455 q 479 1470 498 1463 m 279 1459 l 279 1459 l 279 1455 l 300 1455 q 361 1459 320 1455 l 361 1463 l 300 1463 l 279 1459 m 217 1428 l 217 1428 l 221 1428 q 263 1451 247 1434 l 271 1451 l 271 1459 l 267 1459 q 217 1428 235 1446 m 418 1459 l 418 1459 l 418 1455 l 426 1455 l 426 1459 l 418 1459 m 568 1451 l 568 1451 l 568 1447 q 591 1412 591 1421 l 595 1412 l 595 1416 q 568 1451 581 1445 m 159 1408 l 159 1408 l 159 1404 q 214 1447 214 1443 l 210 1447 q 159 1408 186 1441 m 136 1443 l 136 1443 l 136 1443 q 98 1389 109 1417 l 102 1389 l 140 1443 l 136 1443 m 409 1443 l 409 1443 l 409 1439 q 465 1404 422 1439 l 469 1404 q 413 1443 431 1443 l 409 1443 m 380 1439 l 380 1439 l 380 1436 l 401 1432 l 405 1432 l 405 1436 l 385 1439 l 380 1439 m 307 1436 l 307 1436 l 307 1432 l 315 1432 l 315 1436 l 307 1436 m 291 1432 l 291 1432 l 290 1428 l 298 1428 l 299 1432 l 291 1432 m 170 1385 l 170 1385 l 174 1385 q 254 1423 175 1392 l 254 1428 l 250 1428 q 170 1385 181 1409 m 323 1423 l 323 1423 l 323 1420 q 478 1350 419 1420 l 478 1354 q 380 1428 479 1384 l 355 1428 q 323 1423 352 1428 m 578 1416 l 578 1416 l 578 1412 q 600 1260 604 1356 q 591 1221 591 1224 l 590 1209 l 594 1209 q 606 1283 604 1256 l 606 1310 q 583 1416 608 1354 l 578 1416 m 60 1279 l 60 1279 l 60 1279 q 151 1396 127 1375 q 146 1400 151 1400 l 151 1408 l 151 1412 q 134 1389 144 1412 q 65 1299 118 1389 q 60 1279 60 1293 m 103 1240 l 103 1240 l 103 1236 l 107 1236 q 241 1404 122 1302 l 249 1404 l 249 1408 l 245 1408 q 161 1341 210 1401 q 103 1240 132 1308 m 485 1408 l 485 1408 l 485 1408 q 515 1350 505 1355 l 515 1354 q 485 1408 492 1408 m 553 1396 l 553 1396 l 553 1392 q 568 1345 568 1362 l 572 1345 l 572 1357 q 553 1396 573 1377 m 81 1381 l 81 1381 l 81 1381 q 67 1354 81 1373 l 67 1350 l 71 1350 q 85 1377 71 1354 l 85 1381 l 81 1381 m 127 1330 l 127 1330 l 127 1314 q 182 1381 166 1366 q 127 1330 163 1381 m 519 1365 l 519 1365 l 519 1365 q 541 1287 542 1312 l 545 1287 l 545 1295 q 519 1365 536 1365 m 46 1338 l 46 1338 l 46 1338 q 37 1303 46 1328 l 37 1299 l 41 1299 l 50 1326 l 50 1338 l 46 1338 m 635 1307 l 635 1307 l 643 1307 l 642 1276 l 633 1276 l 635 1307 m 524 1279 l 524 1279 l 524 1276 q 526 1236 527 1255 l 530 1236 l 531 1256 l 528 1279 l 524 1279 m 602 1217 l 602 1217 l 602 1209 l 606 1209 l 606 1217 l 602 1217 m 498 1154 l 498 1154 l 498 1150 l 502 1150 q 516 1205 511 1178 q 498 1154 504 1205 m 536 1185 l 536 1185 l 536 1178 l 540 1178 l 540 1185 l 536 1185 m 568 1182 l 568 1182 l 568 1182 q 564 1166 568 1173 l 564 1162 l 568 1162 q 572 1174 568 1166 l 572 1182 l 568 1182 m 531 1174 l 531 1174 l 531 1174 q 526 1158 531 1165 l 526 1154 l 530 1154 q 535 1166 530 1158 l 535 1174 l 531 1174 m 47 1174 l 47 1174 l 51 1166 l 50 1158 l 46 1158 q 39 1166 38 1158 q 47 1174 40 1174 m 486 1158 l 486 1158 l 486 1158 q 441 1065 485 1137 l 445 1065 q 490 1154 484 1119 l 490 1158 l 486 1158 m 99 1158 l 99 1158 l 107 1158 l 106 1143 q 98 1135 106 1135 q 94 1139 98 1139 q 99 1158 98 1145 m 550 1131 l 550 1131 l 550 1131 q 563 1150 559 1131 q 550 1131 553 1150 m 469 1147 l 469 1147 l 469 1147 q 456 1116 469 1142 l 455 1112 l 459 1112 q 473 1143 460 1121 l 473 1147 l 469 1147 m 571 1147 l 571 1147 l 571 1147 q 458 998 549 1103 l 458 994 q 570 1139 568 1092 q 574 1143 574 1139 l 575 1147 l 571 1147 m 32 1107 l 32 1107 l 36 1107 l 35 1072 l 31 1072 q 22 1080 22 1072 l 23 1100 q 32 1107 25 1107 m 87 1080 l 87 1080 l 96 1080 l 95 1057 l 91 1057 q 83 1069 83 1057 q 87 1080 87 1076 m 404 1053 l 404 1053 l 404 1053 q 190 827 225 905 q 186 815 190 823 l 185 811 l 189 811 q 356 991 227 885 q 408 1053 374 1000 l 404 1053 m 464 1038 l 464 1038 l 412 979 l 416 979 q 468 1038 468 1031 l 464 1038 m 474 994 l 474 994 l 474 994 q 316 736 322 873 l 316 725 l 320 725 q 478 994 324 826 l 474 994 m 441 987 l 441 987 l 441 987 q 412 951 423 968 l 416 951 q 446 987 433 970 l 441 987 m 372 967 l 372 967 l 345 928 l 345 924 l 349 924 q 376 967 349 930 l 372 967 m 198 912 l 198 912 l 202 912 l 201 905 q 189 893 201 899 l 185 893 l 185 897 q 198 912 192 912 m 258 889 l 258 889 l 258 889 q 196 776 218 827 l 196 772 l 200 772 q 262 889 200 777 l 258 889 m 302 881 l 302 881 l 302 881 q 239 745 258 809 l 239 741 l 243 741 q 307 881 251 774 l 302 881 m 204 873 l 204 873 l 204 873 q 127 690 131 783 l 127 686 l 131 686 q 204 865 159 823 l 208 873 l 204 873 m 161 729 l 161 729 l 161 729 q 169 721 162 721 q 206 819 170 740 q 161 729 163 764 m 280 745 l 280 745 l 279 736 l 283 736 l 284 745 l 280 745 m 235 736 l 235 736 l 235 725 l 239 725 l 239 736 l 235 736 m 275 733 l 275 733 l 275 733 q 270 702 275 723 l 269 690 l 273 690 q 279 725 274 704 l 279 733 l 275 733 m 230 721 l 230 721 l 230 709 l 234 709 l 234 721 l 230 721 m 200 686 l 200 686 l 195 651 l 193 604 l 197 604 q 203 678 199 658 l 204 686 l 200 686 m 256 663 l 256 663 l 264 659 l 269 678 l 269 686 q 256 663 262 686 m 218 514 l 218 514 l 218 514 q 235 510 225 510 l 235 502 l 174 502 l 174 498 q 283 469 252 490 q 328 384 328 418 l 328 363 q 247 237 328 329 q 161 213 206 213 q 125 221 155 213 l 125 233 l 129 233 q 153 225 142 225 q 271 282 235 225 q 133 241 229 241 q 39 266 91 241 l 39 274 q 153 250 90 254 l 153 258 q 27 359 27 285 l 27 388 q 96 498 27 473 q 104 490 98 490 l 109 490 q 218 514 109 506 m 141 498 l 141 498 l 141 494 l 165 494 l 165 498 l 141 498 m 43 433 l 43 433 l 43 429 l 47 429 q 96 481 47 437 l 96 486 q 43 433 67 486 m 145 486 l 145 486 l 145 481 l 157 481 l 157 486 l 145 486 m 165 477 l 165 477 l 165 469 q 178 473 173 473 l 178 477 l 165 477 m 117 465 l 117 465 l 117 461 l 121 461 q 149 473 149 465 q 117 465 128 465 m 194 465 l 194 465 l 198 465 q 210 469 205 469 l 210 465 q 222 469 218 469 q 279 437 242 469 l 283 445 q 239 473 263 473 l 202 473 q 194 465 194 472 m 133 441 l 133 441 l 133 441 q 186 445 146 445 l 186 449 q 170 453 172 453 l 170 449 l 161 453 q 133 441 133 449 m 190 433 l 190 433 l 190 425 l 214 416 q 190 433 214 423 m 145 425 l 145 425 l 145 420 l 153 420 l 153 425 l 145 425 m 121 392 l 121 392 l 121 392 q 141 412 126 392 l 133 412 q 121 392 123 412 m 194 404 l 194 404 l 194 400 l 202 396 l 202 400 l 194 404 m 129 384 l 129 384 l 129 384 q 133 372 133 376 l 137 372 q 145 396 137 378 l 141 396 q 129 384 138 396 m 218 396 l 218 396 l 222 388 q 214 355 222 370 l 218 355 q 227 380 227 369 l 227 388 q 218 396 227 396 m 178 392 l 178 392 l 174 384 l 190 376 l 190 380 q 178 392 190 386 m 316 392 l 316 392 l 316 392 q 308 339 316 376 l 308 335 l 312 335 q 320 372 320 369 l 320 392 l 316 392 m 251 384 l 251 384 l 251 372 l 255 372 l 255 384 l 251 384 m 157 380 l 157 380 l 157 376 q 174 355 165 357 l 178 355 q 157 380 162 380 m 39 376 l 39 376 l 39 359 q 43 347 43 351 l 47 347 l 47 351 l 43 376 l 39 376 m 121 372 l 121 372 l 121 368 q 153 339 131 348 l 153 343 q 121 372 134 370 m 178 372 l 178 372 l 178 372 q 186 363 179 363 l 186 372 l 178 372 m 109 368 l 109 368 l 109 363 q 161 319 109 326 l 170 319 q 198 327 195 327 l 198 331 l 178 327 l 165 327 q 113 368 113 339 l 109 368 m 279 359 l 279 359 l 279 359 q 271 327 279 339 l 275 327 q 283 347 283 340 l 283 359 l 279 359 m 178 343 l 178 343 l 178 339 l 182 339 q 198 351 198 345 l 198 355 q 178 343 184 343 m 239 355 l 239 355 l 235 339 q 243 351 243 339 l 243 355 l 239 355 m 43 335 l 43 335 l 43 335 q 72 298 59 304 l 76 298 q 52 343 52 325 q 43 335 43 342 m 92 339 l 92 339 l 92 335 q 137 298 106 311 l 141 298 l 141 302 q 92 339 125 302 m 259 302 l 259 302 l 259 302 q 271 307 267 307 l 271 319 q 259 302 265 319 m 206 286 l 206 286 l 214 286 l 214 294 q 206 286 206 293 m 235 282 l 235 282 l 235 278 l 243 278 l 243 282 l 235 282 m 170 270 l 170 270 l 170 266 l 182 266 l 182 270 l 170 270 z "},"@":{"ha":1023,"x_min":0,"x_max":0,"o":""},"A":{"ha":639,"x_min":-131,"x_max":777,"o":"m 394 1352 l 394 1352 l 398 1352 q 406 1343 406 1350 q 398 1335 398 1342 l 398 1319 q 402 1055 398 1232 l 406 1055 q 414 1095 406 1095 q 406 1246 406 1166 l 406 1250 q 414 1258 407 1258 l 422 1258 l 414 1242 q 427 1238 422 1238 q 422 1225 427 1233 q 427 1160 427 1183 l 427 1152 q 435 1144 427 1144 l 439 1144 l 439 1319 q 451 1331 439 1324 q 455 1327 451 1326 q 447 1303 447 1314 l 447 1286 l 451 1286 q 459 1311 451 1311 l 463 1311 l 459 1282 q 488 900 459 1112 l 492 900 l 492 912 q 479 1164 479 1099 q 484 1177 484 1172 q 492 1164 491 1177 q 557 611 492 892 l 585 611 l 585 603 q 561 595 561 603 l 581 595 l 581 591 l 577 583 l 569 587 l 565 587 l 565 583 l 573 583 l 573 574 l 565 574 q 577 566 565 566 q 663 562 648 562 l 663 558 l 659 550 l 650 554 l 630 554 q 569 558 609 554 l 569 550 q 699 534 699 547 q 695 530 694 534 q 683 534 687 534 q 573 538 654 534 q 577 526 577 530 q 638 530 628 530 l 642 522 l 642 517 q 626 509 626 516 l 606 513 l 581 513 l 581 505 l 634 505 l 634 501 l 630 493 l 622 497 l 610 497 q 602 489 602 496 l 610 493 l 614 493 l 614 481 l 589 481 q 707 98 614 387 l 703 98 q 630 314 694 98 l 626 314 l 626 306 q 671 127 671 153 l 663 127 q 720 -20 702 -20 q 777 -142 720 -50 l 768 -142 q 650 102 712 -66 q 638 119 650 119 q 724 -89 677 5 l 724 -93 l 715 -93 q 699 -60 715 -81 q 687 -64 691 -64 q 618 111 655 -5 l 610 115 l 610 111 l 622 90 l 622 82 l 614 82 l 614 90 l 610 90 l 610 86 q 724 -174 692 -116 q 728 -178 728 -174 l 728 -186 q 630 21 688 -157 q 520 302 580 124 l 516 302 q 646 -52 590 52 l 638 -56 q 593 37 606 -3 l 589 37 q 585 33 589 33 q 496 318 507 306 l 492 318 l 492 314 q 508 265 508 280 l 500 265 q 471 322 471 316 l 467 322 l 467 318 q 512 200 495 213 q 516 204 512 204 q 520 200 516 199 q 516 188 516 192 l 508 188 q 418 452 482 216 q 260 424 369 452 q 203 184 219 267 l 199 184 l 191 188 q 248 424 248 415 l 235 424 q 166 212 207 324 l 166 196 l 162 196 q 154 208 154 196 q 182 286 154 216 l 178 294 q 219 416 219 392 l 219 420 l 215 420 l 142 184 l 134 184 q 186 363 145 236 l 186 367 l 182 367 q 56 -12 138 213 l 48 -12 l 142 273 q 89 143 131 262 q 28 13 34 14 l 20 13 l 20 17 q 93 180 36 45 l 93 184 l 89 184 q 73 155 80 155 l 73 159 q 142 399 101 240 l 138 399 q 40 119 72 196 l 32 119 l 32 131 q 60 196 40 142 l 52 200 l 48 200 l 48 180 l 36 180 q 93 387 36 189 l 85 387 q 24 220 77 387 l 12 220 l 12 229 q 64 383 20 243 q -70 347 -66 353 l -70 342 l -78 342 q -86 351 -86 342 q 68 391 -86 362 l 77 412 q -66 371 3 395 l -66 383 q 56 420 -66 391 q 85 436 85 431 l 81 436 q 7 420 14 420 l 7 428 q -119 371 -119 399 l -131 371 l -131 383 q -54 424 -123 399 l -54 428 l -62 428 l -62 436 l -29 448 l -21 444 q 20 456 14 456 q 7 469 20 462 q 3 465 7 464 l -1 473 l -1 477 q 44 501 34 477 q 109 517 50 505 l 109 526 q 3 493 48 509 l -1 501 q 81 526 62 526 l 81 530 l 77 530 q -9 509 35 522 l -9 517 q 117 554 -9 524 q 243 1071 195 787 q 239 1144 239 1127 l 248 1148 l 252 1148 q 248 1132 252 1139 q 252 1120 252 1124 l 256 1120 q 260 1201 260 1180 l 268 1205 l 272 1205 q 243 941 243 950 q 134 554 219 811 q 186 684 153 554 q 256 981 231 789 l 264 977 l 264 985 l 260 1006 l 268 1006 q 272 1083 272 1061 q 280 1091 279 1083 l 280 1177 q 288 1185 281 1185 l 292 1185 l 292 1168 q 288 1046 292 1127 l 296 1046 q 272 945 285 1029 l 280 945 q 317 1193 300 1025 l 329 1193 l 304 985 l 313 985 l 337 1189 q 349 1201 342 1189 l 349 1242 l 353 1262 l 361 1262 q 357 1225 361 1247 q 361 1140 361 1179 q 366 1128 361 1135 q 361 1112 361 1120 q 366 1107 361 1107 l 361 1099 l 361 1095 q 370 1103 369 1095 q 366 1230 366 1178 l 366 1234 l 370 1254 l 378 1254 q 374 1221 374 1225 q 398 949 378 1132 l 402 949 l 402 961 q 386 1307 386 1154 q 394 1352 386 1316 m 447 1238 l 447 1238 l 447 1197 l 451 1197 l 451 1238 l 447 1238 m 341 1132 l 341 1132 l 337 1103 q 345 1112 345 1103 l 345 1132 l 341 1132 m 435 1128 l 435 1128 l 435 1087 q 439 1026 439 1046 l 443 1026 l 443 1050 q 439 1128 439 1095 l 435 1128 m 345 1079 l 345 1079 l 341 1059 l 341 1055 q 345 994 341 1034 l 349 994 l 349 1079 l 345 1079 m 455 1067 l 455 1067 l 455 1034 l 459 1034 l 459 1067 l 455 1067 m 378 1034 l 378 1034 l 378 994 l 386 989 q 382 1034 382 1004 l 378 1034 m 239 1014 l 239 1014 l 239 1014 q 203 819 222 901 l 203 814 l 207 814 q 243 1006 231 914 l 243 1014 l 239 1014 m 382 985 l 382 985 l 382 949 l 390 949 l 386 985 l 382 985 m 341 981 l 341 981 l 341 941 l 345 941 l 345 981 l 341 981 m 459 981 l 459 981 l 459 969 l 463 969 l 463 981 l 459 981 m 260 965 l 260 965 l 260 957 l 264 957 l 264 965 l 260 965 m 463 965 l 463 965 l 463 949 l 504 684 l 508 684 l 508 709 q 467 965 475 882 l 463 965 m 256 953 l 256 953 l 256 941 l 260 941 l 260 953 l 256 953 m 390 932 l 390 932 l 390 916 q 406 778 406 792 q 418 782 414 782 q 394 932 394 904 l 390 932 m 361 924 l 361 924 l 361 908 q 402 599 361 805 l 406 599 q 402 631 402 627 l 406 668 q 366 924 374 838 l 361 924 m 349 904 l 349 904 l 349 904 q 296 583 349 819 q 390 595 362 595 l 390 599 q 353 904 353 796 l 349 904 m 337 900 l 337 900 l 337 888 l 341 888 l 341 900 l 337 900 m 431 892 l 431 892 l 431 871 q 455 676 435 804 l 459 676 l 459 684 q 435 892 435 847 l 431 892 m 459 888 l 459 888 l 459 871 l 463 871 l 463 888 l 459 888 m 333 867 l 333 867 l 333 843 l 337 843 l 337 867 l 333 867 m 463 867 l 463 867 l 463 847 q 475 770 475 779 l 479 770 l 479 778 q 467 867 467 844 l 463 867 m 280 847 l 280 847 l 280 839 l 284 839 l 284 847 l 280 847 m 276 835 l 276 835 l 276 835 q 207 570 207 578 l 211 570 q 280 831 222 570 l 280 835 l 276 835 m 329 835 l 329 835 l 329 814 l 333 814 l 333 835 l 329 835 m 325 810 l 325 810 l 325 790 l 329 790 l 329 810 l 325 810 m 321 786 l 321 786 l 321 786 q 272 583 296 652 l 272 578 l 276 578 q 325 778 325 741 l 325 786 l 321 786 m 418 766 l 418 766 l 418 753 l 422 753 l 422 766 l 418 766 m 479 766 l 479 766 l 479 758 l 484 758 l 484 766 l 479 766 m 422 749 l 422 749 l 422 741 l 435 652 l 439 652 l 439 680 l 427 749 l 422 749 m 292 745 l 292 745 l 292 737 l 296 737 l 296 745 l 292 745 m 288 729 l 288 729 l 284 709 l 284 705 l 288 705 l 292 725 l 292 729 l 288 729 m 280 701 l 280 701 l 280 701 q 264 635 280 693 l 264 627 l 268 627 q 284 696 268 639 l 284 701 l 280 701 m 508 680 l 508 680 l 508 668 l 512 668 l 512 680 l 508 680 m 459 668 l 459 668 l 459 656 l 463 656 l 463 668 l 459 668 m 195 660 l 195 660 l 195 652 l 199 652 l 199 660 l 195 660 m 191 648 l 191 648 l 191 640 l 195 640 l 195 648 l 191 648 m 439 640 l 439 640 l 439 635 q 451 603 443 603 q 443 640 443 633 l 439 640 m 186 635 l 186 635 l 186 627 l 191 627 l 191 635 l 186 635 m 260 623 l 260 623 l 260 623 q 248 578 248 585 l 248 574 l 252 574 q 264 619 252 581 l 264 623 l 260 623 m 414 615 l 414 615 l 414 599 l 418 599 l 418 615 l 414 615 m 292 558 l 292 558 l 292 554 l 300 554 q 394 570 371 570 l 394 574 l 378 574 l 292 558 m 418 554 l 418 554 l 427 550 l 427 562 q 418 554 418 561 m 325 546 l 325 546 l 325 542 l 329 542 q 398 550 381 550 l 398 558 l 325 546 m 199 550 l 199 550 l 199 546 l 211 546 l 211 550 l 199 550 m 235 546 l 235 546 l 235 538 q 243 546 243 538 l 235 546 m 195 534 l 195 534 l 195 530 l 203 530 l 207 538 q 195 534 199 534 m 125 530 l 125 530 l 125 522 q 138 526 133 526 l 138 534 q 125 530 130 530 m 284 522 l 284 522 l 280 513 l 304 517 l 304 522 l 284 522 m 121 513 l 121 513 l 121 509 l 130 509 l 130 513 l 121 513 m 361 509 l 361 509 l 361 505 l 382 505 l 406 509 l 406 513 l 402 513 q 361 509 380 509 m 227 509 l 227 509 l 223 501 l 227 501 l 231 509 l 227 509 m 89 505 l 89 505 l 89 501 l 101 501 l 101 505 l 89 505 m 345 505 l 345 505 l 345 501 l 353 501 l 353 505 l 345 505 m -50 505 l -50 505 l -45 505 l -45 501 q -54 493 -45 493 l -58 501 l -50 505 m 56 497 l 56 497 l 56 493 l 60 493 l 85 497 l 85 501 l 73 501 q 56 497 65 497 m 186 501 l 186 501 l 186 497 l 195 497 l 195 501 l 186 501 m 431 501 l 431 501 l 431 497 l 439 497 l 439 501 l 431 501 m 113 493 l 113 493 l 113 493 q 109 481 113 488 l 121 481 l 121 493 l 113 493 m 24 469 l 24 469 l 24 469 q 32 460 24 460 q 101 489 101 471 q 24 469 98 489 m 435 489 l 435 489 l 435 481 l 439 481 l 439 489 l 435 489 m 268 469 l 268 469 l 268 460 q 414 481 366 477 l 414 485 l 406 485 l 268 469 m 654 485 l 654 485 l 667 485 l 667 477 l 654 477 l 654 485 m -45 477 l -45 477 l -41 477 q -86 456 -41 463 l -90 456 l -90 465 l -45 477 m 248 456 l 248 456 l 252 456 q 260 465 259 456 l 256 465 q 248 456 248 463 m 211 460 l 211 460 l 211 452 l 215 452 l 215 460 l 211 460 m 439 456 l 439 456 l 439 456 q 479 330 457 363 q 447 456 471 347 l 439 456 m 561 452 l 561 452 l 561 448 q 602 290 561 427 l 606 290 l 606 298 q 565 452 576 387 l 561 452 m -123 452 l -123 452 l -119 444 l -127 440 l -131 440 l -131 444 q -123 452 -130 452 m 475 448 l 475 448 l 475 444 q 504 363 492 405 l 508 363 l 508 367 q 475 448 484 448 m 97 440 l 97 440 l 97 436 l 109 436 l 109 440 l 97 440 m 239 432 l 239 432 l 243 432 q 252 440 251 432 l 248 440 q 239 432 239 439 m 199 424 l 199 424 l 207 424 l 207 432 q 199 424 199 431 m 85 395 l 85 395 l 85 395 q 105 420 105 399 q 85 395 85 417 m 125 416 l 125 416 l 121 408 l 125 408 l 130 416 l 125 416 m 195 412 l 195 412 l 195 404 l 199 404 l 199 412 l 195 412 m 191 399 l 191 399 l 191 391 l 195 391 l 195 399 l 191 399 m 117 395 l 117 395 l 117 395 q 93 347 117 379 q 52 208 52 212 l 52 204 l 56 204 l 121 391 l 121 395 l 117 395 m 475 391 l 475 391 l 475 383 q 484 355 484 367 l 488 355 l 488 363 q 479 391 479 379 l 475 391 m 154 375 l 154 375 l 154 375 q 117 261 128 334 q 105 224 112 261 l 105 220 l 109 220 l 158 371 l 158 375 l 154 375 m 549 367 l 549 367 l 549 359 l 553 359 l 553 367 l 549 367 m 508 359 l 508 359 l 508 351 l 512 351 l 512 359 l 508 359 m 553 355 l 553 355 l 553 351 q 642 66 581 232 l 646 66 l 646 70 q 557 355 593 209 l 553 355 m 606 286 l 606 286 l 606 277 l 610 277 l 610 286 l 606 286 m 101 216 l 101 216 l 101 208 l 105 208 l 105 216 l 101 216 m 97 204 l 97 204 l 97 204 q 93 192 97 199 l 93 188 l 97 188 q 101 200 97 192 l 101 204 l 97 204 m 646 184 l 646 184 l 646 176 q 650 159 650 168 l 654 159 l 654 168 q 650 184 650 174 l 646 184 m 654 155 l 654 155 l 654 143 l 659 143 l 659 155 l 654 155 m 646 62 l 646 62 l 646 58 q 691 -44 680 -42 l 691 -40 q 650 62 650 49 l 646 62 m 445 1461 l 457 1461 l 457 1445 l 445 1445 l 445 1461 m 449 1400 l 453 1392 l 449 1352 l 441 1352 l 441 1392 q 449 1400 441 1400 z "},"B":{"ha":488,"x_min":-48,"x_max":530,"o":"m 216 1270 l 237 1270 q 253 1266 246 1270 q 269 1270 260 1270 q 509 1038 509 1219 l 509 1022 q 485 900 509 961 l 485 896 l 489 896 q 522 1030 522 982 q 513 1079 522 1046 l 517 1079 q 530 1046 530 1076 l 530 1018 q 306 644 530 869 q 477 550 383 644 q 522 416 522 496 q 477 269 522 347 l 473 269 l 473 277 q 509 408 509 351 l 509 436 q 452 562 509 505 q 501 416 501 488 q 273 54 501 240 l 229 25 l 220 25 l 220 33 q 249 45 244 45 l 249 54 l 220 37 l 216 45 q 371 192 271 77 l 367 192 q 115 -3 227 48 l 111 5 q 249 98 220 67 l 241 94 l 233 94 q 269 119 233 104 l 269 131 q 21 -3 69 -3 l 21 1 q 127 50 22 6 q 286 159 223 104 l 265 147 l 257 151 q 168 90 257 142 l 163 98 q 371 277 276 155 l 371 281 l 367 281 q 229 147 323 214 q 184 119 226 147 l 176 119 l 176 127 q 273 196 212 143 q 351 286 273 200 q 404 399 391 366 q 395 444 395 438 l 391 444 q 330 277 391 336 q 196 147 298 224 q 139 111 179 138 l 135 111 l 135 123 q 371 359 300 214 l 379 387 l 379 391 l 375 391 q 294 265 375 350 l 294 273 q 379 448 379 374 q 257 542 379 507 l 196 542 q 168 526 174 542 q 200 237 184 298 l 196 237 q 159 526 176 237 l 151 522 q 155 509 155 513 q 180 245 155 406 l 168 245 q 159 290 159 283 q 147 277 153 290 l 147 265 q 127 253 137 265 q 111 310 111 277 l 106 310 l 98 306 q 54 546 75 346 q 45 574 54 574 q 41 570 45 570 q 86 298 54 422 q 94 294 94 298 q 90 281 90 286 l 86 281 q 66 342 77 281 q 17 574 39 342 q 21 591 21 581 l 21 595 l 1 595 l 1 603 l 21 603 l 21 631 q -3 640 -3 631 l -3 644 l 1 644 l 21 640 q -20 656 21 646 l -20 664 q 21 656 11 656 l 21 664 q 9 672 9 664 l 9 676 l 13 676 l 21 672 l 21 680 q 82 1030 21 856 l 94 1042 l 98 1042 q 74 945 74 955 l 74 932 l 78 932 q 119 1059 98 1059 l 127 1059 l 127 1055 q 115 1018 115 1025 l 115 1014 l 119 1014 q 168 1107 125 1044 q 180 1095 174 1107 q 168 1018 168 1080 l 176 1014 q 200 1112 186 1112 q 204 1107 200 1107 q 196 1083 196 1090 l 208 1091 l 216 1087 q 237 1140 227 1140 l 241 1132 q 172 672 196 1017 q 330 855 292 774 l 326 855 q 233 745 311 817 l 229 745 l 229 749 q 371 1006 371 897 q 265 1136 371 1091 l 265 1144 l 269 1144 q 359 1075 330 1124 q 371 1046 371 1055 l 375 1046 l 375 1055 q 241 1168 375 1107 l 241 1177 q 363 1095 344 1138 l 367 1095 l 367 1103 q 302 1160 349 1126 q 306 1164 306 1160 q 342 1144 337 1148 l 347 1144 q 212 1193 288 1193 l 192 1193 l 192 1197 l 196 1205 q 379 1128 306 1205 q 188 1209 321 1209 q 115 1201 161 1209 l 111 1209 q 176 1217 128 1217 l 196 1217 q 302 1197 257 1217 l 306 1197 l 306 1201 q 241 1225 267 1225 q 192 1230 220 1230 q -20 1177 105 1230 l -20 1181 q 139 1234 53 1226 q 176 1238 139 1238 l 204 1238 q 318 1217 253 1238 q 233 1242 318 1234 l 220 1242 q 212 1250 212 1242 l 220 1254 q 367 1217 276 1254 l 371 1225 q 286 1254 307 1254 q 229 1258 260 1258 l 168 1258 l 168 1266 l 216 1270 m 135 1258 l 135 1254 q 127 1246 135 1246 l 115 1246 l 115 1254 l 135 1258 m 78 1246 l 86 1246 q 74 1234 86 1240 l 70 1242 l 78 1246 m 322 1201 l 322 1197 q 399 1124 345 1193 q 342 1193 391 1159 q 322 1201 336 1193 m 200 1177 l 212 1177 l 212 1173 q 204 1164 212 1164 q 192 1168 196 1168 q 200 1177 193 1177 m -48 1168 l -40 1168 l -40 1160 l -48 1160 l -48 1168 m 139 1164 l 143 1156 l 135 1152 l 131 1152 l 131 1156 q 139 1164 132 1164 m 408 1160 q 424 1124 424 1131 l 428 1124 l 428 1128 q 408 1160 421 1150 m 501 1120 l 513 1120 l 513 1107 l 509 1107 q 501 1116 501 1107 l 501 1120 m 375 1112 l 375 1107 l 383 1103 l 383 1107 l 375 1112 m 440 1099 l 440 1095 q 448 1063 448 1069 l 452 1063 l 452 1067 q 444 1099 444 1097 l 440 1099 m 481 1083 q 477 1059 481 1059 q 481 994 481 1048 l 485 994 l 485 1083 l 481 1083 m 493 1075 l 493 1071 l 497 1034 q 477 916 497 987 l 477 912 l 481 912 q 501 1034 501 979 q 497 1075 497 1069 l 493 1075 m 155 1067 l 155 1059 l 159 1059 l 159 1067 l 155 1067 m 440 1055 l 440 1046 l 444 1046 l 444 1055 l 440 1055 m 204 1050 q 172 851 184 974 l 172 819 l 176 819 q 208 1046 176 890 l 208 1050 l 204 1050 m 383 1042 q 294 786 383 882 q 277 762 294 782 l 281 762 q 391 1022 391 869 l 387 1042 l 383 1042 m 465 1042 q 432 859 465 927 l 436 859 q 473 998 460 901 q 469 1042 469 1019 l 465 1042 m 444 1038 l 444 1006 l 448 1006 l 448 1038 l 444 1038 m 168 1010 l 151 904 l 151 892 l 155 892 q 172 1002 155 907 l 172 1010 l 168 1010 m 143 941 l 143 924 l 147 924 l 147 941 l 143 941 m 58 924 l 58 912 l 62 912 l 62 924 l 58 924 m 70 920 q 41 668 54 831 l 50 668 l 50 672 q 74 908 50 749 l 74 920 l 70 920 m 139 920 q 127 814 127 823 l 127 794 l 131 794 q 143 912 131 824 l 143 920 l 139 920 m 98 916 l 98 908 l 102 908 l 102 916 l 98 916 m 473 908 q 436 827 473 896 l 440 827 q 477 904 473 890 l 477 908 l 473 908 m 54 904 l 54 888 l 58 888 l 58 904 l 54 904 m 94 900 q 86 810 94 880 l 86 790 l 90 790 q 98 884 90 820 l 98 900 l 94 900 m 147 888 l 147 871 l 151 871 l 151 888 l 147 888 m 420 888 q 351 753 402 830 l 355 753 q 424 884 424 854 l 424 888 l 420 888 m 50 876 l 50 863 l 54 863 l 54 876 l 50 876 m 106 855 l 106 835 l 111 835 l 111 855 l 106 855 m 45 851 l 45 835 l 50 835 l 50 851 l 45 851 m 367 851 l 363 843 l 367 843 l 371 851 l 367 851 m 359 839 l 355 831 l 359 831 l 363 839 l 359 839 m 102 831 l 102 794 l 106 794 l 106 831 l 102 831 m 41 827 l 41 802 l 45 802 l 45 827 l 41 827 m 342 814 q 306 758 334 798 l 310 758 q 347 814 325 769 l 342 814 m 37 798 q 33 745 37 780 l 33 721 l 37 721 q 41 782 37 746 l 41 798 l 37 798 m 98 790 l 98 778 l 102 778 l 102 790 l 98 790 m 123 790 l 123 753 l 127 753 l 127 790 l 123 790 m 82 778 l 78 737 l 78 717 l 82 717 q 86 770 82 743 l 86 778 l 82 778 m 135 766 l 135 721 l 139 721 l 139 766 l 135 766 m 314 676 l 318 676 q 387 762 387 758 l 387 766 q 314 676 384 766 m 269 713 l 273 713 q 306 737 294 737 q 302 749 302 745 q 269 713 299 749 m 298 705 l 294 696 l 298 696 l 302 705 l 298 705 m 233 692 q 216 672 216 674 l 220 672 l 237 692 l 233 692 m 269 652 l 273 652 q 310 688 279 652 q 269 652 299 688 m 200 680 l 184 664 l 188 664 q 204 680 194 664 l 200 680 m 41 656 q 50 648 43 648 l 50 656 l 41 656 m 41 640 q 50 631 43 631 l 50 640 l 41 640 m 342 619 l 342 615 l 351 615 l 351 619 l 342 619 m 355 615 l 355 611 l 363 611 l 363 615 l 355 615 m 41 611 q 50 603 43 603 l 50 611 l 41 611 m 41 595 l 41 583 l 50 583 l 50 595 l 41 595 m 383 578 l 383 574 q 436 526 421 541 q 383 578 436 547 m 86 566 l 86 562 q 127 273 86 431 l 135 273 l 135 277 q 111 416 113 414 q 94 522 98 416 l 94 546 l 90 566 l 86 566 m 119 566 l 119 558 l 123 558 l 123 566 l 119 566 m 424 566 l 424 562 q 448 534 448 546 l 452 534 l 452 542 q 424 566 426 566 m 204 558 l 204 554 l 237 554 l 237 558 l 204 558 m 314 550 l 314 546 q 355 526 318 546 l 355 530 q 318 550 349 534 l 314 550 m 119 546 l 119 530 q 147 298 125 367 l 155 298 l 155 302 q 123 546 123 465 l 119 546 m 151 538 l 151 534 l 159 534 l 159 538 l 151 538 m 33 530 l 33 505 l 37 505 l 37 530 l 33 530 m 102 522 l 102 505 l 106 505 l 106 522 l 102 522 m 74 517 l 74 493 l 78 493 l 78 517 l 74 517 m 379 517 l 379 513 q 408 436 408 455 l 412 436 l 412 440 q 383 517 412 458 l 379 517 m 37 489 l 37 473 l 41 473 l 41 489 l 37 489 m 465 489 l 465 469 l 473 469 l 469 489 l 465 489 m 485 460 l 485 416 l 489 416 l 489 460 l 485 460 m 469 448 l 469 432 l 473 432 l 473 448 l 469 448 m 432 428 q 428 387 432 408 l 428 383 l 432 383 q 436 408 432 386 l 436 428 l 432 428 m 50 412 l 50 395 q 66 355 57 355 q 54 412 54 387 l 50 412 m 424 379 l 424 371 l 428 371 l 428 379 l 424 379 m 395 359 q 363 294 395 349 l 367 294 q 399 355 399 345 l 399 359 l 395 359 m 94 355 l 94 347 l 98 347 l 98 355 l 94 355 m 98 338 l 98 330 l 102 330 l 102 338 l 98 338 m 465 338 q 452 302 465 331 l 452 298 l 456 298 q 469 334 469 330 l 469 338 l 465 338 m 424 298 l 387 237 l 391 237 q 428 298 412 266 l 424 298 m 444 273 q 371 163 444 250 l 371 159 l 363 163 l 253 58 l 253 54 q 452 273 397 155 l 444 273 m 94 265 l 98 265 l 98 261 l 94 253 q 98 249 98 253 q 94 245 94 249 q 82 249 86 249 l 82 253 q 94 265 82 258 m 416 241 l 404 220 l 408 220 l 420 241 l 416 241 m 139 237 q 127 220 133 220 l 123 220 l 123 233 q 139 237 125 233 m 338 224 l 322 204 l 326 204 q 342 224 342 222 l 338 224 m 359 216 l 286 139 l 286 135 q 363 216 359 200 l 359 216 m 135 208 l 143 208 l 143 196 l 135 196 l 135 208 m 111 115 l 115 115 l 115 111 q 106 102 115 102 l 102 111 l 111 115 m 127 86 l 135 86 l 135 82 q 127 74 135 74 l 119 74 l 119 78 q 127 86 120 86 m 82 70 l 82 58 l 62 54 l 62 58 q 82 70 62 66 m 21 50 q 29 41 29 48 l 21 37 q 13 45 13 37 l 21 50 z "},"C":{"ha":844,"x_min":0,"x_max":867,"o":"m 635 1240 l 635 1240 l 639 1232 l 639 1224 l 631 1224 l 631 1216 q 720 1167 669 1212 l 720 1163 l 716 1163 q 606 1216 663 1198 l 602 1216 l 602 1212 q 822 1021 768 1146 q 830 996 822 1014 l 822 992 l 818 992 q 712 1131 818 1061 l 708 1131 l 708 1126 q 785 1053 740 1113 l 785 1049 l 781 1049 q 741 1094 741 1082 l 728 1086 q 631 1155 728 1116 l 631 1151 q 798 992 725 1109 l 798 984 l 789 984 q 818 915 806 954 l 810 911 q 671 1110 759 1055 l 671 1106 q 749 1025 680 1106 q 741 1017 749 1017 q 529 1139 637 1139 l 480 1139 l 480 1135 q 716 1033 642 1135 l 716 1029 l 712 1029 q 606 1106 648 1092 l 594 1106 q 566 1114 594 1113 l 496 1114 l 468 1110 l 468 1106 l 476 1106 q 509 1110 479 1106 q 655 1049 591 1110 l 655 1045 l 651 1045 l 614 1069 l 614 1065 q 627 1053 620 1065 l 623 1045 q 675 1000 637 1045 l 675 996 l 671 996 q 529 1086 600 1063 q 387 1013 425 1063 q 338 935 345 979 l 330 935 l 330 943 q 419 1053 330 990 q 468 1078 435 1066 l 468 1082 l 464 1082 q 313 956 378 1053 q 232 797 277 906 l 232 793 l 236 793 q 289 870 252 838 l 293 862 q 195 585 195 754 l 195 573 q 309 300 195 399 q 399 256 334 279 l 403 256 l 403 260 q 252 394 311 292 q 220 532 220 467 l 220 573 q 228 581 220 581 q 232 577 228 577 l 228 549 q 415 264 228 347 q 472 252 463 252 q 688 418 583 252 l 692 418 q 696 414 692 414 q 602 296 680 378 l 610 296 q 680 345 665 332 q 684 341 680 341 q 745 451 745 436 l 753 451 q 704 353 753 432 l 708 353 q 777 479 755 426 l 785 479 q 688 313 768 416 l 692 313 q 736 353 692 320 q 822 541 822 502 l 830 541 q 761 370 830 505 q 643 243 761 330 l 643 239 q 810 451 742 284 l 818 451 q 798 394 818 445 l 802 394 q 773 341 802 391 l 777 341 q 712 243 770 318 l 716 243 q 830 414 796 323 l 838 414 q 773 292 838 391 q 777 280 777 284 l 781 280 q 798 304 783 295 l 806 304 q 684 150 736 186 q 411 64 556 64 q 216 113 289 64 l 216 117 q 366 77 321 77 l 387 77 l 387 81 q 77 325 200 81 q 24 602 24 452 q 220 1110 24 898 l 216 1110 q 12 683 12 894 l 12 638 l 8 638 q 0 646 0 638 l 0 650 q 256 1155 0 938 q 521 1236 347 1236 q 635 1240 551 1240 m 590 1232 l 590 1232 l 590 1228 l 618 1224 l 623 1224 q 614 1232 623 1232 l 590 1232 m 444 1200 l 444 1200 l 444 1196 l 448 1196 q 513 1204 500 1204 l 541 1200 l 545 1200 l 545 1204 l 521 1208 q 444 1200 496 1208 m 562 1204 l 562 1204 l 562 1200 l 606 1192 l 610 1192 l 610 1196 q 566 1204 608 1196 l 562 1204 m 248 1078 l 248 1078 l 252 1078 q 439 1192 349 1177 l 439 1196 l 431 1196 q 248 1082 349 1175 l 248 1078 m 492 1183 l 492 1183 l 492 1179 q 566 1175 543 1179 l 570 1175 l 570 1179 q 545 1183 566 1179 l 492 1183 m 293 1163 l 293 1163 l 293 1163 q 203 1078 225 1105 l 203 1074 l 208 1074 q 297 1163 213 1074 l 293 1163 m 435 1147 l 435 1147 l 435 1143 l 439 1143 q 521 1151 476 1151 l 521 1155 l 480 1155 q 435 1147 470 1155 m 525 1151 l 525 1151 l 525 1147 l 541 1147 l 541 1151 l 525 1151 m 468 1139 l 468 1139 l 464 1131 l 476 1131 q 468 1139 476 1139 m 350 1106 l 350 1106 l 350 1106 q 407 1131 395 1131 l 407 1135 l 399 1135 q 350 1106 350 1113 m 399 1114 l 399 1114 l 407 1114 q 435 1126 427 1126 l 435 1131 l 431 1131 q 399 1114 399 1121 m 444 1118 l 444 1118 l 444 1114 l 452 1114 l 452 1118 l 444 1118 m 427 1114 l 427 1114 l 427 1110 l 439 1110 l 439 1114 l 427 1114 m 378 1110 l 378 1110 l 378 1102 q 391 1106 386 1106 l 391 1110 l 378 1110 m 342 1106 l 342 1106 l 338 1098 l 342 1098 l 346 1106 l 342 1106 m 350 1090 l 350 1090 l 350 1090 q 366 1102 366 1096 q 350 1090 350 1096 m 285 1090 l 285 1090 l 285 1090 q 277 1078 285 1088 l 281 1078 q 289 1090 289 1088 l 285 1090 m 472 1086 l 472 1086 l 472 1082 l 480 1082 l 480 1086 l 472 1086 m 578 1078 l 578 1078 l 578 1074 q 590 1069 582 1074 l 590 1074 l 582 1078 l 578 1078 m 374 1053 l 374 1053 l 378 1053 q 399 1074 384 1053 q 374 1053 376 1065 m 216 1069 l 216 1069 l 212 1061 l 216 1061 l 220 1069 l 216 1069 m 594 1069 l 594 1069 l 594 1065 l 602 1061 l 602 1065 l 594 1069 m 203 1053 l 203 1053 l 195 1041 l 199 1041 l 208 1053 l 203 1053 m 285 1045 l 285 1045 l 277 1033 l 281 1033 q 289 1045 289 1043 l 285 1045 m 191 1037 l 191 1037 l 191 1037 q 142 956 168 1006 l 146 956 q 195 1037 159 985 l 191 1037 m 289 988 l 289 988 l 289 984 q 334 1029 294 984 l 330 1029 q 289 988 323 1029 m 724 1013 l 724 1013 l 724 1013 q 749 984 729 1013 l 749 976 l 741 976 q 716 1008 741 984 l 724 1013 m 151 996 l 151 996 l 138 972 l 142 972 l 155 996 l 151 996 m 309 984 l 309 984 l 309 984 q 212 825 246 909 l 212 821 l 216 821 q 313 984 237 889 l 309 984 m 191 976 l 191 976 l 187 968 l 191 968 l 195 976 l 191 976 m 122 964 l 122 964 l 122 964 q 90 882 90 892 q 98 878 97 882 q 61 720 73 838 l 61 711 l 65 711 q 130 956 104 914 l 130 960 l 122 964 m 696 968 l 696 968 l 700 968 l 700 960 l 696 960 l 696 968 m 830 960 l 830 960 l 834 960 q 842 951 842 958 l 842 943 l 834 943 l 830 960 m 757 947 l 757 947 l 761 939 l 753 935 l 749 943 l 757 947 m 212 927 l 212 927 l 208 919 l 212 919 l 216 927 l 212 927 m 134 895 l 134 895 l 134 886 l 138 886 l 138 895 l 134 895 m 191 886 l 191 886 l 191 878 l 195 878 l 195 886 l 191 886 m 126 874 l 126 874 l 126 874 q 122 862 126 870 l 122 858 l 126 858 q 130 870 126 862 l 130 874 l 126 874 m 183 866 l 183 866 l 183 858 l 187 858 l 187 866 l 183 866 m 118 854 l 118 854 l 118 854 q 90 756 90 764 l 90 752 l 94 752 q 122 850 94 766 l 122 854 l 118 854 m 130 842 l 130 842 l 130 842 q 118 805 130 834 l 122 805 l 134 838 l 134 842 l 130 842 m 228 829 l 228 829 l 228 829 q 199 748 211 788 l 199 744 l 203 744 q 232 825 210 778 l 232 829 l 228 829 m 155 821 l 155 821 l 155 813 l 159 813 l 159 821 l 155 821 m 208 817 l 208 817 l 208 817 q 203 805 208 813 l 203 801 l 208 801 q 212 813 208 805 l 212 817 l 208 817 m 151 809 l 151 809 l 151 801 l 155 801 l 155 809 l 151 809 m 57 797 l 57 797 l 57 797 q 33 597 37 694 q 244 134 33 294 q 334 97 292 107 l 338 97 l 338 101 q 102 309 189 164 q 45 541 45 446 l 45 549 q 61 789 45 693 l 61 797 l 57 797 m 146 797 l 146 797 l 142 777 l 142 772 l 146 772 l 151 793 l 151 797 l 146 797 m 195 789 l 195 789 l 195 781 l 199 781 l 199 789 l 195 789 m 138 768 l 138 768 l 138 756 l 142 756 l 142 768 l 138 768 m 102 756 l 102 756 l 102 756 q 90 699 90 708 l 90 691 l 94 691 q 106 752 94 709 l 106 756 l 102 756 m 85 744 l 85 744 l 85 736 l 90 736 l 90 744 l 85 744 m 195 740 l 195 740 l 195 728 l 199 728 l 199 740 l 195 740 m 191 724 l 191 724 l 191 715 l 195 715 l 195 724 l 191 724 m 187 707 l 187 707 l 187 699 l 191 699 l 191 707 l 187 707 m 85 687 l 85 687 l 85 675 l 90 675 l 90 687 l 85 687 m 163 683 l 163 683 l 163 671 l 167 671 l 167 683 l 163 683 m 163 614 l 163 614 l 163 581 l 167 581 l 167 614 l 163 614 m 85 593 l 85 593 l 85 549 l 90 549 l 90 593 l 85 593 m 106 553 l 106 553 l 106 528 l 110 528 l 110 553 l 106 553 m 122 545 l 122 545 l 122 528 l 126 528 l 126 545 l 122 545 m 134 528 l 134 528 l 146 463 l 151 463 l 151 467 q 134 528 143 528 m 859 508 l 859 508 l 859 508 q 867 500 867 507 l 859 496 q 850 504 850 496 l 859 508 m 57 496 l 57 496 l 57 479 l 61 479 l 61 496 l 57 496 m 191 492 l 191 492 l 191 475 l 195 455 l 199 455 l 199 463 q 195 492 195 479 l 191 492 m 61 471 l 61 471 l 61 455 l 65 455 l 65 471 l 61 471 m 28 467 l 28 467 l 33 459 l 33 439 q 155 182 33 330 q 191 154 167 182 l 191 150 q 37 361 101 193 q 20 463 20 410 l 28 467 m 842 467 l 842 467 l 850 467 l 850 463 q 842 435 842 437 q 834 447 834 435 q 842 467 842 460 m 65 451 l 65 451 l 65 443 l 69 443 l 69 451 l 65 451 m 199 451 l 199 451 l 199 447 q 293 288 220 370 l 354 252 l 354 256 q 203 447 241 325 l 203 451 l 199 451 m 183 435 l 183 435 l 183 427 l 187 427 l 187 435 l 183 435 m 187 422 l 187 422 l 187 418 q 232 349 214 363 q 191 422 191 414 l 187 422 m 118 390 l 118 390 l 118 386 q 171 296 146 316 l 122 390 l 118 390 m 90 370 l 90 370 l 90 361 l 94 361 l 94 370 l 90 370 m 199 370 l 199 370 l 199 370 q 224 337 214 340 l 224 341 q 199 370 201 370 m 94 357 l 94 357 l 94 349 l 98 349 l 98 357 l 94 357 m 700 349 l 700 349 l 696 341 l 700 341 l 704 349 l 700 349 m 102 337 l 102 337 l 102 329 l 106 329 l 106 337 l 102 337 m 643 309 l 643 309 l 643 309 q 557 264 579 264 l 557 260 l 562 260 q 647 309 642 294 l 643 309 m 675 292 l 675 292 l 675 292 q 647 272 657 272 l 647 268 l 655 268 l 680 292 l 675 292 m 635 288 l 635 288 l 635 288 q 468 227 606 258 l 468 223 l 488 223 q 610 260 526 223 q 639 288 639 284 l 635 288 m 761 280 l 761 280 l 761 280 q 700 211 761 267 l 704 203 l 696 191 l 696 186 q 765 276 765 248 l 765 280 l 761 280 m 175 276 l 175 276 l 175 272 q 212 235 207 235 l 216 235 l 216 239 q 175 276 216 243 m 297 276 l 297 276 l 297 272 q 370 231 311 247 l 374 231 l 374 235 q 297 276 354 235 m 155 272 l 155 272 l 155 272 q 256 174 189 214 l 256 182 q 155 272 224 189 m 240 268 l 240 268 l 240 264 q 273 235 240 259 l 273 239 q 240 268 273 244 m 708 260 l 708 260 l 700 248 l 700 243 l 704 243 q 712 260 704 250 l 708 260 m 671 219 l 671 219 l 671 219 q 696 239 688 224 l 692 239 q 671 219 686 239 m 224 235 l 224 235 l 224 231 q 252 211 224 227 l 256 211 l 256 215 q 224 235 252 215 m 415 235 l 415 235 l 415 231 l 460 231 l 460 235 l 415 235 m 317 227 l 317 227 l 317 223 l 354 207 l 354 211 l 321 227 l 317 227 m 513 178 l 513 178 l 513 174 l 517 174 q 623 219 526 174 l 623 223 l 618 223 q 513 178 549 188 m 289 215 l 289 215 l 289 211 q 313 199 304 199 q 289 215 313 205 m 492 215 l 492 215 l 492 211 l 500 211 l 500 215 l 492 215 m 444 211 l 444 211 l 444 207 l 476 207 l 476 211 l 444 211 m 476 199 l 476 199 l 476 195 l 505 195 q 545 211 545 199 q 476 199 512 199 m 330 199 l 330 199 l 330 199 q 362 182 330 192 l 362 186 q 330 199 339 199 m 500 158 l 500 158 l 500 154 l 505 154 q 598 191 597 180 l 594 191 q 500 158 581 182 m 675 191 l 675 191 l 667 178 l 671 178 l 680 191 l 675 191 m 712 191 l 712 191 l 680 158 l 684 158 l 716 191 l 712 191 m 289 186 l 289 186 l 289 182 l 297 182 l 297 186 l 289 186 m 395 182 l 395 182 l 395 178 l 407 178 l 407 182 l 395 182 m 411 178 l 411 178 l 411 174 l 431 174 l 431 178 l 411 178 m 464 178 l 464 178 l 464 174 l 472 174 l 472 178 l 464 178 m 264 174 l 264 174 l 264 174 q 256 166 264 166 q 362 113 256 153 l 362 117 q 264 174 317 134 m 358 174 l 358 174 l 358 170 l 399 162 q 362 174 399 170 l 358 174 m 606 138 l 606 138 l 606 138 q 663 174 639 151 l 659 174 q 606 138 606 141 m 582 158 l 582 158 l 582 154 l 590 154 l 590 158 l 582 158 m 671 158 l 671 158 l 667 150 l 671 150 l 675 158 l 671 158 m 330 146 l 330 146 l 330 142 l 338 142 l 338 146 l 330 146 m 395 117 l 395 117 l 395 113 l 448 105 q 582 138 492 105 l 582 142 l 578 142 q 395 117 495 117 m 354 138 l 354 138 l 354 134 q 399 125 389 125 l 423 125 l 423 130 q 358 138 387 130 l 354 138 m 521 101 l 521 101 l 521 97 l 529 97 q 602 121 536 97 l 602 125 l 598 125 q 521 101 565 113 m 342 97 l 342 97 l 342 93 l 350 93 l 350 97 l 342 97 z "},"D":{"ha":627,"x_min":-127,"x_max":659,"o":"m 296 1286 l 296 1286 l 309 1286 q 317 1278 317 1285 l 317 1274 l 296 1278 l 296 1286 m 166 1274 l 166 1274 l 166 1274 q 443 1201 363 1274 q 553 1083 507 1152 q 618 863 618 916 l 622 863 l 622 871 q 561 1083 602 1000 q 410 1242 505 1197 q 374 1254 380 1254 l 374 1262 q 545 1132 446 1262 q 650 819 650 954 q 659 758 658 819 l 659 717 q 589 375 659 490 l 585 375 q 581 379 585 379 q 642 599 624 445 l 642 607 l 638 607 q 581 420 638 577 q 475 192 539 267 q 471 196 475 196 q 561 383 524 277 l 557 383 q 268 86 445 153 l 248 82 l 248 86 q 333 127 252 92 q 398 192 398 170 l 390 196 l 321 135 l 317 135 l 317 143 q 341 163 317 148 l 337 172 l 337 176 q 402 241 351 176 l 398 241 q 235 102 314 149 l 231 102 l 231 115 q 304 176 304 152 l 300 176 l 304 184 l 304 188 l 300 188 q 276 168 276 172 l 276 147 l 268 147 q 264 163 264 161 l 182 111 l 174 111 q 264 180 174 115 l 264 196 q -21 66 100 74 l -21 78 q 223 180 75 78 l 182 168 l 178 176 l 178 180 q 264 212 264 197 q 260 229 260 219 l 256 229 l 243 220 q 235 229 235 220 q 260 245 260 238 l 260 249 q 12 147 123 161 l 12 159 q 260 261 133 174 l 260 265 l 256 265 q 138 212 159 212 l 138 216 q 223 257 138 221 q 243 273 243 269 q 219 416 219 312 l 211 420 l 211 416 q 215 326 215 345 q 223 318 223 325 l 223 314 q 215 306 223 306 q 203 391 203 306 l 195 395 l 195 383 l 199 334 l 186 334 l 191 326 l 191 298 l 195 277 l 191 277 q 170 416 178 277 q 158 424 158 416 q 146 583 158 452 l 142 583 l 142 574 q 154 428 149 504 l 146 428 q 150 359 150 380 l 150 294 l 158 281 q 154 269 154 273 l 150 269 q 142 281 142 269 q 130 546 142 323 l 121 550 l 121 546 q 125 489 125 511 l 113 489 q 105 522 113 502 q 77 786 105 586 l 81 806 q 64 912 64 899 l 68 932 l 52 1018 q 56 1030 56 1025 l 64 1030 l 64 1026 l 81 900 l 85 900 l 85 916 l 73 994 l 81 998 l 85 998 l 85 994 l 101 863 l 105 863 l 105 871 q 97 924 101 918 l 105 928 q 81 1046 81 1030 l 89 1050 q 109 1014 94 1027 l 109 1018 q 105 1063 105 1046 l 113 1063 q 146 928 134 928 q 121 1026 141 954 l 125 1050 l 125 1067 l 130 1067 l 138 1063 l 138 1067 q 121 1116 138 1074 q 125 1128 125 1123 l 121 1128 q 56 1120 77 1120 l 56 1128 q 130 1136 96 1136 l 162 1136 q 329 1091 244 1136 l 329 1095 q 158 1148 248 1142 l 158 1156 l 174 1156 q 321 1112 223 1156 q 337 1099 321 1107 l 337 1103 q 239 1152 294 1141 l 239 1160 l 243 1160 q 455 994 311 1160 q 264 1160 342 1160 q 195 1168 264 1167 l 182 1168 q -13 1124 88 1168 l -17 1132 q 150 1177 86 1177 l 166 1177 l 166 1189 l 162 1189 q -41 1144 64 1189 l -45 1152 q 146 1197 50 1197 l 191 1197 q 227 1193 205 1197 l 231 1193 l 231 1197 q 170 1205 193 1205 l 77 1205 l 48 1201 l 48 1205 l 52 1213 q 162 1217 127 1217 l 199 1217 l 239 1213 q 248 1221 240 1221 q 353 1189 269 1221 l 361 1193 q 394 1168 363 1183 l 394 1173 q 211 1230 321 1230 l 154 1230 l 113 1225 l 109 1234 q 191 1242 138 1242 q 272 1234 217 1242 q 227 1246 272 1246 l 158 1246 l 158 1254 q 207 1258 200 1258 q 520 1091 401 1258 q 553 1059 526 1091 q 325 1250 475 1203 q 170 1266 292 1258 q 97 1250 97 1263 l 81 1250 l 60 1246 l 60 1250 l 52 1246 q 44 1254 44 1246 q 166 1274 97 1274 m 7 1246 l 7 1246 l 16 1246 l 16 1238 l 7 1238 l 7 1246 m 296 1234 l 296 1234 l 296 1230 l 304 1230 l 304 1234 l 296 1234 m 3 1213 l 3 1213 l 3 1209 q -33 1193 3 1203 q -37 1189 -33 1188 q -41 1193 -37 1193 q 3 1213 -41 1209 m 252 1209 l 252 1209 l 252 1205 q 288 1197 258 1205 l 292 1197 l 292 1201 q 256 1209 262 1209 l 252 1209 m 410 1189 l 410 1189 l 410 1185 l 467 1140 l 467 1144 q 410 1189 439 1171 m -94 1189 l -94 1189 l -86 1189 l -86 1185 q -94 1177 -86 1177 l -102 1177 l -102 1181 q -94 1189 -102 1189 m 199 1185 l 199 1185 l 199 1177 l 219 1177 q 276 1168 245 1177 q 199 1185 276 1182 m 406 1173 l 406 1173 l 406 1168 q 500 1075 414 1168 q 406 1173 454 1147 m -102 1136 l -102 1136 l -102 1132 q -115 1120 -102 1126 l -119 1120 l -119 1132 l -102 1136 m 353 1132 l 353 1132 l 353 1128 l 378 1107 l 382 1107 q 353 1132 382 1114 m 134 1128 l 134 1128 l 134 1124 q 158 1014 158 1029 l 162 1014 l 162 1022 q 158 1063 158 1043 l 170 1063 q 162 1120 162 1114 l 174 1120 l 174 1116 l 203 880 l 207 880 l 207 888 q 195 1071 195 958 l 199 1071 q 170 1128 192 1128 l 134 1128 m 199 1124 l 199 1124 l 199 1112 l 207 1116 l 211 1116 q 231 957 211 1096 l 235 957 l 235 969 l 219 1083 l 231 1083 l 231 1079 q 288 371 288 599 q 292 359 288 366 q 288 347 288 351 l 280 347 q 276 375 276 362 l 268 371 l 260 375 l 264 367 l 264 334 l 268 286 q 471 554 413 376 q 488 656 488 609 q 459 855 488 758 l 467 859 l 471 859 q 492 725 492 769 q 500 733 499 725 l 500 741 q 304 1067 500 939 l 304 1071 l 309 1071 q 467 912 418 1004 l 471 912 l 471 916 q 292 1099 418 1040 q 199 1124 260 1112 m 386 1099 l 386 1099 l 386 1095 q 427 1063 422 1063 l 427 1067 q 386 1099 392 1099 m 333 1091 l 333 1091 l 333 1087 l 341 1083 l 341 1087 l 333 1091 m 512 1075 l 512 1075 l 512 1071 l 520 1067 l 520 1071 l 512 1075 m 134 1059 l 134 1059 l 134 1059 q 142 1006 142 1022 l 146 1006 l 146 1030 l 142 1059 l 134 1059 m 166 1055 l 166 1055 l 166 1055 q 191 843 191 903 l 195 843 l 195 863 q 166 1055 178 1055 m 199 1055 l 199 1055 l 199 1046 l 203 1046 l 203 1055 l 199 1055 m 447 1050 l 447 1050 l 447 1050 q 459 1034 453 1034 q 447 1050 453 1050 m 459 1030 l 459 1030 l 459 1030 q 504 928 504 941 l 508 928 l 508 937 q 459 1030 467 1030 m 162 1010 l 162 1010 l 162 994 l 166 994 l 166 1010 l 162 1010 m 203 1010 l 203 1010 l 203 989 l 207 989 l 207 1010 l 203 1010 m 545 994 l 545 994 l 545 985 l 561 945 l 565 945 l 565 949 q 549 994 549 986 l 545 994 m 207 985 l 207 985 l 207 965 l 211 965 l 211 985 l 207 985 m 569 977 l 569 977 l 569 973 q 581 949 573 949 l 581 953 q 573 977 573 969 l 569 977 m 211 945 l 211 945 l 211 916 l 215 916 l 215 945 l 211 945 m 142 924 l 142 924 l 142 912 l 146 912 l 146 924 l 142 924 m 146 908 l 146 908 l 146 892 l 150 892 l 150 908 l 146 908 m 626 908 l 626 908 l 626 896 l 630 896 l 630 908 l 626 908 m 630 888 l 630 888 l 630 880 q 638 753 638 821 l 638 717 q 610 542 638 654 l 610 538 l 614 538 q 646 729 646 661 l 646 733 q 634 888 646 793 l 630 888 m 496 880 l 496 880 l 496 880 q 520 753 520 815 l 524 753 l 524 806 q 496 880 505 880 m 585 871 l 585 871 l 585 855 l 589 855 l 589 871 l 585 871 m 492 859 l 492 859 l 492 847 l 496 847 l 496 859 l 492 859 m 496 843 l 496 843 l 496 831 l 500 831 l 500 843 l 496 843 m 195 835 l 195 835 l 195 794 l 199 794 l 199 835 l 195 835 m 121 794 l 121 794 l 121 790 l 142 603 l 146 603 l 125 794 l 121 794 m 618 770 l 618 770 l 618 770 q 614 635 618 659 l 614 631 l 618 631 q 626 729 626 722 l 622 770 l 618 770 m 231 660 l 231 660 l 231 644 l 235 644 l 235 660 l 231 660 m 512 623 l 512 623 l 508 599 l 508 595 l 512 595 l 516 615 l 516 623 l 512 623 m 532 619 l 532 619 l 532 611 l 536 611 l 536 619 l 532 619 m 528 607 l 528 607 l 528 591 l 532 591 l 532 607 l 528 607 m 593 587 l 593 587 l 593 587 q 589 550 593 572 l 589 538 l 593 538 q 597 574 593 552 l 597 587 l 593 587 m 569 574 l 569 574 l 569 574 q 565 542 569 564 l 565 534 l 569 534 q 573 566 569 544 l 573 574 l 569 574 m 516 550 l 516 550 l 516 550 q 508 526 516 543 l 508 522 l 512 522 q 520 546 512 528 l 520 550 l 516 550 m 585 534 l 585 534 l 585 522 l 589 522 l 589 534 l 585 534 m 606 534 l 606 534 l 606 526 l 610 526 l 610 534 l 606 534 m 471 526 l 471 526 l 471 526 q 451 477 471 514 l 455 477 q 475 522 471 508 l 475 526 l 471 526 m 264 513 l 264 513 l 264 489 q 272 395 264 468 l 276 395 l 276 404 q 268 513 268 503 l 264 513 m 174 505 l 174 505 l 174 497 l 178 497 l 178 505 l 174 505 m 191 501 l 191 501 l 191 477 q 199 408 191 455 l 203 408 q 195 501 195 473 l 191 501 m 239 501 l 239 501 l 239 469 l 243 469 l 243 501 l 239 501 m 553 477 l 553 477 l 553 477 q 536 420 553 470 l 536 416 l 541 416 q 557 473 541 422 l 557 477 l 553 477 m 243 465 l 243 465 l 243 428 l 248 428 l 248 465 l 243 465 m 431 424 l 431 424 l 431 424 q 268 253 406 371 l 268 249 l 276 249 q 435 424 369 294 l 431 424 m 520 412 l 520 412 l 520 412 q 398 224 458 278 l 398 220 q 524 408 437 220 l 524 412 l 520 412 m 532 412 l 532 412 l 532 404 l 536 404 l 536 412 l 532 412 m 248 408 l 248 408 l 243 383 l 252 277 l 256 277 l 256 298 q 252 408 252 360 l 248 408 m 479 404 l 479 404 l 479 404 q 374 241 475 375 l 370 241 l 370 249 q 463 387 443 351 l 459 387 q 313 196 374 255 l 317 188 q 313 184 312 188 l 317 184 q 484 399 425 267 l 484 404 l 479 404 m 227 399 l 227 399 l 227 387 l 231 387 l 231 399 l 227 399 m 231 383 l 231 383 l 231 355 l 235 355 l 235 383 l 231 383 m 398 330 l 398 330 l 398 330 q 272 204 343 249 l 272 188 l 276 188 q 402 330 367 262 l 398 330 m 313 310 l 313 310 l 313 310 q 268 277 280 277 l 268 269 q 317 310 296 283 l 313 310 m 272 233 l 272 233 l 272 216 q 321 265 277 216 q 272 233 272 238 m 427 229 l 427 229 l 427 229 q 398 200 398 204 l 402 200 q 431 229 408 200 l 427 229 m 109 220 l 109 220 l 109 208 l 101 208 l 101 212 q 109 220 102 220 m 186 86 l 186 86 l 186 82 q 130 58 186 70 l 130 70 q 186 86 144 70 m -54 82 l -54 82 l -50 74 l -62 66 l -78 66 l -78 78 q -54 82 -60 78 m -119 78 l -119 78 l -115 70 l -123 66 l -127 66 l -127 70 q -119 78 -126 78 m 68 58 l 68 58 l 81 58 l 81 50 l 68 50 l 68 58 z "},"E":{"ha":684,"x_min":-101,"x_max":981,"o":"m 530 1201 q 802 1164 677 1201 q 884 1136 884 1145 l 884 1132 l 876 1132 l 876 1128 q 888 1120 888 1128 l 888 1116 l 880 1116 q 684 1164 880 1131 l 664 1164 l 664 1160 q 782 1128 782 1149 q 957 1075 920 1101 l 949 1071 q 741 1124 922 1091 l 729 1124 l 729 1120 q 778 1112 745 1120 l 778 1107 l 774 1099 q 843 1079 843 1088 q 835 1071 843 1071 q 782 1087 819 1083 l 786 1079 q 778 1071 786 1071 l 774 1071 q 717 1091 774 1082 l 725 1079 q 717 1071 717 1078 q 766 1067 744 1071 l 766 1055 l 749 1055 l 737 1063 l 717 1063 q 692 1055 705 1063 q 623 1071 692 1067 l 607 1071 l 607 1067 q 672 1059 620 1067 l 672 1046 l 660 1046 l 660 1042 q 782 1034 751 1042 l 782 1026 q 652 1034 691 1034 q 200 989 524 1034 q 196 985 200 985 q 204 957 204 969 l 208 957 l 208 981 l 212 981 q 265 810 247 930 q 273 786 265 786 q 554 823 378 810 q 664 814 652 819 l 664 806 q 603 810 643 806 l 587 810 l 587 806 q 631 802 609 806 l 631 794 l 619 794 l 619 790 q 631 782 631 790 l 623 778 l 615 782 l 591 778 l 587 778 l 578 782 l 578 778 l 587 774 l 644 774 q 652 766 652 772 q 648 762 648 766 l 619 766 l 591 766 q 574 762 581 766 q 554 766 568 766 l 534 766 l 534 762 l 583 758 l 672 758 l 701 753 l 701 749 l 696 741 q 644 749 678 749 l 603 749 q 578 737 578 747 l 591 737 l 591 729 q 546 733 582 729 l 517 733 l 517 729 q 615 713 615 725 q 611 709 611 713 l 591 713 l 587 713 q 583 701 587 708 q 603 692 593 692 l 603 680 q 595 668 595 680 q 306 635 473 668 q 318 538 318 553 l 310 538 q 294 635 310 544 q 277 631 286 631 q 294 538 281 622 q 286 530 286 536 q 294 481 286 522 l 290 481 q 277 501 283 481 q 265 497 269 497 q 277 485 265 485 l 277 481 q 269 473 277 473 l 261 473 l 261 481 l 257 481 q 269 444 259 457 l 269 436 q 261 432 261 436 q 273 391 261 391 l 273 379 q 265 371 273 371 l 261 371 q 233 497 241 497 l 249 379 l 241 379 l 241 367 q 249 342 241 355 q 245 326 245 335 l 241 326 q 224 424 231 326 q 200 497 205 497 q 216 375 216 402 q 208 391 208 375 l 200 391 q 212 286 212 309 l 204 286 q 147 599 192 325 l 131 591 q 119 595 123 595 q 147 611 119 605 l 147 623 q 106 607 117 616 l 102 607 l 102 619 q 143 640 143 632 q 139 644 139 640 q 111 635 127 635 l 111 648 l 106 648 l 106 652 q 131 684 106 657 l 131 688 q 102 676 111 676 l 102 680 l 127 701 l 127 709 q 94 696 117 709 l 90 705 l 90 709 q 123 717 116 717 q 50 949 82 864 l 45 949 q -60 912 -17 939 l -64 920 q 45 961 -38 941 l 41 969 l 41 973 l 54 973 l 54 965 l 58 965 q 66 977 58 971 l 58 994 q 29 981 37 981 l 29 994 l 54 1002 l 54 1010 l 50 1010 l -12 981 l -12 994 q 45 1022 43 1013 l 41 1022 l 25 1014 l 17 1018 l -32 1002 l -32 1006 q 13 1026 -32 1015 l 13 1030 l 5 1030 l 5 1034 q 82 1071 14 1045 l 82 1079 l 90 1079 l 98 1075 q 290 1136 98 1098 l 290 1140 l 277 1140 q 1 1050 214 1140 l -3 1050 l -3 1059 q 54 1091 54 1076 q 290 1152 150 1132 l 290 1156 l 281 1156 q 33 1095 167 1144 q 9 1079 33 1093 l 1 1079 l 1 1083 q 212 1156 29 1118 q 412 1181 385 1181 l 412 1185 l 387 1185 q 245 1168 250 1175 l 245 1181 q 530 1201 390 1201 m 469 1193 l 469 1189 l 554 1189 l 554 1193 l 469 1193 m 424 1189 l 424 1185 l 465 1185 l 465 1189 l 424 1189 m 432 1177 l 432 1173 l 444 1173 l 444 1177 l 432 1177 m 509 1168 l 509 1164 l 578 1164 l 578 1168 l 509 1168 m 526 1156 l 526 1148 l 611 1148 l 611 1152 q 526 1156 587 1152 m 660 1152 l 660 1144 q 758 1132 677 1140 l 766 1132 l 766 1136 l 660 1152 m 615 1148 l 615 1144 l 635 1144 l 635 1148 l 615 1148 m 294 1144 l 294 1140 l 302 1140 l 302 1144 l 294 1144 m 538 1132 l 538 1128 l 566 1128 l 566 1132 l 538 1132 m 648 1132 l 648 1128 l 684 1128 l 684 1132 l 648 1132 m 436 1128 l 436 1124 l 456 1124 l 456 1128 l 436 1128 m 701 1128 l 701 1124 l 717 1124 l 717 1128 l 701 1128 m 399 1124 l 399 1120 l 428 1120 l 428 1124 l 399 1124 m 379 1120 l 379 1116 l 395 1116 l 395 1120 l 379 1120 m 603 1120 q 615 1112 603 1112 q 762 1099 701 1112 l 762 1107 q 615 1120 686 1120 l 603 1120 m 928 1120 l 932 1112 l 932 1107 l 920 1107 l 920 1112 q 928 1120 921 1120 m 570 1099 l 570 1095 l 591 1095 l 591 1099 l 570 1099 m 595 1095 l 595 1091 l 619 1091 l 619 1095 l 595 1095 m 517 1087 l 517 1083 l 538 1083 l 538 1087 l 517 1087 m 969 1071 l 981 1071 l 981 1067 q 973 1059 981 1059 l 969 1067 l 969 1071 m 139 1055 l 139 1050 l 147 1050 q 159 1055 155 1055 l 159 1059 l 155 1059 q 139 1055 148 1055 m 45 1046 l 45 1042 l 50 1042 q 66 1046 56 1046 l 66 1055 q 45 1046 52 1046 m 794 1059 l 798 1059 l 839 1055 l 839 1046 l 835 1046 q 794 1050 829 1046 l 794 1059 m 25 1038 l 25 1034 l 29 1034 q 41 1038 37 1038 l 41 1042 l 37 1042 q 25 1038 29 1038 m 876 1046 l 880 1046 l 880 1034 l 876 1034 q 867 1042 867 1034 l 876 1046 m 86 1038 l 82 1030 q 98 1034 89 1034 l 98 1038 l 86 1038 m 62 1030 l 58 1022 q 74 1026 64 1026 l 74 1030 l 62 1030 m 399 1030 l 399 1026 l 408 1026 l 408 1030 l 399 1030 m 90 1026 l 90 1018 q 98 1026 98 1018 l 90 1026 m 257 1014 l 257 1010 l 269 1010 q 395 1022 361 1022 l 395 1026 l 363 1026 l 257 1014 m 62 1014 l 62 1006 q 82 1018 82 1010 l 74 1018 q 62 1014 66 1014 m 237 1010 l 237 1006 l 253 1006 l 253 1010 l 237 1010 m 127 994 l 127 989 l 135 989 l 135 994 l 127 994 m -64 994 l -56 994 l -56 989 q -64 981 -56 981 l -64 994 m 70 989 q 78 969 78 976 l 82 969 l 82 973 q 70 989 76 989 m 90 981 l 90 973 l 94 973 l 94 981 l 90 981 m 172 981 l 172 973 q 184 941 184 950 l 188 941 l 188 945 q 176 981 176 974 l 172 981 m -36 973 l -36 965 q -60 957 -58 957 l -60 961 q -36 973 -56 973 m 139 965 l 139 957 l 143 957 l 143 965 l 139 965 m 82 961 q 86 949 86 953 l 90 949 l 90 957 l 82 961 m 70 957 q 94 892 94 899 l 98 892 l 98 896 q 70 957 79 956 m 143 953 l 143 945 l 147 945 l 147 953 l 143 953 m 208 949 l 208 941 l 212 941 l 212 949 l 208 949 m -101 945 l -89 945 l -89 937 l -101 937 l -101 945 m 147 941 l 147 932 l 151 932 l 151 941 l 147 941 m 212 937 l 212 928 q 216 912 216 921 l 220 912 l 220 920 q 216 937 216 927 l 212 937 m 151 928 l 151 920 l 155 920 l 155 928 l 151 928 m 70 924 l 70 916 l 74 916 l 74 924 l 70 924 m 155 916 l 155 908 l 159 908 l 159 916 l 155 916 m 74 912 l 74 904 l 78 904 l 78 912 l 74 912 m 220 908 l 220 904 q 229 863 229 873 l 233 863 l 233 871 q 224 908 224 902 l 220 908 m 78 900 l 78 896 q 115 774 98 844 l 119 774 l 119 778 q 82 900 119 786 l 78 900 m 208 900 l 208 888 l 212 888 l 212 900 l 208 900 m 237 892 l 237 884 l 241 884 l 241 892 l 237 892 m 98 888 l 98 880 l 102 880 l 102 888 l 98 888 m 212 884 l 212 876 l 216 851 l 220 851 l 220 859 l 216 884 l 212 884 m 241 876 l 241 863 l 245 863 l 245 876 l 241 876 m 245 859 l 245 847 q 249 819 249 831 l 253 819 l 253 831 q 249 859 249 846 l 245 859 m 220 847 l 220 835 l 224 835 l 224 847 l 220 847 m 224 831 l 224 819 l 229 819 l 229 831 l 224 831 m 554 814 l 554 810 l 562 810 l 562 814 l 554 814 m 229 810 l 229 798 l 233 798 l 233 810 l 229 810 m 253 806 l 253 786 l 261 782 l 257 806 l 253 806 m 501 798 l 501 794 l 522 794 l 522 798 l 501 798 m 591 798 l 591 794 l 615 794 l 615 798 l 591 798 m 233 794 l 233 782 l 237 782 l 237 794 l 233 794 m 314 778 l 314 774 l 326 774 l 326 778 l 314 778 m 298 774 l 298 770 l 310 770 l 310 774 l 298 774 m 119 770 l 119 762 l 123 762 l 123 770 l 119 770 m 286 770 l 286 766 l 294 766 l 294 770 l 286 770 m 721 758 l 733 758 l 733 753 q 725 745 733 745 l 721 745 l 721 758 m 310 745 l 310 741 l 318 741 l 318 745 l 310 745 m 550 745 l 550 741 l 566 741 l 566 745 l 550 745 m 294 741 l 294 737 l 306 737 l 306 741 l 294 741 m 281 737 l 281 733 l 290 733 l 290 737 l 281 737 m 501 737 l 501 733 l 513 733 l 513 737 l 501 737 m 623 733 l 684 733 q 692 725 692 732 l 692 721 l 644 725 l 623 725 l 623 733 m 705 729 l 709 729 q 717 721 717 728 l 705 721 l 705 729 m 326 696 l 326 692 l 347 692 q 493 709 460 709 l 493 713 l 473 713 q 326 696 328 696 m 290 705 l 290 701 l 302 701 q 314 705 309 705 l 314 709 l 310 709 q 290 705 303 705 m 534 705 l 534 701 l 570 701 l 570 705 l 534 705 m 269 701 l 269 696 l 277 696 l 277 701 l 269 701 m 290 688 l 290 680 l 306 680 l 306 688 l 290 688 m 534 688 l 534 684 q 554 676 554 684 q 591 680 556 680 l 591 684 l 550 688 l 534 688 m 273 684 l 273 672 q 281 680 281 672 l 281 684 l 273 684 m 257 680 l 257 672 l 261 672 l 261 680 l 257 680 m 302 652 l 302 648 l 310 648 q 530 672 441 672 l 530 676 l 477 676 q 302 652 444 676 m 163 627 l 163 619 l 168 619 l 168 627 l 163 627 m 253 627 l 253 619 q 273 505 273 515 l 277 505 l 277 513 q 257 627 277 516 l 253 627 m 619 424 l 623 416 q 583 412 622 412 l 583 408 l 599 408 q 668 412 630 412 l 672 404 l 672 395 l 656 391 l 656 387 l 705 387 q 713 379 713 386 l 705 375 q 692 379 700 375 q 656 375 670 375 l 635 375 q 497 338 627 363 l 497 334 l 501 334 l 635 363 q 652 359 637 363 q 684 363 667 363 q 692 355 692 361 l 692 351 q 684 347 684 351 l 676 351 l 644 351 q 566 330 628 336 l 566 326 l 583 326 q 595 330 590 330 l 595 322 q 676 338 638 334 l 680 330 l 607 310 q 322 192 521 297 l 322 196 q 404 245 323 205 l 404 249 q 229 163 245 185 l 220 168 l 168 131 l 163 131 l 163 135 q 216 180 164 140 l 212 180 l 200 172 l 196 172 l 196 184 q 208 192 208 184 q 200 200 200 192 q 176 176 176 187 l 172 176 q 163 184 163 176 q 253 253 253 244 l 249 253 q 123 163 174 207 l 119 172 q 294 281 222 257 l 294 286 l 290 286 q 151 204 224 258 l 143 204 l 143 208 q 286 294 189 250 q 294 302 294 294 q 290 306 290 302 q 224 277 230 277 l 224 281 q 310 334 253 304 q 355 359 310 352 l 355 363 l 347 363 q 265 322 292 347 l 257 322 l 257 326 q 570 420 257 363 q 619 424 606 420 m 570 408 l 570 404 l 578 404 l 578 408 l 570 408 m 644 399 l 644 395 l 652 395 l 652 399 l 644 399 m 733 387 l 745 387 l 766 383 l 766 375 l 733 375 l 733 387 m 790 387 l 794 379 l 794 375 l 782 375 l 782 379 q 790 387 783 387 m 546 363 l 546 359 l 554 359 l 554 363 l 546 363 m 530 359 l 530 355 l 538 355 l 538 359 l 530 359 m 379 351 l 379 347 l 387 347 l 387 351 l 379 351 m 367 347 l 367 342 l 375 342 l 375 347 l 367 347 m 485 334 l 485 330 l 493 330 l 493 334 l 485 334 m 306 306 l 306 302 l 310 302 q 334 318 334 311 q 306 306 314 306 m 465 277 l 465 273 l 473 273 l 473 277 l 465 277 m 444 269 l 444 265 l 448 265 q 460 269 456 269 l 460 273 l 456 273 q 444 269 448 269 m 432 265 l 428 257 q 440 261 435 261 l 440 265 l 432 265 m 363 249 l 363 245 l 371 245 l 371 249 l 363 249 m 216 208 q 261 237 260 229 q 216 208 216 215 m 224 184 q 314 233 276 218 l 314 237 l 310 237 q 224 184 252 214 m 294 216 l 294 212 l 298 212 q 334 229 327 229 l 334 233 l 330 233 q 294 216 300 216 z "},"F":{"ha":541,"x_min":-26,"x_max":1044,"o":"m 1027 1289 l 1027 1289 l 1031 1289 q 1040 1281 1040 1288 l 1040 1277 l 1036 1277 q 1027 1285 1027 1277 l 1027 1289 m 946 1285 l 946 1285 l 987 1285 q 995 1277 995 1284 q 991 1273 991 1277 q 979 1277 983 1277 q 824 1273 840 1273 l 824 1269 l 861 1269 l 861 1265 q 852 1257 861 1257 l 828 1257 q 458 1208 703 1257 l 458 1204 l 466 1204 q 824 1253 579 1232 q 897 1249 862 1249 l 942 1249 q 950 1240 950 1247 l 909 1232 q 893 1236 902 1236 l 881 1236 l 885 1228 l 885 1224 l 865 1228 q 633 1208 730 1228 l 633 1204 l 641 1204 q 751 1220 682 1212 q 759 1212 752 1212 l 812 1212 q 877 1208 835 1212 q 897 1212 884 1212 l 901 1204 q 852 1192 857 1198 q 840 1204 852 1198 l 804 1204 l 755 1200 l 755 1196 q 812 1183 812 1196 l 840 1183 l 840 1171 q 828 1175 836 1171 q 734 1159 734 1175 l 865 1167 l 865 1163 q 857 1155 865 1155 l 795 1155 q 751 1143 782 1143 l 755 1135 q 714 1118 714 1128 l 710 1118 q 637 1106 695 1118 l 637 1102 l 653 1102 q 804 1122 743 1110 l 804 1110 q 425 1053 566 1082 l 425 1049 l 429 1049 q 482 1057 462 1057 l 482 1053 q 368 1029 482 1046 q 356 1025 368 1025 l 356 1017 q 600 1061 445 1037 l 604 1053 l 604 1049 q 348 992 348 1017 l 299 703 l 303 703 q 466 732 399 724 l 486 728 q 539 732 513 732 l 555 728 l 555 720 q 519 707 543 720 l 507 707 q 323 683 444 707 l 323 679 l 332 679 q 474 703 385 691 l 482 699 l 507 703 l 523 703 l 523 691 l 511 691 q 291 650 427 691 l 291 642 q 523 683 451 679 q 539 679 530 679 l 555 683 l 559 675 q 511 667 540 667 l 515 659 l 515 654 l 498 654 l 503 646 l 503 642 q 287 602 397 642 l 287 593 q 474 630 353 618 l 474 634 l 494 630 l 515 630 l 515 638 l 523 638 q 535 622 523 632 q 283 561 328 577 l 279 553 l 283 553 q 470 589 371 573 l 470 585 q 323 553 470 576 q 279 532 279 542 q 254 170 254 357 q 287 -188 262 -171 q 275 -204 281 -204 q 246 105 246 -66 l 246 227 q 250 357 246 291 l 250 370 l 246 370 q 238 81 238 198 l 238 12 l 242 -13 l 238 -21 q 254 -94 242 -80 l 254 -98 l 250 -98 q 218 166 225 -98 l 218 231 q 222 345 218 283 q 218 382 218 360 l 222 410 l 222 414 l 218 414 q 214 402 218 410 q 210 174 210 257 l 210 162 q 218 40 210 89 l 205 40 q 189 174 205 84 l 185 174 l 185 162 l 181 162 q 169 199 173 162 q 173 304 173 267 l 173 349 l 169 349 l 169 313 l 161 313 q 157 325 161 325 l 161 345 l 161 443 q 165 500 161 465 l 165 504 l 161 504 q 149 280 153 410 q 189 77 159 85 l 189 73 q 181 64 189 64 q 149 170 164 64 l 144 170 l 140 146 l 136 146 q 116 427 116 146 l 116 484 q 100 406 100 484 q 96 296 96 406 l 96 276 q 120 97 98 116 l 112 93 q 83 296 92 93 q 92 471 83 321 l 87 471 q 47 455 59 455 l 47 459 q 87 479 47 469 q 79 500 87 500 q -10 443 18 467 l -14 443 l -14 455 q 83 520 83 515 l 83 541 l 55 524 l 51 524 l 51 536 q 83 553 58 536 l 79 561 l 87 573 l 87 585 q 67 577 74 577 l 67 581 q 92 597 75 597 l 92 618 l 79 610 l 75 610 l 75 614 q 100 675 100 630 q 153 964 132 895 l 149 964 l 128 951 l 120 951 l 120 956 q 157 984 157 978 l 161 1004 q 67 960 103 987 l 59 960 l 59 964 q 169 1021 59 975 l 169 1041 q 157 1045 161 1045 l 157 1049 q 201 1074 157 1058 l 201 1082 l 197 1090 q 210 1114 205 1090 q 169 1098 181 1098 l 169 1106 q 214 1131 213 1124 l 205 1131 l 205 1135 q 246 1187 220 1146 q 250 1183 246 1183 l 238 1155 l 246 1155 q 275 1196 261 1155 l 283 1200 l 283 1192 l 291 1196 l 299 1196 q 291 1171 291 1182 l 303 1171 q 332 1208 303 1187 q 340 1220 332 1220 l 344 1220 l 344 1216 l 328 1183 l 340 1183 q 352 1220 340 1188 l 364 1220 l 364 1216 q 352 1187 352 1198 q 401 1244 383 1187 l 405 1244 q 409 1240 405 1240 q 433 1277 424 1276 l 433 1269 l 401 1204 l 409 1204 q 857 1281 617 1281 q 946 1285 857 1285 m 592 1249 l 592 1249 l 592 1244 l 600 1244 q 820 1265 751 1265 l 820 1269 l 767 1269 q 592 1249 667 1261 m 975 1240 l 975 1240 l 1003 1240 l 1003 1232 q 975 1228 991 1232 l 975 1240 m 1040 1240 l 1040 1240 l 1044 1240 l 1044 1228 l 1040 1228 q 1031 1236 1031 1228 l 1040 1240 m 446 1204 l 446 1204 l 446 1200 l 454 1200 l 454 1204 l 446 1204 m 437 1175 l 437 1175 l 437 1171 l 441 1171 q 572 1200 558 1200 l 572 1204 l 564 1204 q 437 1175 492 1192 m 616 1204 l 616 1204 l 616 1200 l 625 1200 l 625 1204 l 616 1204 m 913 1204 l 913 1204 l 922 1204 l 922 1196 l 913 1196 l 913 1204 m 673 1192 l 673 1192 l 673 1187 l 690 1187 l 690 1192 l 673 1192 m 421 1187 l 421 1187 l 421 1183 l 429 1183 l 429 1187 l 421 1187 m 592 1179 l 592 1179 l 592 1175 l 596 1175 q 665 1183 643 1183 l 665 1187 l 645 1187 l 592 1179 m 771 1187 l 771 1187 l 771 1183 l 787 1183 l 787 1187 l 771 1187 m 389 1179 l 389 1179 l 389 1175 l 401 1175 q 417 1179 408 1179 l 417 1183 l 413 1183 l 389 1179 m 718 1183 l 718 1183 l 718 1179 l 751 1179 l 751 1183 l 718 1183 m 686 1179 l 686 1179 l 686 1175 l 702 1175 l 702 1179 l 686 1179 m 348 1163 l 348 1163 l 352 1163 q 372 1175 372 1168 l 364 1175 q 348 1163 348 1169 m 385 1163 l 385 1163 l 385 1159 l 389 1159 q 433 1175 433 1167 l 385 1163 m 669 1167 l 669 1167 l 669 1163 l 698 1163 l 698 1167 l 669 1167 m 905 1171 l 905 1171 l 913 1171 l 913 1159 l 905 1159 q 897 1167 897 1159 l 905 1171 m 319 1163 l 319 1163 l 319 1159 l 332 1159 l 332 1163 l 319 1163 m 311 1147 l 311 1147 l 311 1143 l 323 1143 l 328 1151 l 323 1151 q 311 1147 315 1147 m 234 1143 l 234 1143 l 234 1139 l 242 1139 q 254 1143 250 1143 l 254 1147 l 246 1147 q 234 1143 238 1143 m 283 1143 l 283 1143 l 279 1122 q 291 1143 288 1122 l 283 1143 m 450 1122 l 450 1122 l 450 1118 l 454 1118 q 555 1139 541 1139 l 555 1143 l 543 1143 q 450 1122 496 1135 m 230 1126 l 230 1126 l 230 1118 q 242 1110 242 1118 l 246 1110 l 250 1131 q 230 1126 243 1126 m 258 1131 l 258 1131 l 258 1131 q 254 1114 258 1122 l 258 1114 l 262 1122 l 262 1131 l 258 1131 m 523 1102 l 523 1102 l 523 1098 l 535 1098 q 661 1118 585 1102 l 661 1122 l 649 1122 l 523 1102 m 295 1102 l 295 1102 l 295 1098 l 303 1098 q 311 1106 311 1098 l 311 1110 l 303 1110 q 295 1102 295 1109 m 275 1106 l 275 1106 l 271 1090 q 279 1102 279 1090 l 279 1106 l 275 1106 m 250 1098 l 250 1098 l 250 1090 l 254 1090 l 254 1098 l 250 1098 m 507 1098 l 507 1098 l 507 1094 l 519 1094 l 519 1098 l 507 1098 m 230 1086 l 230 1086 l 230 1082 l 238 1082 l 238 1094 q 230 1086 230 1093 m 376 1086 l 376 1086 l 376 1082 l 385 1082 l 385 1086 l 376 1086 m 360 1045 l 360 1045 l 364 1045 q 535 1082 493 1082 l 535 1086 l 523 1086 q 360 1049 360 1065 l 360 1045 m 287 1082 l 287 1082 l 287 1074 l 295 1074 q 287 1082 295 1082 m 352 1074 l 352 1074 l 360 1074 l 360 1082 q 352 1074 352 1080 m 267 1078 l 267 1078 l 267 1069 l 271 1069 l 271 1078 l 267 1078 m 132 1078 l 132 1078 l 144 1078 l 144 1074 q 136 1065 144 1065 l 132 1074 l 132 1078 m 226 1069 l 226 1069 l 226 1069 q 222 1053 226 1061 l 230 1053 q 234 1069 234 1067 l 226 1069 m 283 1061 l 283 1061 l 283 1061 q 279 1049 283 1057 q 295 1061 295 1055 l 283 1061 m 181 1053 l 181 1053 l 181 1045 l 193 1045 l 193 1057 q 181 1053 185 1053 m 348 1053 l 348 1053 l 348 1041 l 352 1041 l 352 1053 l 348 1053 m 104 1045 l 104 1045 l 108 1045 l 108 1033 l 96 1033 l 96 1037 q 104 1045 97 1045 m 181 1025 l 181 1025 l 181 1021 l 185 1021 q 189 1037 189 1035 q 181 1025 181 1037 m 340 1021 l 340 1021 l 340 1013 l 344 1013 l 344 1021 l 340 1021 m 169 984 l 169 984 l 169 984 q 181 1013 177 984 q 169 984 172 1013 m 271 996 l 271 996 l 271 988 q 279 996 279 988 l 279 1004 q 271 996 271 1003 m 319 911 l 319 911 l 319 899 l 323 899 q 340 1000 323 914 q 319 911 329 1000 m 267 980 l 267 980 l 267 980 q 250 903 250 907 l 250 895 l 254 895 l 271 976 l 271 980 l 267 980 m 193 976 l 193 976 l 193 976 q 181 915 193 966 l 181 907 l 185 907 q 197 968 185 917 l 197 976 l 193 976 m 140 866 l 140 866 l 140 862 l 144 862 l 169 972 q 140 866 159 972 m 177 903 l 177 903 l 177 890 l 181 890 l 181 903 l 177 903 m 246 890 l 246 890 l 246 874 l 250 874 l 250 890 l 246 890 m 173 882 l 173 882 l 173 866 l 177 866 l 177 882 l 173 882 m 315 882 l 315 882 l 315 870 l 319 870 l 319 882 l 315 882 m 311 866 l 311 866 l 311 866 q 307 833 311 856 l 307 821 l 311 821 q 315 858 311 836 l 315 866 l 311 866 m 303 817 l 303 817 l 303 797 l 307 797 l 307 817 l 303 817 m 144 797 l 144 797 l 144 781 l 149 781 l 149 797 l 144 797 m 299 793 l 299 793 l 299 772 l 303 772 l 303 793 l 299 793 m 128 777 l 128 777 l 112 642 l 120 642 q 132 768 120 654 l 132 777 l 128 777 m 140 772 l 140 772 l 140 772 q 132 671 140 757 l 132 650 l 136 650 q 144 760 136 679 l 144 772 l 140 772 m 295 764 l 295 764 l 295 744 l 299 744 l 299 764 l 295 764 m 246 691 l 246 691 l 254 691 q 262 756 254 709 q 246 691 254 756 m 238 752 l 238 752 l 238 740 l 242 740 l 242 752 l 238 752 m 214 740 l 214 740 l 214 740 q 210 695 214 718 l 210 683 l 214 683 l 218 724 l 218 740 l 214 740 m 234 736 l 234 736 l 234 736 q 230 707 234 724 l 230 703 l 234 703 l 238 724 l 238 736 l 234 736 m 291 736 l 291 736 l 291 715 l 295 715 l 295 736 l 291 736 m 564 724 l 564 724 l 584 724 q 576 715 584 715 l 564 715 l 564 724 m 596 720 l 596 720 l 608 720 l 608 711 l 596 711 l 596 720 m 287 707 l 287 707 l 287 699 l 291 699 l 291 707 l 287 707 m 246 679 l 246 679 l 246 671 l 250 671 l 250 679 l 246 679 m 307 679 l 307 679 l 307 675 l 319 675 l 319 679 l 307 679 m 295 675 l 295 675 l 295 671 l 303 671 l 303 675 l 295 675 m 576 675 l 576 675 l 580 675 q 588 667 588 673 l 588 663 l 584 663 q 576 671 576 663 l 576 675 m 112 630 l 112 630 l 112 622 q 120 630 120 622 l 112 630 m 108 589 l 108 589 l 112 589 q 120 597 120 589 l 120 602 q 108 589 114 602 m 169 581 l 169 581 l 169 569 l 173 569 l 173 581 l 169 581 m 108 549 l 108 549 l 108 545 l 116 545 l 116 557 q 108 549 108 555 m 165 557 l 165 557 l 165 549 l 169 549 l 169 557 l 165 557 m 267 557 l 267 557 l 267 549 l 271 549 l 271 557 l 267 557 m 234 549 l 234 549 l 234 536 l 238 536 l 238 549 l 234 549 m 104 524 l 104 524 l 104 524 q 116 528 111 528 l 116 536 q 104 524 110 536 m 262 532 l 262 532 l 262 500 l 267 500 l 267 532 l 262 532 m 92 528 l 92 528 l 92 520 l 96 520 l 96 528 l 92 528 m 165 524 l 165 524 l 161 516 l 161 512 l 165 512 q 169 524 165 516 l 165 524 m 149 520 l 149 520 l 149 508 l 153 508 l 153 520 l 149 520 m 104 508 l 104 508 l 104 488 q 116 492 111 492 l 116 516 l 112 516 q 104 508 104 515 m -2 512 l -2 512 l -2 508 q -14 492 -14 498 l -26 492 l -26 496 q -2 512 -18 512 m 258 496 l 258 496 l 258 467 l 262 467 l 262 496 l 258 496 m 144 484 l 144 484 l 140 447 l 140 378 l 144 378 q 149 475 144 444 l 149 484 l 144 484 m 218 463 l 218 463 l 218 422 l 222 422 l 222 463 l 218 463 m 254 459 l 254 459 l 254 427 l 258 427 l 258 459 l 254 459 m 128 451 l 128 451 l 128 439 l 132 439 l 132 451 l 128 451 m 250 418 l 250 418 l 250 378 l 254 378 l 254 418 l 250 418 m 173 398 l 173 398 l 173 398 q 169 361 173 364 l 177 361 l 177 398 l 173 398 m 234 361 l 234 361 l 234 361 q 230 329 234 358 l 230 256 l 234 256 q 238 357 234 333 l 238 361 l 234 361 m 185 357 l 185 357 l 185 313 q 181 309 181 313 l 185 309 l 181 300 l 181 186 l 189 186 l 189 199 q 193 309 189 252 q 189 357 189 330 l 185 357 m 136 333 l 136 333 l 136 292 l 140 292 l 140 333 l 136 333 m 128 256 l 128 256 l 128 248 q 132 195 132 221 l 132 178 l 144 178 l 144 186 q 132 256 144 200 l 128 256 m 226 252 l 226 252 l 226 174 l 230 174 l 230 252 l 226 252 m 132 81 l 132 81 l 140 81 l 140 77 q 144 32 144 41 l 136 32 l 132 52 l 132 81 m 181 12 l 181 12 l 189 12 l 189 -5 l 181 -5 l 181 12 m 185 -74 l 185 -74 l 197 -74 l 197 -82 l 185 -82 l 185 -74 m 283 -245 l 283 -245 l 291 -245 l 291 -269 l 283 -269 l 283 -245 z "},"G":{"ha":766,"x_min":-15,"x_max":840,"o":"m 547 1267 l 547 1267 l 555 1267 q 750 1194 665 1267 l 750 1190 l 742 1190 q 555 1259 650 1259 q 412 1230 503 1259 l 412 1226 l 498 1246 l 502 1238 q 555 1246 508 1242 q 815 1059 742 1246 q 823 1010 823 1018 l 815 1006 q 738 1169 815 1082 q 681 1206 688 1205 l 681 1202 q 774 1104 736 1170 q 807 933 807 1029 l 807 925 q 799 917 807 917 l 795 925 l 795 962 q 689 1157 795 1100 l 689 1153 q 726 1116 726 1122 q 758 1072 726 1111 l 758 1063 l 754 1063 l 730 1088 l 730 1084 q 766 982 766 1013 l 754 982 q 595 1153 726 1153 l 571 1153 l 571 1149 q 669 1112 633 1149 l 656 1112 q 709 1051 696 1079 l 709 1047 l 697 1047 q 563 1128 656 1128 q 311 990 427 1128 l 311 986 l 315 986 q 404 1072 389 1067 l 408 1072 l 408 1067 l 404 1059 q 563 1112 503 1112 l 575 1112 q 656 1088 637 1112 q 652 1084 652 1088 q 563 1104 611 1104 l 559 1104 l 538 1100 l 538 1096 q 632 1067 583 1096 q 636 1072 632 1072 l 636 1063 q 628 1055 636 1055 q 530 1088 587 1088 q 258 827 381 1088 q 201 563 201 696 l 201 543 q 221 441 201 506 l 225 441 l 225 445 q 217 551 217 498 l 217 555 q 258 799 217 668 l 270 799 l 270 795 q 225 555 225 666 q 258 376 239 376 q 388 286 324 286 l 388 278 l 380 278 q 258 355 328 278 q 327 274 284 274 q 404 262 343 262 q 506 307 506 262 q 538 502 506 342 q 522 506 530 502 q 323 477 407 477 l 323 481 q 331 490 324 490 q 335 486 335 490 l 343 490 l 351 490 q 449 498 373 490 l 449 502 l 388 502 q 363 510 377 502 q 286 506 319 506 l 274 506 l 274 518 l 302 518 q 392 522 331 518 l 392 526 l 376 530 l 380 538 q 343 567 343 538 l 351 567 q 363 563 363 567 q 425 571 415 571 l 425 575 l 400 575 l 380 571 l 376 579 q 400 583 382 583 l 400 587 l 396 587 l 355 583 q 270 600 270 587 l 278 604 q 327 595 307 595 l 351 595 q 612 644 463 595 l 612 648 l 608 648 q 368 604 437 604 l 355 604 q 347 612 347 604 l 347 616 l 372 616 q 559 648 409 616 l 559 652 l 551 652 q 380 632 430 632 q 335 636 344 636 l 335 640 l 339 648 l 359 644 l 400 644 q 783 730 576 673 q 791 738 784 738 l 795 738 q 803 730 803 736 q 774 722 791 722 l 774 718 l 791 718 l 811 730 l 819 730 l 819 705 q 754 669 809 705 l 746 669 l 746 665 l 750 656 q 823 685 804 685 l 823 681 q 754 648 774 648 l 754 644 l 758 636 l 766 640 l 774 640 l 774 636 q 722 612 774 628 l 718 604 l 726 604 q 811 648 787 632 l 815 640 q 713 587 794 622 l 713 583 l 722 583 q 787 612 774 612 l 787 604 q 774 591 787 597 l 766 595 q 709 555 709 572 q 689 392 689 456 q 693 388 693 392 l 681 363 l 681 359 l 685 359 q 730 433 730 426 l 742 433 l 742 429 l 701 368 l 701 363 l 709 368 l 718 368 l 718 363 l 681 323 l 685 323 q 677 302 677 310 l 681 302 l 705 323 l 709 323 l 709 319 l 677 278 l 677 229 l 681 209 q 669 205 673 205 l 669 168 q 681 14 669 102 l 669 14 q 656 107 669 57 l 644 107 l 644 103 q 661 9 652 9 l 652 5 q 632 115 642 5 q 620 132 620 115 l 616 132 l 616 119 q 640 -84 616 54 l 632 -84 q 600 144 616 -18 l 595 144 l 595 136 q 604 -19 595 109 l 595 -19 l 591 1 l 591 22 q 579 30 579 22 l 575 30 l 575 18 q 604 -218 575 -112 l 600 -218 q 567 -19 576 -209 q 551 22 556 -19 l 551 119 l 543 119 q 538 75 538 83 q 543 71 538 71 l 538 50 l 538 18 q 555 -104 538 -28 l 547 -104 l 547 -92 l 543 -92 l 543 -104 q 563 -198 553 -198 l 563 -202 l 551 -202 q 518 107 532 -146 q 502 95 502 101 l 502 42 q 514 -84 502 -45 l 510 -84 q 490 91 490 -84 q 494 95 494 91 l 490 95 q 376 75 435 75 l 368 75 q 237 95 336 75 q 127 140 167 107 l 127 148 q 136 156 129 156 q 225 107 136 130 l 229 107 l 229 111 q 91 237 167 134 q 34 315 84 254 q -15 453 -15 396 l -15 457 l -7 457 q 62 294 -7 388 q 9 559 9 412 q 14 628 14 614 l 5 624 l 1 624 l 1 628 q 42 827 20 827 l 46 827 q 14 661 14 714 l 14 636 l 18 636 q 164 1035 18 798 q 286 1165 214 1099 q 115 1010 212 1133 q 54 876 66 932 l 46 876 q 168 1092 46 949 q 453 1255 288 1192 q 547 1267 510 1267 m 579 1234 l 579 1234 l 579 1230 l 595 1230 l 595 1234 l 579 1234 m 311 1120 l 311 1120 l 311 1120 q 473 1210 444 1210 l 473 1206 q 522 1222 515 1222 l 522 1226 l 518 1226 q 355 1165 414 1209 q 311 1120 311 1124 m 156 1002 l 156 1002 l 160 1002 q 359 1190 222 1104 q 412 1218 412 1210 q 298 1157 321 1190 q 172 1027 239 1120 l 156 1002 m 543 1214 l 543 1214 l 543 1210 l 555 1210 l 563 1214 q 579 1210 570 1210 l 583 1210 l 583 1218 l 563 1218 l 543 1214 m 595 1214 l 595 1214 l 595 1210 l 604 1210 l 604 1214 l 595 1214 m 644 1210 l 644 1210 l 644 1206 q 718 1161 667 1200 l 718 1165 q 648 1210 675 1200 l 644 1210 m 579 1190 l 579 1190 l 579 1185 q 624 1177 608 1185 l 628 1177 l 628 1181 q 591 1190 597 1190 l 579 1190 m 640 1190 l 640 1190 l 640 1185 l 648 1185 l 648 1190 l 640 1190 m 473 1185 l 473 1185 l 469 1177 q 486 1181 477 1181 l 486 1185 l 473 1185 m 551 1177 l 551 1177 l 551 1173 l 587 1173 l 587 1177 l 551 1177 m 648 1169 l 648 1169 l 648 1165 q 677 1149 659 1165 l 681 1149 l 681 1153 q 652 1169 676 1153 l 648 1169 m 429 1165 l 429 1165 l 425 1157 l 429 1157 l 433 1165 l 429 1165 m 363 1120 l 363 1120 l 363 1120 q 420 1157 420 1152 q 363 1120 376 1135 m 481 1128 l 481 1128 l 481 1124 l 486 1124 q 567 1137 528 1137 q 652 1112 612 1135 l 652 1116 q 567 1141 610 1141 l 555 1141 q 481 1128 528 1141 m 274 1120 l 274 1120 l 241 1088 l 245 1088 l 278 1120 l 274 1120 m 355 1120 l 355 1120 l 351 1112 l 355 1112 l 359 1120 l 355 1120 m 363 1063 l 363 1063 l 368 1063 q 441 1120 368 1069 q 363 1063 389 1097 m 270 1096 l 270 1096 l 282 1096 q 290 1104 290 1096 l 290 1112 q 270 1096 271 1101 m 343 1112 l 343 1112 l 339 1104 l 343 1104 l 347 1112 l 343 1112 m 351 1104 l 351 1104 l 351 1104 q 302 1059 303 1065 l 307 1059 q 355 1104 355 1101 l 351 1104 m 229 1039 l 229 1039 l 233 1039 q 274 1088 233 1042 q 229 1039 254 1080 m 221 1059 l 221 1059 l 221 1059 q 160 962 174 1013 l 164 962 q 225 1059 187 1009 l 221 1059 m 209 742 l 209 742 l 209 734 l 213 734 q 278 913 218 801 l 282 913 l 282 905 l 286 905 q 396 1043 304 951 q 258 892 343 1011 q 209 742 209 774 m 282 1031 l 282 1031 l 274 1019 l 278 1019 q 286 1031 286 1029 l 282 1031 m 250 1006 l 250 1006 l 241 990 l 245 990 l 254 1006 l 250 1006 m 221 1002 l 221 1002 l 221 1002 q 152 868 180 942 l 160 868 q 225 1002 160 892 l 221 1002 m 156 986 l 156 986 l 156 986 q 140 945 140 964 q 144 933 144 945 l 148 933 q 160 986 148 963 l 156 986 m 266 978 l 266 978 l 258 966 l 262 966 l 270 978 l 266 978 m 831 970 l 831 970 l 836 970 l 840 949 q 836 925 836 928 l 831 925 l 823 929 l 827 937 l 827 958 l 823 966 l 831 970 m 132 937 l 132 937 l 132 937 q 79 811 79 842 l 79 807 l 83 807 q 140 929 94 857 q 132 937 140 937 m 762 941 l 762 941 l 766 941 q 774 933 774 940 l 774 929 l 762 929 l 762 941 m 132 905 l 132 905 l 132 905 q 75 754 87 804 l 75 750 l 79 750 q 136 901 79 769 l 136 905 l 132 905 m 209 905 l 209 905 l 201 888 l 201 884 l 205 884 q 213 905 205 892 l 209 905 m 140 884 l 140 884 l 140 884 q 127 852 140 880 l 132 852 l 144 880 l 144 884 l 140 884 m 795 880 l 795 880 l 803 880 l 803 868 l 791 868 q 795 880 795 876 m 193 872 l 193 872 l 193 872 q 184 852 193 865 l 189 852 l 197 868 l 197 872 l 193 872 m 831 868 l 831 868 l 836 868 l 836 856 l 823 856 l 823 860 q 831 868 825 868 m 95 783 l 95 783 l 95 783 q 79 726 95 772 l 79 722 l 83 722 q 99 779 83 724 l 99 783 l 95 783 m 201 779 l 201 779 l 197 754 l 197 746 l 201 746 l 205 770 l 205 779 l 201 779 m 46 758 l 46 758 l 46 750 l 50 750 l 50 758 l 46 758 m 71 746 l 71 746 l 71 734 l 75 734 l 75 746 l 71 746 m 42 742 l 42 742 l 42 742 q 22 563 22 633 l 22 534 q 95 254 22 381 q 189 180 149 205 l 193 180 q 79 331 124 243 q 34 555 34 416 l 34 583 q 46 734 34 667 l 46 742 l 42 742 m 54 742 l 54 742 l 54 742 q 50 701 54 722 l 50 689 l 54 689 q 58 726 54 704 l 58 742 l 54 742 m 193 742 l 193 742 l 193 730 l 197 730 l 197 742 l 193 742 m 205 730 l 205 730 l 205 722 l 209 722 l 209 730 l 205 730 m 758 718 l 758 718 l 754 709 l 758 709 q 770 713 766 713 l 770 718 l 758 718 m 799 713 l 799 713 l 799 709 l 803 709 q 815 713 811 713 l 815 718 l 811 718 q 799 713 804 713 m 787 709 l 787 709 l 787 705 l 795 705 l 795 709 l 787 709 m 774 705 l 774 705 l 774 701 l 783 701 l 783 705 l 774 705 m 709 677 l 709 677 l 713 677 q 770 697 762 697 l 770 701 l 766 701 q 709 677 709 684 m 71 693 l 71 693 l 71 681 l 75 681 l 75 693 l 71 693 m 103 689 l 103 689 l 103 673 l 107 673 l 107 689 l 103 689 m 66 677 l 66 677 l 66 661 l 71 661 l 71 677 l 66 677 m 669 669 l 669 669 l 669 665 l 673 665 q 697 677 697 669 l 693 677 q 669 669 677 669 m 99 669 l 99 669 l 99 652 l 103 652 l 103 669 l 99 669 m 628 648 l 628 648 l 632 648 q 644 652 640 652 l 644 661 q 628 648 628 654 m 58 612 l 58 612 l 58 604 l 62 604 l 62 612 l 58 612 m 620 612 l 620 612 l 620 608 l 628 608 l 628 612 l 620 612 m 579 600 l 579 600 l 579 591 l 587 591 l 587 600 l 579 600 m 567 595 l 567 595 l 567 587 l 571 587 l 571 595 l 567 595 m 412 591 l 412 591 l 412 583 q 433 587 419 587 l 433 591 l 412 591 m 355 555 l 355 555 l 355 551 l 412 551 q 465 555 463 555 l 465 567 l 481 567 q 555 587 555 575 l 555 591 q 355 555 425 555 m 656 575 l 656 575 l 661 575 q 677 591 673 578 l 673 591 q 656 575 660 587 m 604 555 l 604 555 l 608 555 q 616 563 616 555 l 612 563 q 604 555 604 562 m 689 559 l 689 559 l 689 559 q 665 372 665 438 l 665 359 l 669 359 q 697 559 677 473 l 689 559 m 652 543 l 652 543 l 652 530 l 648 506 l 648 502 l 652 502 q 661 543 661 539 l 652 543 m 486 526 l 486 526 l 477 530 q 388 514 450 522 l 388 510 l 404 510 q 547 534 464 510 l 547 538 q 486 526 499 526 m 144 534 l 144 534 l 144 526 q 148 469 148 501 l 152 469 q 156 481 152 473 q 148 534 148 524 l 144 534 m 453 506 l 453 506 l 453 502 l 465 502 l 465 506 l 453 506 m 652 473 l 652 473 l 652 461 l 656 461 l 656 473 l 652 473 m 71 469 l 71 469 l 71 465 l 91 396 l 95 396 q 75 469 87 448 l 71 469 m 648 457 l 648 457 l 636 368 l 636 351 l 640 351 q 652 445 640 376 l 652 457 l 648 457 m 99 449 l 99 449 l 99 437 l 111 384 l 115 384 l 115 392 q 103 449 103 437 l 99 449 m 197 449 l 197 449 l 197 437 l 201 437 l 201 449 l 197 449 m 209 441 l 209 441 l 209 441 q 262 311 239 331 l 266 311 l 213 441 l 209 441 m 164 433 l 164 433 l 164 420 l 168 420 l 168 433 l 164 433 m 189 429 l 189 429 l 189 416 q 229 319 210 319 l 229 323 q 193 429 213 352 l 189 429 m 71 416 l 71 416 l 71 412 q 132 274 81 351 q 75 416 91 365 l 71 416 m 168 416 l 168 416 l 168 404 l 172 404 l 172 416 l 168 416 m 583 404 l 583 404 l 583 368 l 587 368 l 587 404 l 583 404 m 555 396 l 555 396 l 555 396 q 551 343 555 378 l 551 319 l 555 319 q 559 384 555 352 l 559 396 l 555 396 m 111 363 l 111 363 l 111 359 q 282 156 169 222 l 282 160 q 123 339 176 241 l 115 363 l 111 363 m 604 359 l 604 359 l 604 347 l 608 347 l 608 359 l 604 359 m 616 347 l 616 347 l 616 311 l 620 311 l 620 347 l 616 347 m 600 327 l 600 327 l 600 327 q 595 294 600 317 q 604 307 604 294 l 604 327 l 600 327 m 237 323 l 237 323 l 237 323 q 262 286 253 288 q 237 323 243 323 m 514 315 l 514 315 l 514 290 l 518 290 l 518 315 l 514 315 m 213 311 l 213 311 l 213 307 l 221 302 l 221 307 l 213 311 m 278 282 l 278 282 l 278 278 l 286 274 l 286 278 l 278 282 m 258 278 l 258 278 l 258 274 l 290 250 l 294 250 q 258 278 290 260 m 547 278 l 547 278 l 547 266 l 551 266 l 551 278 l 547 278 m 510 274 l 510 274 l 510 266 q 518 274 518 266 l 510 274 m 302 270 l 302 270 l 302 270 q 343 254 302 261 l 355 254 l 355 258 q 302 270 338 258 m 445 250 l 445 250 l 445 245 l 465 245 q 502 258 470 245 l 502 266 l 445 250 m 148 262 l 148 262 l 148 262 q 197 197 168 218 l 197 201 l 148 262 m 514 258 l 514 258 l 510 250 l 514 250 l 518 258 l 514 258 m 258 254 l 258 254 l 258 250 q 307 217 264 243 l 319 217 l 319 221 q 258 254 304 221 m 359 254 l 359 254 l 359 250 l 380 250 l 380 254 l 359 254 m 237 245 l 237 245 l 237 241 l 250 233 l 250 237 l 237 245 m 547 245 l 547 245 l 547 237 l 551 237 l 551 245 l 547 245 m 209 241 l 209 241 l 209 237 l 250 201 q 209 241 250 209 m 327 241 l 327 241 l 327 241 q 400 225 327 228 q 445 233 410 225 l 445 237 l 355 237 l 327 241 m 640 241 l 640 241 l 640 241 q 632 233 640 233 l 632 213 q 644 225 638 213 l 644 241 l 640 241 m 506 221 l 506 221 l 506 217 l 514 217 q 518 229 514 221 l 514 229 q 506 221 506 228 m 258 225 l 258 225 l 258 221 l 266 217 l 266 221 l 258 225 m 115 221 l 115 221 l 115 217 q 278 103 219 103 l 290 103 q 250 132 290 121 q 127 209 245 138 q 115 221 127 215 m 612 213 l 612 213 l 612 193 l 616 193 l 616 213 l 612 213 m 465 201 l 465 201 l 473 201 q 486 205 481 205 l 486 209 l 473 209 q 465 201 465 208 m 640 209 l 640 209 l 636 193 q 648 205 642 193 l 648 209 l 640 209 m 335 205 l 335 205 l 335 201 l 359 201 l 359 205 l 335 205 m 433 205 l 433 205 l 433 201 l 441 201 l 441 205 l 433 205 m 209 197 l 209 197 l 209 193 q 237 172 233 172 l 237 176 l 209 197 m 368 193 l 368 193 l 368 193 q 376 184 369 184 l 396 184 l 396 189 l 368 193 m 547 189 l 547 189 l 547 176 l 551 176 l 551 189 l 547 189 m 636 176 l 636 176 l 636 176 q 652 115 636 115 l 648 156 l 648 184 l 644 184 q 636 176 636 183 m 526 168 l 526 168 l 534 168 l 534 176 q 526 168 526 175 m 286 172 l 286 172 l 286 168 q 302 160 293 168 l 307 160 q 290 172 307 166 l 286 172 m 429 172 l 429 172 l 429 168 l 449 168 l 449 172 l 429 172 m 506 172 l 506 172 l 506 156 q 514 164 514 156 l 514 172 l 506 172 m 481 164 l 481 164 l 481 164 q 486 152 486 156 l 494 152 l 494 168 q 481 164 486 164 m 233 164 l 233 164 l 233 160 l 241 156 l 245 156 l 245 160 q 233 164 241 160 m 559 164 l 559 164 l 559 152 l 563 152 l 563 164 l 559 164 m 323 160 l 323 160 l 323 156 q 339 148 333 148 l 343 148 l 343 152 q 323 160 336 152 m 616 160 l 616 160 l 616 136 l 620 136 l 620 160 l 616 160 m 355 156 l 355 156 l 355 156 q 368 148 355 148 l 372 148 l 372 152 q 355 156 357 156 m 433 148 l 433 148 l 433 144 l 437 144 q 473 148 452 148 l 473 152 l 445 152 q 433 148 437 148 m 457 132 l 457 132 l 457 132 q 425 136 454 132 q 412 132 420 136 l 388 136 l 351 136 l 351 132 q 388 127 368 127 l 388 132 l 396 132 l 396 119 l 425 119 q 494 140 441 119 l 494 144 l 490 144 q 457 132 463 132 m 266 140 l 266 140 l 266 136 q 331 115 314 115 l 339 115 l 339 119 q 266 140 311 123 m 319 140 l 319 140 l 319 136 l 327 132 l 331 132 l 331 136 q 319 140 327 136 m 502 136 l 502 136 l 502 123 l 506 123 q 518 127 514 127 l 518 140 l 514 140 q 502 136 507 136 m 579 140 l 579 140 l 579 87 q 591 34 579 34 l 587 54 l 587 140 l 579 140 m 433 111 l 433 111 l 433 107 l 441 107 l 494 119 l 494 127 q 433 111 441 111 m 559 127 l 559 127 l 559 22 l 563 1 l 567 1 q 563 34 563 31 l 563 127 l 559 127 m 363 115 l 363 115 l 363 111 l 372 111 l 372 115 l 363 115 m 302 111 l 302 111 l 302 107 l 311 107 l 311 111 l 302 111 m 319 107 l 319 107 l 319 103 l 331 103 l 331 107 l 319 107 m 469 103 l 469 103 l 469 99 l 477 99 l 477 103 l 469 103 m 453 99 l 453 99 l 453 95 l 465 95 l 465 99 l 453 99 m 433 95 l 433 95 l 433 91 l 445 91 l 445 95 l 433 95 m 319 91 l 319 91 l 319 87 q 372 83 370 83 l 392 83 l 392 87 q 343 91 350 91 l 319 91 m 400 91 l 400 91 l 400 87 l 429 87 l 429 91 l 400 91 m 656 -35 l 656 -35 l 669 -35 l 669 -39 q 665 -43 669 -43 q 673 -92 668 -50 q 656 -43 656 -92 l 656 -35 m 632 -129 l 632 -129 l 644 -129 l 644 -157 l 636 -157 l 632 -137 l 632 -129 m 600 -271 l 600 -271 l 604 -271 q 616 -308 614 -271 l 608 -308 q 600 -271 600 -281 z "},"H":{"ha":639,"x_min":-73,"x_max":704,"o":"m 305 1584 l 305 1584 l 309 1584 l 309 1580 q 167 1128 213 1392 q 130 978 142 1086 l 138 978 q 203 1271 191 1237 q 220 1303 220 1271 q 236 1356 224 1303 l 240 1356 l 248 1352 q 285 1466 271 1456 l 289 1466 l 289 1462 q 228 1230 264 1388 l 228 1222 l 232 1222 q 248 1259 232 1259 l 248 1279 q 256 1320 256 1308 l 269 1320 q 224 1084 224 1092 l 224 1076 l 228 1076 l 264 1251 l 269 1251 q 273 1246 269 1246 l 256 1165 l 264 1165 l 285 1242 l 297 1242 q 256 1096 273 1164 q 269 1076 265 1096 q 240 925 256 1061 l 240 913 l 244 913 q 277 1100 260 1046 l 285 1100 l 285 1096 q 273 1031 285 1086 l 285 1031 q 256 823 256 833 l 256 803 l 260 803 q 269 897 260 824 l 273 897 l 281 892 q 264 750 273 871 q 423 779 423 770 q 456 905 442 905 q 488 1015 463 924 l 492 1015 q 496 1010 492 1010 q 521 1080 511 1080 l 525 1072 q 505 998 512 1044 l 505 994 l 509 994 q 529 1039 529 1023 l 541 1039 l 521 974 l 525 974 q 562 1088 541 974 l 574 1088 q 533 905 533 928 l 541 909 q 545 905 541 905 l 582 1108 l 586 1108 l 594 1104 l 574 1006 l 574 1002 l 578 1002 q 586 1015 578 1015 l 586 1010 q 574 949 586 993 l 578 949 q 623 1076 606 1076 l 623 1072 q 590 958 602 1011 l 594 958 q 582 864 587 943 l 582 860 l 586 860 q 614 994 586 871 l 623 994 l 602 892 l 610 892 q 594 799 594 805 q 655 803 634 803 q 590 787 655 792 l 590 766 l 655 766 l 655 762 l 696 762 l 696 754 l 680 742 l 667 742 l 667 738 q 675 730 668 730 l 704 734 l 704 722 q 692 718 692 722 l 684 722 q 582 685 631 685 l 582 677 l 610 681 q 623 669 610 669 l 623 661 q 578 648 578 656 l 578 644 q 562 355 562 390 q 566 343 566 347 l 557 339 q 553 351 553 347 q 557 486 553 376 l 549 486 l 549 477 q 537 307 549 458 l 537 294 l 533 294 l 525 298 q 533 425 533 404 l 533 433 l 529 433 q 521 307 521 353 q 513 298 513 305 l 513 270 l 521 274 l 525 274 l 525 262 q 513 258 513 262 q 509 115 513 221 q 513 111 513 115 l 500 111 l 500 189 q 488 221 488 189 q 492 270 492 250 l 484 266 l 480 266 l 476 286 q 480 408 480 358 q 484 412 480 412 q 480 433 480 419 l 476 433 q 472 290 472 337 l 472 213 l 468 213 q 460 221 460 213 l 460 302 l 452 302 l 452 355 q 448 359 452 359 q 452 372 452 368 l 452 449 l 448 449 q 444 286 444 347 l 444 266 l 448 225 l 444 225 q 435 237 435 225 q 431 319 435 249 q 435 323 435 319 l 427 327 l 423 327 l 423 302 l 427 294 l 419 290 q 411 331 414 297 l 407 331 l 407 323 q 415 258 407 311 l 411 258 q 399 302 399 258 q 403 441 399 362 q 399 498 399 492 q 403 608 403 547 l 407 628 q 252 600 273 608 q 248 567 248 577 q 244 376 248 474 q 252 148 248 207 l 244 148 q 228 189 244 161 q 212 213 228 195 q 203 315 212 252 l 199 315 l 199 245 q 203 184 199 225 q 191 213 191 187 l 183 213 l 183 209 l 195 14 l 187 9 l 183 18 l 183 26 q 171 229 183 68 q 155 282 154 229 l 151 282 l 151 250 q 159 197 151 233 l 151 193 l 146 193 q 122 262 146 243 l 118 298 l 110 298 l 110 262 q 118 197 110 214 l 110 193 q 102 225 102 208 l 102 323 l 98 323 l 98 311 l 90 311 l 90 319 l 85 319 l 85 307 q 106 99 85 212 l 94 99 q 69 514 77 173 q 73 575 73 532 q 65 567 65 574 l 65 473 l 69 453 l 61 449 l 57 457 l 57 571 l -37 559 l -37 567 q 24 579 24 576 q 20 591 20 587 l 57 591 l 57 608 l -65 587 l -69 595 l -69 600 q 61 624 61 613 q 45 628 54 628 l 45 632 l 49 640 l 0 632 l 0 644 q 61 648 40 648 l 61 656 q -24 644 7 652 l -28 652 l -28 656 q 61 665 44 665 l 61 669 q 45 677 44 669 l 16 673 l 12 681 q 49 693 35 686 l 45 701 l 45 705 q 65 713 64 705 q 16 705 26 705 l 12 713 q 69 734 69 719 q 102 974 90 974 l 106 974 q 77 726 81 783 l 85 726 l 85 730 q 159 1177 85 871 q 297 1580 219 1418 l 305 1584 m 370 1385 l 370 1385 l 374 1377 l 374 1373 l 362 1373 l 362 1377 q 370 1385 363 1385 m 313 1381 l 313 1381 l 317 1373 q 305 1364 307 1364 l 301 1373 q 313 1381 302 1373 m 240 1340 l 240 1340 l 240 1332 l 244 1332 l 244 1340 l 240 1340 m 269 1344 l 269 1344 l 273 1344 l 273 1340 q 264 1332 273 1332 l 260 1332 l 260 1336 q 269 1344 261 1344 m 236 1328 l 236 1328 l 236 1316 l 240 1316 l 240 1328 l 236 1328 m 358 1328 l 358 1328 l 358 1328 q 362 1324 358 1324 q 342 1275 349 1300 q 346 1271 346 1275 l 338 1267 q 334 1279 334 1275 q 358 1328 334 1299 m 232 1312 l 232 1312 l 232 1299 l 236 1299 l 236 1312 l 232 1312 m 289 1316 l 289 1316 l 293 1316 l 293 1312 q 277 1275 284 1275 l 273 1283 q 289 1316 282 1316 m 228 1295 l 228 1295 l 228 1295 q 191 1108 195 1152 l 191 1104 l 195 1104 q 232 1287 203 1165 l 232 1295 l 228 1295 m 208 1259 l 208 1259 l 208 1251 l 212 1251 l 212 1259 l 208 1259 m 203 1246 l 203 1246 l 203 1234 l 208 1234 l 208 1246 l 203 1246 m 321 1242 l 321 1242 l 326 1242 q 334 1234 334 1241 l 321 1234 l 321 1242 m 610 1238 l 610 1238 l 618 1238 l 618 1234 q 610 1226 618 1226 l 610 1238 m 199 1230 l 199 1230 l 199 1218 l 203 1218 l 203 1230 l 199 1230 m 224 1218 l 224 1218 l 224 1210 l 228 1210 l 228 1218 l 224 1218 m 590 1198 l 590 1198 l 602 1198 q 578 1116 584 1116 l 574 1124 q 590 1198 590 1192 m 301 1181 l 301 1181 l 313 1181 l 313 1177 q 293 1133 300 1133 l 289 1141 l 301 1181 m 594 1145 l 594 1145 l 606 1145 l 606 1137 l 594 1137 l 594 1145 m 179 1076 l 179 1076 l 179 1076 q 163 1006 179 1063 l 163 1002 l 167 1002 q 179 1027 167 1010 l 187 1076 l 179 1076 m 102 1055 l 102 1055 l 114 1055 q 102 1027 109 1027 q 98 1039 102 1031 q 102 1055 102 1046 m 269 1023 l 269 1023 l 269 998 l 273 998 l 273 1023 l 269 1023 m 264 990 l 264 990 l 264 974 l 269 974 l 269 990 l 264 990 m 134 974 l 134 974 l 134 974 q 118 901 118 924 l 118 892 l 122 892 q 138 970 138 961 l 138 974 l 134 974 m 509 974 l 509 974 l 509 966 l 513 966 l 513 974 l 509 974 m 260 966 l 260 966 l 260 945 l 264 945 l 264 966 l 260 966 m 505 962 l 505 962 l 484 836 q 505 945 493 836 q 509 954 509 945 l 509 962 l 505 962 m 220 945 l 220 945 l 220 929 l 224 929 l 224 945 l 220 945 m 256 937 l 256 937 l 256 921 l 260 921 l 260 937 l 256 937 m 513 913 l 513 913 l 513 905 l 517 905 l 517 913 l 513 913 m 537 892 l 537 892 l 537 884 q 545 892 545 884 l 545 901 q 537 892 537 899 m 151 892 l 151 892 l 151 892 q 142 836 151 880 l 142 823 l 146 823 q 155 884 146 840 l 155 892 l 151 892 m 236 888 l 236 888 l 236 872 l 240 872 l 240 888 l 236 888 m 232 860 l 232 860 l 232 852 l 236 852 l 236 860 l 232 860 m 138 815 l 138 815 l 138 799 l 142 799 l 142 815 l 138 815 m 435 807 l 435 807 l 435 807 q 431 779 435 795 l 431 774 l 435 774 q 444 807 435 782 l 435 807 m 252 783 l 252 783 l 252 774 l 256 774 l 256 783 l 252 783 m 464 770 l 464 770 l 464 762 l 468 762 l 468 770 l 464 770 m 374 758 l 374 758 l 374 754 l 403 754 l 423 758 l 423 762 l 415 762 q 374 758 393 758 m 350 754 l 350 754 l 350 750 l 366 750 l 366 754 l 350 754 m 264 742 l 264 742 l 264 738 l 273 738 l 273 742 l 264 742 m 586 738 l 586 738 l 586 734 l 606 734 l 606 738 l 586 738 m 407 726 l 407 726 l 407 722 l 415 722 l 415 726 l 407 726 m 346 718 l 346 718 l 346 713 l 358 713 l 358 718 l 346 718 m 260 705 l 260 705 l 260 701 l 273 701 q 338 709 315 709 l 338 713 l 321 713 q 260 705 270 705 m 73 701 l 73 701 l 73 701 q 81 693 74 693 l 81 701 l 73 701 m 57 697 l 57 697 l 57 693 l 65 693 l 65 697 l 57 697 m 73 673 l 73 673 l 73 669 l 81 669 l 81 673 l 73 673 m 582 669 l 582 669 l 582 665 l 590 665 l 590 669 l 582 669 m 69 652 l 69 652 l 81 652 l 81 661 l 77 661 q 69 652 69 659 m 264 620 l 264 620 l 264 616 l 273 616 q 407 636 396 636 l 407 644 q 264 620 357 632 m 529 644 l 529 644 l 529 632 l 533 632 l 533 644 l 529 644 m 69 640 l 69 640 l 69 636 l 81 636 l 81 640 l 69 640 m 488 640 l 488 640 l 488 640 q 484 563 488 608 l 484 543 l 488 543 q 492 612 488 564 l 492 640 l 488 640 m -65 636 l -65 636 l -53 636 q -61 628 -53 628 l -65 628 l -65 636 m 415 628 l 415 628 l 415 616 l 419 616 l 419 628 l 415 628 m 525 620 l 525 620 l 525 579 l 529 579 l 529 620 l 525 620 m 252 616 l 252 616 l 252 612 l 260 612 l 260 616 l 252 616 m 69 608 l 69 608 l 69 595 l 77 595 l 77 608 l 69 608 m 236 600 l 236 600 l 236 600 q 232 408 232 471 l 232 237 l 236 189 l 240 189 l 240 193 q 236 311 236 265 l 236 376 q 240 579 236 477 l 240 600 l 236 600 m 203 595 l 203 595 l 203 567 l 208 567 l 208 595 l 203 595 m 28 583 l 28 583 l 28 579 l 45 579 l 45 583 l 28 583 m -73 571 l -73 571 l -53 571 l -53 563 l -65 563 q -73 571 -73 563 m 472 543 l 472 543 l 472 526 l 476 526 l 476 543 l 472 543 m 500 538 l 500 538 l 500 486 l 505 486 l 505 538 l 500 538 m 159 534 l 159 534 l 159 445 l 163 445 l 163 534 l 159 534 m 521 518 l 521 518 l 521 494 l 525 494 l 525 518 l 521 518 m 110 510 l 110 510 l 110 486 l 114 486 l 114 510 l 110 510 m 517 486 l 517 486 l 517 486 q 513 408 517 438 l 513 400 l 517 400 l 521 449 l 521 486 l 517 486 m 533 477 l 533 477 l 533 453 l 537 453 l 537 477 l 533 477 m 423 469 l 423 469 l 423 445 l 427 445 l 427 469 l 423 469 m 130 453 l 130 453 l 126 433 l 126 400 l 130 400 l 134 441 l 134 453 l 130 453 m 492 445 l 492 445 l 492 445 q 488 290 488 333 l 488 274 l 492 274 q 500 445 496 304 l 492 445 m 90 437 l 90 437 l 90 384 l 94 384 l 94 437 l 90 437 m 464 425 l 464 425 l 464 404 l 468 404 l 468 425 l 464 425 m 155 400 l 155 400 l 155 363 l 159 363 l 159 400 l 155 400 m 179 376 l 179 376 l 179 372 q 183 351 179 358 l 179 327 l 179 307 l 183 298 l 179 298 l 183 290 l 183 254 l 187 225 l 191 225 l 191 229 q 187 282 191 232 q 191 347 191 341 q 187 376 187 363 l 179 376 m 427 376 l 427 376 l 427 368 l 431 343 l 435 343 l 435 363 q 431 376 431 372 l 427 376 m 94 372 l 94 372 l 94 327 l 98 327 l 98 372 l 94 372 m 110 351 l 110 351 l 110 319 l 114 319 l 114 351 l 110 351 m 122 327 l 122 327 l 122 327 q 130 270 130 280 l 134 270 l 134 274 q 130 319 130 302 l 130 327 l 122 327 m 220 278 l 220 278 l 220 217 l 224 217 l 224 278 l 220 278 m 163 270 l 163 270 l 163 270 q 167 241 167 254 l 171 241 l 171 266 l 163 270 m 537 258 l 537 258 l 541 258 l 541 250 l 529 250 q 537 258 530 258 m 427 189 l 427 189 l 431 189 q 439 180 439 187 l 431 176 l 427 176 l 427 189 m 472 176 l 472 176 l 476 176 l 472 148 l 464 148 l 464 168 q 472 176 465 176 m 159 168 l 159 168 l 159 144 q 151 136 159 136 q 146 140 151 140 q 159 168 152 168 m 505 71 l 505 71 l 509 71 l 509 42 l 500 42 l 496 62 q 505 71 497 71 m 500 1 l 500 1 l 513 1 l 513 -3 q 500 -15 513 -9 l 500 1 m 191 -47 l 191 -47 l 195 -47 l 195 -52 q 187 -60 195 -60 l 183 -52 l 191 -47 z "},"I":{"ha":239,"x_min":14,"x_max":307,"o":"m 267 1268 l 267 1268 l 271 1268 l 271 1256 l 267 1256 q 258 1264 258 1256 l 267 1268 m 303 1223 l 303 1223 l 307 1223 l 307 1219 q 254 1032 279 1176 q 185 316 185 547 q 201 92 191 92 l 193 88 q 185 96 185 88 q 177 312 177 220 l 177 410 l 173 410 q 165 397 173 397 l 173 308 l 165 308 q 161 345 161 330 l 157 345 l 157 308 q 173 129 157 237 l 165 129 q 144 324 144 239 l 136 324 l 136 279 q 128 271 136 271 q 124 275 128 275 l 128 316 l 128 373 l 120 373 l 120 336 q 124 320 120 327 l 120 312 q 132 190 124 210 l 120 190 q 108 438 108 269 q 112 491 108 440 l 104 491 q 100 389 100 423 l 100 353 q 108 231 100 279 l 100 231 q 83 361 83 307 l 79 361 q 71 324 79 324 q 63 357 63 338 l 63 401 q 55 410 63 409 l 55 345 q 63 255 55 315 l 55 255 q 39 369 47 279 l 35 369 l 31 349 l 26 349 q 14 414 14 349 l 14 463 q 71 1073 14 919 l 83 1073 l 83 1069 q 22 471 22 913 q 26 377 22 451 q 39 381 34 381 q 35 385 39 385 q 31 528 31 481 l 31 556 q 87 1069 31 865 l 96 1069 q 51 808 67 944 l 51 800 l 55 800 q 96 1012 67 911 q 128 1089 113 1089 q 153 1126 143 1126 l 157 1126 l 157 1122 q 149 1101 149 1108 q 161 1109 151 1101 q 165 1105 161 1105 q 132 983 149 1063 l 132 979 l 136 979 q 144 991 136 991 l 149 991 q 116 743 136 944 l 116 727 l 120 727 q 197 1150 163 1150 l 201 1142 q 149 878 184 1142 l 149 869 l 153 869 q 197 1130 169 1002 l 201 1130 l 210 1126 q 238 1175 210 1142 q 246 1166 246 1173 q 238 1158 238 1165 l 238 1154 l 246 1154 q 230 1081 230 1091 l 230 1073 l 234 1073 q 246 1142 234 1089 l 254 1142 q 201 743 234 1033 l 201 731 l 205 731 q 291 1215 247 1107 l 303 1223 m 246 1219 l 246 1219 l 250 1219 l 246 1195 l 242 1195 q 234 1203 234 1195 q 246 1219 240 1219 m 153 1191 l 153 1191 l 161 1191 q 165 1179 161 1186 l 157 1175 l 153 1183 l 153 1191 m 201 1114 l 201 1114 l 201 1097 l 205 1097 l 205 1114 l 201 1114 m 197 1093 l 197 1093 l 197 1077 l 201 1077 l 201 1093 l 197 1093 m 214 1085 l 214 1085 l 205 1053 l 205 1044 l 210 1044 q 218 1081 210 1062 l 218 1085 l 214 1085 m 193 1073 l 193 1073 l 193 1057 l 197 1057 l 197 1073 l 193 1073 m 226 1069 l 226 1069 l 226 1053 l 230 1053 l 230 1069 l 226 1069 m 189 1053 l 189 1053 l 189 1036 l 193 1036 l 193 1053 l 189 1053 m 201 1040 l 201 1040 l 201 1040 q 189 971 201 1031 l 189 967 l 193 967 l 205 1032 l 205 1040 l 201 1040 m 185 1032 l 185 1032 l 185 1016 l 189 1016 l 189 1032 l 185 1032 m 181 1008 l 181 1008 l 181 996 l 185 996 l 185 1008 l 181 1008 m 177 987 l 177 987 l 177 975 l 181 975 l 181 987 l 177 987 m 189 959 l 189 959 l 185 951 l 185 947 l 189 947 q 193 959 189 951 l 189 959 m 177 882 l 177 882 l 177 869 l 181 869 l 181 882 l 177 882 m 92 878 l 92 878 l 92 878 q 83 796 83 800 l 83 768 l 87 768 q 96 869 87 805 l 96 878 l 92 878 m 173 861 l 173 861 l 173 861 q 165 788 173 848 l 165 772 l 169 772 q 177 849 169 791 l 177 861 l 173 861 m 157 849 l 157 849 l 157 833 l 161 833 l 161 849 l 157 849 m 67 833 l 67 833 l 67 817 l 71 817 l 71 833 l 67 833 m 153 825 l 153 825 l 153 804 l 157 804 l 157 825 l 153 825 m 63 812 l 63 812 l 63 804 l 67 804 l 67 812 l 63 812 m 63 800 l 63 800 l 63 800 q 59 755 63 791 l 59 727 l 63 727 q 67 792 63 760 l 67 800 l 63 800 m 161 764 l 161 764 l 161 743 l 165 743 l 165 764 l 161 764 m 197 715 l 197 715 l 197 703 l 201 703 l 201 715 l 197 715 m 136 605 l 136 605 l 136 593 l 140 593 l 140 605 l 136 605 m 112 576 l 112 576 l 108 548 l 108 515 l 112 515 q 116 572 112 553 l 116 576 l 112 576 m 132 576 l 132 576 l 132 507 l 136 507 l 136 576 l 132 576 m 71 548 l 71 548 l 71 430 l 75 430 l 75 548 l 71 548 m 39 499 l 39 499 l 39 475 l 43 475 q 47 507 43 478 q 39 499 39 506 m 128 491 l 128 491 l 128 430 l 132 430 l 132 491 l 128 491 m 100 174 l 100 174 l 104 174 q 100 149 104 170 q 104 133 104 142 l 96 133 l 92 153 l 92 165 q 100 174 93 174 m 124 157 l 124 157 l 136 157 l 136 153 q 144 52 136 112 l 136 52 q 124 157 124 119 m 169 88 l 169 88 l 169 88 q 177 23 173 81 l 169 23 q 161 72 163 61 l 165 72 l 161 80 q 169 88 162 88 m 108 80 l 108 80 l 112 80 l 112 68 l 100 68 l 100 72 q 108 80 101 80 m 144 -1 l 144 -1 l 157 -1 l 157 -5 q 149 -14 157 -14 l 144 -14 l 144 -1 m 189 -26 l 189 -26 l 193 -34 l 185 -38 l 181 -38 l 181 -34 q 189 -26 182 -26 z "},"J":{"ha":662,"x_min":-192,"x_max":777,"o":"m 394 1337 l 394 1337 l 398 1337 q 451 1215 421 1313 l 455 1215 l 455 1219 l 435 1280 l 443 1284 l 447 1284 q 467 1215 447 1270 l 484 1215 q 455 1276 455 1270 l 459 1276 q 484 1232 467 1276 l 492 1236 l 512 1211 l 512 1215 q 508 1227 508 1223 l 520 1227 q 577 1199 520 1204 q 711 1171 603 1199 l 711 1158 l 703 1158 q 638 1179 694 1166 l 634 1171 q 720 1142 661 1150 q 777 1118 777 1124 q 772 1114 772 1118 q 683 1126 754 1121 q 748 1097 683 1111 l 748 1093 q 740 1085 748 1085 q 671 1105 726 1097 q 654 1101 664 1101 l 654 1109 l 606 1109 l 606 1105 q 707 1057 675 1105 q 752 1048 713 1057 l 752 1040 q 724 1032 740 1040 l 659 1044 l 650 1044 l 650 1040 q 720 1020 667 1040 l 720 1016 l 711 1004 l 663 1008 l 638 1008 l 618 1012 l 618 1008 q 711 699 663 920 l 703 694 l 699 694 q 663 853 699 719 l 659 853 l 659 849 q 679 772 675 781 l 671 768 q 667 780 667 775 l 663 780 l 663 776 q 715 572 715 607 l 707 572 q 711 491 711 517 l 711 450 q 626 64 711 238 l 630 64 q 728 426 728 231 l 728 471 l 740 471 l 740 467 q 471 -95 740 60 q 386 -111 418 -111 l 374 -111 q 146 7 262 -111 l 142 15 l 150 15 q 382 -103 268 -103 q 484 -79 418 -103 l 484 -75 l 479 -75 q 378 -99 441 -92 q 85 113 243 -99 l 93 113 q 215 7 171 27 l 223 11 l 227 11 q 252 -9 227 1 l 256 -9 l 264 -5 q 309 -22 264 -22 l 333 -22 q 227 15 333 -13 q 130 92 163 47 q 138 100 131 100 l 142 100 q 260 15 142 63 l 260 19 q 12 349 106 123 l 24 349 q 207 68 52 244 q 317 3 293 3 q 333 -1 324 -1 l 337 -1 l 337 3 q 186 109 290 3 l 186 117 l 191 117 l 223 84 l 235 84 q 256 60 250 60 l 264 64 l 333 43 q 146 182 196 125 q 125 206 141 182 l 125 214 l 130 214 q 239 121 210 121 q 125 259 174 185 l 125 263 l 134 263 q 374 76 259 76 q 475 141 429 76 l 471 141 q 378 104 432 104 l 370 104 q 292 125 292 113 l 292 129 q 378 113 362 113 q 508 206 462 113 q 541 434 541 314 q 443 800 541 523 l 451 804 l 455 804 q 528 552 508 650 l 532 552 l 532 556 q 447 906 532 641 l 410 987 l 418 991 q 545 495 545 707 l 549 495 l 549 532 q 536 613 545 599 l 545 617 q 549 613 545 612 l 549 617 q 520 739 549 632 q 528 747 528 739 q 451 963 528 750 l 455 971 q 418 1040 423 1040 l 341 1040 q 227 1032 311 1040 l 227 1040 l 248 1040 l 248 1044 l 235 1044 q 146 1028 219 1044 l 146 1032 q 178 1044 146 1042 l 178 1048 l 174 1048 q 60 1028 112 1040 l 60 1040 q 207 1061 123 1053 l 207 1069 l 199 1069 l 199 1073 q 243 1085 199 1082 l 243 1089 l 235 1089 q 89 1069 112 1076 l 85 1077 q 130 1093 130 1087 l 170 1093 q 178 1105 170 1105 l 256 1105 l 256 1114 q 386 1109 298 1114 l 418 1109 l 418 1114 l 370 1114 l 370 1122 l 349 1122 q 44 1093 271 1122 l 44 1097 q 321 1130 44 1111 l 337 1134 l 337 1138 l 325 1138 q 138 1122 273 1138 l 138 1130 q -1 1118 127 1130 l -1 1126 q 93 1150 26 1126 q 101 1162 97 1150 q -115 1134 -22 1150 l -119 1134 q 195 1183 -119 1154 q 353 1207 286 1207 l 353 1211 l 304 1211 q 231 1199 277 1211 q 227 1203 227 1199 q 32 1183 181 1190 q 20 1175 32 1178 l 20 1187 q 207 1207 37 1194 q 333 1223 258 1223 l 370 1223 q 353 1260 353 1245 l 366 1260 q 386 1219 374 1222 l 402 1219 l 378 1272 l 390 1280 q 394 1276 390 1276 l 390 1268 q 410 1219 410 1232 l 427 1219 l 427 1223 q 422 1244 422 1228 l 431 1244 q 394 1329 414 1301 l 394 1337 m 431 1240 l 431 1240 l 431 1232 l 435 1232 l 435 1240 l 431 1240 m 329 1199 l 329 1199 l 329 1195 l 382 1195 l 378 1203 q 329 1199 365 1199 m 394 1203 l 394 1203 l 394 1195 l 410 1195 l 410 1203 l 394 1203 m 593 1183 l 593 1183 l 593 1179 q 626 1175 604 1179 l 630 1175 l 630 1179 l 610 1183 l 593 1183 m -21 1183 l -21 1183 l -17 1183 l -17 1179 q -25 1171 -17 1171 l -29 1179 l -21 1183 m 146 1146 l 146 1146 l 146 1138 l 154 1142 l 199 1142 l 199 1146 l 146 1146 m 565 1146 l 565 1146 l 565 1142 l 573 1142 l 573 1146 l 565 1146 m 93 1142 l 93 1142 l 93 1138 l 134 1138 l 134 1142 l 93 1142 m 81 1138 l 81 1138 l 81 1134 l 89 1134 l 89 1138 l 81 1138 m -143 1130 l -143 1130 l -139 1122 l -147 1118 l -192 1118 q -143 1130 -192 1125 m 561 1126 l 561 1126 l 561 1122 l 569 1122 l 569 1126 l 561 1126 m 431 1114 l 431 1114 l 431 1109 l 439 1109 l 439 1114 l 431 1114 m -58 1101 l -58 1101 l -50 1101 l -50 1089 l -58 1089 l -58 1101 m 618 1093 l 618 1093 l 618 1089 l 630 1089 l 630 1093 l 618 1093 m 634 1089 l 634 1089 l 634 1085 l 646 1085 l 646 1089 l 634 1089 m 215 1073 l 215 1073 l 215 1069 l 243 1069 q 304 1081 298 1081 l 304 1085 l 292 1085 q 215 1073 225 1073 m 296 1073 l 296 1073 l 296 1069 l 333 1069 l 406 1077 l 406 1081 q 374 1085 389 1081 l 296 1073 m 447 1077 l 447 1077 l 447 1077 q 455 1069 448 1069 l 459 1069 q 451 1077 459 1076 l 447 1077 m 427 1073 l 427 1073 l 427 1069 l 435 1069 l 435 1073 l 427 1073 m 622 1065 l 622 1065 l 622 1065 q 634 1057 622 1057 l 650 1057 l 650 1061 l 622 1065 m 654 1057 l 654 1057 l 654 1053 l 671 1053 l 671 1057 l 654 1057 m 406 1053 l 406 1053 l 406 1048 l 414 1048 l 414 1053 l 406 1053 m 431 1053 l 431 1053 l 431 1048 l 447 1048 l 447 1053 l 431 1053 m 459 1053 l 459 1053 l 459 1044 l 471 1044 q 463 1053 471 1052 l 459 1053 m 252 1048 l 252 1048 l 252 1044 l 268 1044 l 268 1048 l 252 1048 m 634 1048 l 634 1048 l 634 1044 l 642 1044 l 642 1048 l 634 1048 m -66 1048 l -66 1048 l -62 1048 l -62 1036 l -74 1036 l -74 1040 q -66 1048 -73 1048 m 545 1044 l 545 1044 l 545 1040 q 553 1032 546 1032 l 553 1036 q 545 1044 553 1044 m 435 1040 l 435 1040 l 435 1036 q 479 935 479 945 l 484 935 l 484 947 q 443 1036 457 1036 l 435 1040 m 463 1036 l 463 1036 l 463 1036 q 504 967 498 968 q 471 1036 478 1036 l 463 1036 m 610 1032 l 610 1032 l 610 1028 q 659 1016 610 1019 q 610 1032 659 1023 m 32 1032 l 32 1032 l 32 1028 q 16 1016 32 1022 l 12 1024 l 12 1028 l 32 1032 m 671 1024 l 671 1024 l 671 1016 l 699 1016 l 699 1020 l 671 1024 m 496 1020 l 496 1020 l 496 1016 q 500 1004 500 1008 l 504 1004 l 504 1008 q 500 1020 500 1015 l 496 1020 m 553 1020 l 553 1020 l 553 1020 q 561 996 561 1006 l 565 996 l 565 1004 q 553 1020 559 1020 m 602 1012 l 602 1012 l 602 1004 l 606 1004 l 606 1012 l 602 1012 m 589 1004 l 589 1004 l 589 1004 q 585 991 589 999 q 622 898 614 930 l 626 898 l 626 902 q 593 1004 593 997 l 589 1004 m 606 1000 l 606 1000 l 606 991 l 610 991 l 610 1000 l 606 1000 m 516 971 l 516 971 l 516 963 l 520 963 l 520 971 l 516 971 m 536 951 l 536 951 l 536 943 l 541 943 l 541 951 l 536 951 m 541 939 l 541 939 l 541 935 q 545 922 545 926 l 549 922 l 549 926 q 545 939 545 934 l 541 939 m 488 926 l 488 926 l 488 922 q 496 898 496 905 l 500 898 l 500 906 q 492 926 492 919 l 488 926 m 602 926 l 602 926 l 602 918 q 606 906 606 910 l 610 906 l 610 910 q 606 926 606 917 l 602 926 m 549 918 l 549 918 l 549 914 q 553 902 553 906 l 557 902 l 557 906 q 553 918 553 913 l 549 918 m 569 918 l 569 918 l 569 918 q 618 772 618 781 l 622 772 l 622 776 q 569 918 588 899 m 557 898 l 557 898 l 557 894 q 573 845 573 852 l 577 845 l 577 849 q 561 898 561 890 l 557 898 m 528 841 l 528 841 l 528 833 l 532 833 l 532 841 l 528 841 m 532 829 l 532 829 l 532 825 q 545 800 538 800 l 545 804 q 536 829 536 821 l 532 829 m 659 792 l 659 792 l 659 784 l 663 784 l 663 792 l 659 792 m 549 780 l 549 780 l 549 776 q 561 723 561 729 l 565 723 l 565 727 q 553 780 553 773 l 549 780 m 589 727 l 589 727 l 589 719 l 593 719 l 593 727 l 589 727 m 593 715 l 593 715 l 593 707 q 597 678 597 690 l 602 678 l 602 690 l 597 715 l 593 715 m 646 674 l 646 674 l 646 662 l 650 662 l 650 674 l 646 674 m 569 658 l 569 658 l 569 654 q 573 613 573 632 l 577 613 l 577 637 l 573 658 l 569 658 m 650 658 l 650 658 l 650 642 l 654 642 l 654 658 l 650 658 m 610 642 l 610 642 l 610 629 q 622 613 616 613 q 614 642 614 633 l 610 642 m 654 637 l 654 637 l 654 621 l 659 621 l 659 637 l 654 637 m 679 621 l 679 621 l 679 613 l 683 613 l 683 621 l 679 621 m 699 605 l 699 605 l 699 597 l 703 597 l 703 605 l 699 605 m 687 560 l 687 560 l 687 536 l 691 536 l 691 560 l 687 560 m 626 548 l 626 548 l 626 528 l 630 528 l 630 548 l 626 548 m 691 528 l 691 528 l 691 454 l 695 454 l 695 528 l 691 528 m 589 495 l 589 495 l 589 495 q 581 345 589 435 l 581 340 l 585 340 q 593 446 593 411 l 593 495 l 589 495 m 549 491 l 549 491 l 549 463 l 553 463 l 553 491 l 549 491 m 12 483 l 12 483 l 20 483 l 20 471 l 12 471 l 12 483 m 610 475 l 610 475 l 610 450 l 614 450 l 614 475 l 610 475 m 561 450 l 561 450 l 561 357 l 565 357 q 569 393 565 391 q 565 450 565 406 l 561 450 m 638 446 l 638 446 l 638 446 q 634 365 638 393 l 634 357 l 638 357 q 642 401 638 365 l 642 446 l 638 446 m 24 434 l 24 434 l 28 434 q 44 401 39 434 l 36 397 l 32 397 q 24 426 32 416 l 24 434 m 760 385 l 760 385 l 760 385 q 764 381 760 380 q 715 186 739 186 l 715 190 q 756 385 736 249 l 760 385 m 56 340 l 56 340 l 60 340 q 68 332 68 339 l 56 332 l 56 340 m 553 328 l 553 328 l 553 328 q 545 271 553 299 l 545 267 l 549 267 q 557 308 557 297 l 557 328 l 553 328 m 610 316 l 610 316 l 610 316 q 593 251 610 310 l 593 247 l 597 247 l 614 312 l 614 316 l 610 316 m 81 296 l 81 296 l 89 296 q 109 255 99 296 l 101 251 q 81 296 97 264 m 569 243 l 569 243 l 569 239 l 573 239 q 589 292 589 283 q 569 243 581 292 m 528 251 l 528 251 l 528 243 l 532 243 l 532 251 l 528 251 m 589 243 l 589 243 l 589 235 l 593 235 l 593 243 l 589 243 m 545 239 l 545 239 l 545 239 q 467 113 534 211 q 418 80 432 80 l 418 76 l 422 76 q 500 129 466 85 q 549 235 530 178 l 549 239 l 545 239 m 663 235 l 663 235 l 663 235 q 606 88 663 201 l 610 88 q 667 231 650 130 l 667 235 l 663 235 m 36 235 l 36 235 l 40 235 l 40 231 q 32 222 40 222 l 28 231 l 36 235 m 622 218 l 622 218 l 622 218 q 561 80 597 143 l 565 80 q 626 214 602 134 l 626 218 l 622 218 m 77 178 l 77 178 l 101 141 l 101 133 l 97 133 q 68 174 92 133 l 77 178 m 561 170 l 561 170 l 561 170 q 553 149 553 156 q 565 170 559 149 l 561 170 m 524 157 l 524 157 l 524 157 q 512 133 524 148 l 516 133 l 528 153 l 528 157 l 524 157 m 528 137 l 528 137 l 528 137 q 512 100 528 130 l 516 100 q 532 133 526 113 l 532 137 l 528 137 m 243 121 l 243 121 l 243 117 l 256 109 l 256 113 l 243 121 m 557 113 l 557 113 l 557 113 q 541 84 557 104 l 545 84 q 561 109 561 104 l 561 113 l 557 113 m 260 109 l 260 109 l 260 104 l 268 100 l 268 104 l 260 109 m 467 80 l 467 80 l 467 80 q 504 104 503 95 l 504 109 q 467 80 467 83 m 504 88 l 504 88 l 496 72 l 500 72 l 508 88 l 504 88 m 435 52 l 435 52 l 435 43 l 439 43 q 488 80 469 43 q 435 52 440 52 m 304 76 l 304 76 l 304 76 q 386 39 355 39 q 443 68 406 39 l 443 72 q 390 64 406 64 q 304 76 347 64 m 597 76 l 597 76 l 597 76 q 561 15 597 66 l 565 15 q 610 76 583 34 l 597 76 m 561 60 l 561 60 l 557 52 l 561 52 l 565 60 l 561 60 m 516 52 l 516 52 l 516 52 q 459 15 516 45 l 459 11 l 463 11 q 520 52 494 16 l 516 52 m 597 39 l 597 39 l 597 39 q 524 -42 582 9 q 602 39 562 -26 l 597 39 m 296 31 l 296 31 l 296 27 q 406 3 364 3 q 451 23 451 15 q 382 15 418 15 l 374 15 q 300 31 332 15 l 296 31 m 182 15 l 182 15 l 182 15 q 276 -62 219 -28 l 284 -58 q 345 -79 298 -68 l 353 -79 l 353 -75 q 248 -18 301 -75 q 186 15 237 -18 l 182 15 m 545 -5 l 545 -5 l 528 -26 l 532 -26 q 549 -5 549 -8 l 545 -5 m 414 -22 l 414 -22 l 414 -26 l 422 -26 l 422 -22 l 414 -22 m 325 -30 l 325 -30 l 325 -34 q 366 -38 366 -34 q 394 -30 386 -30 l 394 -26 l 374 -26 l 325 -30 m 492 -38 l 492 -38 l 492 -38 q 361 -79 446 -79 l 361 -83 l 406 -83 q 500 -42 437 -83 l 500 -38 l 492 -38 m 382 -71 l 382 -71 l 386 -71 q 447 -54 393 -71 l 443 -46 q 382 -71 382 -64 m 309 -50 l 309 -50 l 309 -54 q 353 -66 346 -66 q 313 -50 353 -56 l 309 -50 m 492 -54 l 492 -54 l 488 -62 q 500 -58 496 -58 l 500 -54 l 492 -54 z "},"K":{"ha":614,"x_min":25,"x_max":892,"o":"m 70 1375 l 70 1375 l 74 1375 l 78 1354 l 74 1354 q 62 1371 68 1354 l 70 1375 m 692 1358 l 692 1358 l 696 1358 q 705 1350 705 1357 l 705 1346 l 692 1346 l 692 1358 m 644 1314 l 644 1314 l 652 1314 l 652 1310 q 603 1265 604 1265 l 599 1273 q 644 1314 638 1314 m 163 1305 l 163 1305 l 168 1305 q 220 943 220 1029 q 237 862 229 862 q 229 923 229 913 l 237 927 l 241 919 l 241 878 l 249 878 q 440 1175 315 1013 q 526 1257 513 1254 l 530 1257 l 538 1253 q 526 1236 532 1236 l 517 1240 q 363 1053 417 1140 l 367 1053 q 517 1228 433 1134 l 522 1220 q 444 1131 522 1215 l 444 1126 q 546 1220 524 1213 l 550 1212 q 387 1041 479 1160 q 359 996 387 1038 l 363 996 q 497 1159 401 1060 q 595 1240 584 1240 l 595 1228 q 583 1216 595 1222 q 578 1220 583 1220 l 558 1196 l 562 1196 q 566 1200 562 1200 l 566 1187 q 526 1151 554 1187 q 530 1147 526 1147 l 522 1131 l 530 1126 q 660 1249 567 1179 l 672 1257 q 680 1249 680 1255 q 566 1155 653 1234 q 355 874 420 997 l 359 874 q 501 1069 405 962 q 530 1086 505 1078 q 607 1171 538 1111 l 611 1171 l 611 1167 q 522 1061 522 1069 l 526 1061 q 648 1167 594 1136 l 652 1167 l 652 1163 q 416 878 469 995 q 338 728 387 837 q 623 353 517 534 q 782 89 665 307 l 786 68 l 786 64 l 778 64 q 676 252 764 119 l 758 105 l 749 101 l 672 231 q 591 361 650 277 q 717 134 657 233 l 713 125 q 892 -318 830 -98 l 888 -318 q 835 -168 880 -318 l 745 44 l 741 44 l 741 40 q 810 -159 810 -115 l 802 -159 q 721 60 802 -121 l 709 73 q 823 -237 823 -212 l 819 -237 q 782 -139 811 -234 q 705 48 712 43 q 676 89 701 48 l 635 154 q 583 239 592 239 l 578 239 q 782 -155 701 41 l 774 -159 q 587 203 689 46 q 721 -66 658 89 l 766 -159 l 766 -168 l 753 -168 q 591 182 665 50 l 587 182 l 587 178 l 684 -25 l 684 -33 l 676 -33 q 550 211 616 92 l 546 211 l 546 207 q 599 109 579 136 l 599 101 l 595 101 l 538 186 q 599 85 566 130 l 599 81 l 587 81 q 436 321 508 230 q 261 553 414 361 l 257 553 q 261 536 257 544 q 265 329 265 392 q 257 60 265 173 l 261 52 q 257 32 257 45 l 253 32 l 245 36 l 249 64 l 249 81 q 253 170 249 109 l 245 166 l 241 166 l 237 223 l 233 223 q 229 121 229 156 l 229 113 l 224 113 l 216 117 l 220 138 l 220 215 l 212 215 l 212 105 q 216 101 212 101 l 212 93 l 212 7 q 200 -25 212 -22 l 196 -25 q 204 64 204 9 l 204 130 l 196 130 q 204 191 201 183 q 200 227 200 212 l 200 252 q 196 374 200 292 l 192 374 q 176 109 192 109 q 172 113 176 113 q 180 231 180 162 l 168 231 l 168 138 q 159 130 168 130 l 159 182 q 143 199 159 189 l 143 60 l 135 60 l 135 191 q 131 313 135 231 q 119 321 119 313 l 119 410 l 111 410 l 111 292 l 115 268 q 111 256 111 260 l 102 256 l 98 276 l 98 361 q 66 801 98 491 q 41 817 41 810 q 50 825 42 825 q 62 813 50 819 l 66 813 l 25 1069 l 37 1069 l 41 1029 l 50 1033 q 86 870 86 907 l 90 870 l 90 882 q 54 1049 70 1029 l 58 1074 l 62 1074 q 98 903 71 1074 l 106 903 q 54 1281 106 996 l 54 1285 q 98 1069 68 1285 l 102 1069 l 102 1082 q 82 1216 90 1173 l 90 1216 q 111 1159 90 1212 l 119 1159 l 102 1216 l 111 1220 q 139 1147 125 1165 l 143 1147 l 143 1151 q 131 1220 143 1168 l 135 1220 q 151 1204 151 1216 l 155 1204 l 155 1208 q 151 1281 151 1218 q 163 1305 157 1305 m 86 1293 l 86 1293 l 90 1293 q 98 1285 98 1292 l 98 1265 l 90 1265 l 86 1293 m 155 1273 l 155 1273 l 155 1269 q 163 1204 163 1225 l 168 1204 l 168 1216 l 159 1273 l 155 1273 m 705 1212 l 705 1212 l 705 1212 q 709 1208 705 1208 l 705 1200 l 709 1192 l 701 1187 q 692 1200 692 1198 q 705 1212 692 1206 m 29 1200 l 29 1200 l 37 1200 l 37 1187 q 29 1179 37 1179 l 25 1187 q 29 1200 29 1196 m 159 1163 l 159 1163 l 159 1155 q 188 956 159 1132 l 192 956 l 192 968 q 163 1163 163 1151 l 159 1163 m 123 1135 l 123 1135 l 123 1118 l 127 1118 l 127 1135 l 123 1135 m 41 1135 l 41 1135 l 45 1135 q 58 1090 58 1135 l 50 1090 q 41 1135 41 1133 m 493 1118 l 493 1118 l 477 1098 l 481 1098 q 497 1118 497 1116 l 493 1118 m 127 1114 l 127 1114 l 127 1106 l 131 1082 l 135 1082 l 135 1090 l 131 1114 l 127 1114 m 139 1114 l 139 1114 l 139 1110 q 155 1021 155 1038 l 159 1021 l 159 1037 q 143 1114 159 1042 l 139 1114 m 416 1098 l 416 1098 l 375 1049 l 379 1049 q 420 1098 420 1095 l 416 1098 m 135 1078 l 135 1078 l 135 1061 l 139 1061 l 139 1078 l 135 1078 m 444 1057 l 444 1057 l 444 1057 q 351 919 351 927 l 355 919 l 448 1057 l 444 1057 m 139 1053 l 139 1053 l 139 1041 l 143 1041 l 143 1053 l 139 1053 m 127 1049 l 127 1049 l 127 1037 l 131 1037 l 131 1049 l 127 1049 m 115 1045 l 115 1045 l 115 1033 l 119 1033 l 119 1045 l 115 1045 m 371 1045 l 371 1045 l 371 1045 q 249 833 264 903 l 249 829 l 253 829 q 375 1045 283 920 l 371 1045 m 131 1033 l 131 1033 l 131 1008 l 135 1008 l 135 1033 l 131 1033 m 143 1033 l 143 1033 l 143 1021 l 147 1021 l 147 1033 l 143 1033 m 469 1021 l 469 1021 l 460 1008 l 465 1008 l 473 1021 l 469 1021 m 147 1008 l 147 1008 l 147 992 l 151 992 l 151 1008 l 147 1008 m 456 1004 l 456 1004 l 456 1004 q 338 821 378 898 l 342 821 q 460 1004 372 876 l 456 1004 m 50 992 l 50 992 l 50 984 l 74 809 l 82 809 q 54 992 82 869 l 50 992 m 355 992 l 355 992 l 351 984 l 355 984 l 359 992 l 355 992 m 151 984 l 151 984 l 151 964 l 155 964 l 155 984 l 151 984 m 155 960 l 155 960 l 155 947 q 159 911 159 926 l 163 911 l 163 923 q 159 960 159 945 l 155 960 m 192 947 l 192 947 l 192 935 l 196 935 l 196 947 l 192 947 m 139 939 l 139 939 l 139 931 l 143 931 l 143 939 l 139 939 m 98 895 l 98 895 l 98 895 q 111 781 111 814 l 115 781 l 115 793 q 98 895 112 895 m 347 862 l 347 862 l 338 846 l 342 846 l 351 862 l 347 862 m 383 850 l 383 850 l 383 850 q 326 740 326 749 l 334 740 q 387 850 346 777 l 383 850 m 147 842 l 147 842 l 147 829 q 151 789 151 808 l 155 789 l 155 805 q 151 842 151 827 l 147 842 m 298 838 l 298 838 l 298 829 l 302 829 l 302 838 l 298 838 m 261 785 l 261 785 l 261 785 q 257 772 261 781 l 261 772 l 265 781 l 265 785 l 261 785 m 82 744 l 82 744 l 82 732 q 90 634 90 680 l 94 634 l 94 667 q 86 744 86 735 l 82 744 m 58 744 l 58 744 l 62 744 q 82 500 62 694 l 74 500 q 50 740 66 536 l 58 744 m 338 715 l 338 715 l 338 715 q 444 593 349 689 l 444 597 q 338 715 340 715 m 310 711 l 310 711 l 310 707 q 318 699 311 699 l 318 703 q 310 711 318 711 m 253 699 l 253 699 l 253 695 q 261 687 254 687 l 265 687 l 265 691 q 257 699 265 699 l 253 699 m 326 695 l 326 695 l 326 691 q 375 638 368 639 l 375 642 l 326 695 m 281 667 l 281 667 l 281 663 q 355 577 349 578 l 355 581 q 290 667 304 637 l 281 667 m 277 646 l 277 646 l 277 642 l 290 634 l 290 638 l 277 646 m 281 622 l 281 622 l 281 618 q 359 528 286 618 q 281 622 323 587 m 375 618 l 375 618 l 375 614 q 452 512 447 526 l 456 512 l 456 520 q 375 618 380 617 m 355 614 l 355 614 l 355 610 l 363 606 l 363 610 l 355 614 m 241 606 l 241 606 l 241 593 l 249 589 q 245 606 245 597 l 241 606 m 257 602 l 257 602 l 257 573 q 456 317 300 521 q 261 597 400 425 l 261 602 l 257 602 m 367 597 l 367 597 l 367 593 q 432 504 418 515 q 367 597 378 593 m 277 593 l 277 593 l 277 589 q 290 581 279 589 l 290 585 q 277 593 279 593 m 290 577 l 290 577 l 290 573 q 505 252 409 433 l 517 227 l 522 227 l 522 231 q 310 557 454 380 q 290 577 310 562 m 436 573 l 436 573 l 436 569 l 444 565 l 444 569 l 436 573 m 245 569 l 245 569 l 245 536 l 249 536 l 249 569 l 245 569 m 123 561 l 123 561 l 123 549 l 127 549 l 127 561 l 123 561 m 347 561 l 347 561 l 347 557 l 379 524 l 379 528 q 347 561 350 561 m 448 557 l 448 557 l 448 557 q 513 471 492 479 l 513 475 q 448 557 471 534 m 106 549 l 106 549 l 106 512 q 115 414 106 450 l 119 414 l 119 439 q 111 549 119 485 l 106 549 m 220 532 l 220 532 l 220 492 l 224 492 l 224 532 l 220 532 m 387 512 l 387 512 l 387 512 q 404 492 395 494 l 404 496 l 387 512 m 143 508 l 143 508 l 143 374 l 147 374 l 147 508 l 143 508 m 249 504 l 249 504 l 249 455 l 253 455 l 253 504 l 249 504 m 522 479 l 522 479 l 522 475 l 530 471 l 530 475 l 522 479 m 180 475 l 180 475 l 180 467 l 184 467 l 184 475 l 180 475 m 237 471 l 237 471 l 237 455 l 241 455 l 241 471 l 237 471 m 530 467 l 530 467 l 530 463 q 550 443 546 443 l 550 447 l 530 467 m 180 463 l 180 463 l 180 463 q 176 317 180 392 q 180 235 180 271 l 184 235 l 184 463 l 180 463 m 456 463 l 456 463 l 456 459 l 465 455 l 465 459 l 456 463 m 204 459 l 204 459 l 204 349 l 212 349 q 208 459 208 363 l 204 459 m 513 455 l 513 455 l 513 451 l 587 349 q 513 455 545 429 m 465 451 l 465 451 l 574 280 q 469 451 549 332 l 465 451 m 550 439 l 550 439 l 550 435 l 558 431 l 558 435 l 550 439 m 241 418 l 241 418 l 241 309 l 245 309 l 245 418 l 241 418 m 522 410 l 522 410 l 522 410 q 599 280 555 338 q 522 410 537 392 m 147 329 l 147 329 l 147 325 q 143 203 147 290 q 155 309 155 203 l 155 329 l 147 329 m 599 276 l 599 276 l 599 276 q 611 260 605 260 q 599 276 605 276 m 631 203 l 631 203 l 631 199 q 684 97 684 102 l 688 97 l 688 101 q 635 203 654 170 l 631 203 m 163 60 l 163 60 l 176 60 l 176 48 l 180 20 l 172 16 l 163 28 l 163 60 m 806 28 l 806 28 l 810 28 q 823 3 823 24 l 814 3 q 806 20 814 9 l 806 28 m 863 -62 l 863 -62 l 863 -70 q 855 -78 863 -78 l 851 -78 l 851 -66 q 863 -62 855 -66 m 676 -74 l 676 -74 l 684 -74 l 684 -90 l 676 -90 l 676 -74 z "},"L":{"ha":372,"x_min":-21,"x_max":833,"o":"m 406 1451 l 406 1451 l 410 1451 l 410 1447 q 398 1415 398 1427 l 402 1407 l 390 1407 l 390 1423 q 406 1451 390 1444 m 374 1374 l 374 1374 l 374 1366 q 304 1203 334 1283 l 304 1199 l 309 1199 q 357 1297 321 1244 l 366 1297 l 366 1293 q 284 1085 295 1172 q 300 1109 288 1085 q 329 1179 314 1109 q 349 1215 344 1215 l 353 1215 l 353 1211 q 292 983 318 1127 l 292 975 l 296 975 q 349 1158 319 1093 l 353 1158 q 361 1150 361 1157 l 361 1142 q 284 755 323 1142 q 276 471 276 532 q 288 243 280 339 l 292 243 l 292 259 q 280 483 284 346 q 292 662 286 643 l 300 662 q 292 544 292 606 l 292 463 q 304 247 292 329 q 475 275 430 275 l 500 275 l 500 267 l 488 267 q 406 259 464 267 l 406 255 l 414 255 q 581 267 511 267 l 585 267 l 606 271 l 610 263 l 610 259 l 597 259 l 597 255 q 650 239 639 252 l 650 235 l 659 235 q 756 218 756 235 l 756 210 q 703 222 736 222 l 687 222 l 687 210 q 732 198 732 207 l 732 194 q 654 202 671 202 l 642 202 l 642 198 q 793 170 736 186 l 793 161 q 667 178 717 178 l 663 178 l 663 174 q 736 145 705 167 q 748 137 748 145 l 748 133 l 618 145 l 610 141 q 569 145 604 141 q 386 133 532 145 l 386 129 l 402 129 q 557 137 483 137 l 589 137 q 691 121 691 137 l 683 117 l 671 117 l 671 113 q 565 121 619 121 q 304 92 304 115 l 304 88 l 296 88 q 292 96 296 96 q 121 56 245 95 l 121 60 q 195 92 131 70 q 207 100 195 100 l 207 104 l 203 104 q 109 72 158 92 l 109 76 q 150 96 109 88 l 150 100 l 146 100 l 121 96 l 113 100 q 97 96 106 96 l 93 104 l 93 109 q 195 153 96 120 l 195 161 l 191 161 q 142 145 186 161 l 138 153 q 142 157 142 153 q -5 117 33 133 l -9 117 q 178 178 5 140 l 178 182 l 174 182 q 170 178 174 177 q 162 186 170 185 q 134 178 146 178 l 134 182 q 170 198 134 189 q 162 206 170 205 q 121 190 132 199 q 113 198 113 190 q 150 218 150 213 q 134 418 134 319 l 134 422 q 121 487 121 451 l 117 487 l 117 467 q 138 271 126 301 l 130 267 q 109 288 123 288 q 89 524 89 368 q 146 1024 89 761 l 154 1024 l 154 1020 q 97 511 97 729 q 113 300 101 422 l 121 300 q 105 556 105 434 q 195 1097 105 819 l 207 1097 l 207 1093 q 191 1028 199 1081 l 191 1020 l 195 1020 q 211 1077 200 1077 l 215 1069 q 174 894 191 982 l 174 886 l 178 886 q 215 1048 178 916 q 235 1109 222 1090 q 284 1244 264 1194 l 292 1244 l 292 1240 q 203 910 203 990 q 223 1008 211 910 q 231 1028 231 1008 l 235 1028 l 243 1024 q 357 1358 243 1086 l 374 1374 m 398 1325 l 398 1325 l 402 1325 q 410 1317 410 1324 l 410 1309 l 398 1309 l 398 1325 m 260 1280 l 260 1280 l 264 1272 l 264 1268 l 252 1268 l 252 1272 q 260 1280 253 1280 m 370 1244 l 370 1244 l 382 1244 l 382 1240 q 374 1215 374 1230 l 366 1215 l 366 1223 l 370 1244 m 235 1203 l 235 1203 l 239 1203 l 239 1199 q 207 1138 212 1138 l 203 1138 q 235 1203 224 1203 m 300 1195 l 300 1195 l 300 1187 l 304 1187 l 304 1195 l 300 1195 m 296 1183 l 296 1183 l 296 1175 l 300 1175 l 300 1183 l 296 1183 m 292 1171 l 292 1171 l 292 1162 l 296 1162 l 296 1171 l 292 1171 m 280 1134 l 280 1134 l 280 1122 l 284 1122 l 284 1134 l 280 1134 m 276 1118 l 276 1118 l 276 1109 l 280 1109 l 280 1118 l 276 1118 m 272 1105 l 272 1105 l 272 1093 l 276 1093 l 276 1105 l 272 1105 m 300 1093 l 300 1093 l 300 1093 q 268 930 268 970 l 268 926 l 272 926 q 304 1089 284 999 l 304 1093 l 300 1093 m 268 1089 l 268 1089 l 268 1081 l 272 1081 l 272 1089 l 268 1089 m 264 1077 l 264 1077 l 264 1065 l 268 1065 l 268 1077 l 264 1077 m 260 1061 l 260 1061 l 260 1048 l 264 1048 l 264 1061 l 260 1061 m 256 1044 l 256 1044 l 256 1032 l 260 1032 l 260 1044 l 256 1044 m 235 1016 l 235 1016 l 223 951 l 223 943 l 227 943 l 239 1012 l 239 1016 l 235 1016 m 288 971 l 288 971 l 288 959 l 292 959 l 292 971 l 288 971 m 158 939 l 158 939 l 158 939 q 113 556 113 688 l 113 524 l 117 524 q 162 935 117 637 l 162 939 l 158 939 m 276 906 l 276 906 l 276 890 l 280 890 l 280 906 l 276 906 m 272 882 l 272 882 l 272 857 l 276 857 l 276 882 l 272 882 m 256 637 l 256 637 l 256 621 l 260 621 l 260 637 l 256 637 m 256 609 l 256 609 l 256 499 q 260 414 260 437 l 264 414 l 264 426 q 260 609 260 474 l 256 609 m 223 581 l 223 581 l 223 540 l 227 540 l 227 581 l 223 581 m 125 560 l 125 560 l 125 511 l 130 511 l 130 560 l 125 560 m 223 528 l 223 528 l 223 528 q 227 495 227 511 l 231 495 l 231 528 l 223 528 m 174 442 l 174 442 l 174 381 q 191 222 174 338 q 207 227 197 227 l 207 231 q 178 442 178 231 l 174 442 m 223 442 l 223 442 l 223 438 q 227 373 227 420 l 231 373 l 231 422 l 227 442 l 223 442 m 203 357 l 203 357 l 203 332 l 207 332 l 207 357 l 203 357 m 207 324 l 207 324 l 207 300 l 211 300 l 211 324 l 207 324 m 162 279 l 162 279 l 162 267 l 170 263 l 170 267 q 166 279 166 275 l 162 279 m 154 263 l 154 263 l 154 259 q 166 218 157 218 l 170 218 l 170 243 q 158 263 158 256 l 154 263 m 227 255 l 227 255 l 231 231 l 235 231 l 235 251 l 227 255 m 549 251 l 549 251 l 549 247 l 561 247 l 561 251 l 549 251 m 585 239 l 585 239 l 589 231 q 638 235 602 235 l 638 239 l 585 239 m 309 235 l 309 235 l 309 231 l 317 231 l 317 235 l 309 235 m 541 235 l 541 235 l 541 231 l 561 231 l 561 235 l 541 235 m 284 231 l 284 231 l 284 227 l 296 227 l 296 231 l 284 231 m 406 227 l 406 227 l 406 222 l 431 222 q 475 227 467 227 l 475 231 l 455 231 l 406 227 m 321 214 l 321 214 l 321 210 l 337 210 l 337 218 q 321 214 330 214 m 471 206 l 471 206 l 471 202 l 484 202 l 484 206 l 471 206 m 541 206 l 541 206 l 541 202 l 622 202 l 622 206 l 541 206 m 231 198 l 231 198 l 231 194 l 243 194 l 243 202 q 231 198 235 198 m 777 206 l 777 206 l 777 206 q 789 202 784 202 l 789 194 l 777 194 q 768 202 768 194 q 777 206 777 202 m 211 194 l 211 194 l 211 190 l 223 190 l 223 194 l 211 194 m 93 194 l 93 194 l 93 190 q 85 182 93 182 l 73 182 q 64 190 64 182 l 93 194 m 199 190 l 199 190 l 199 186 l 207 186 l 207 190 l 199 190 m 569 190 l 569 190 l 569 186 l 618 186 l 618 190 l 569 190 m 7 182 l 7 182 l 12 182 q 20 174 20 180 l 20 170 l 7 170 l 7 182 m 239 170 l 239 170 l 248 170 l 248 178 q 239 170 239 176 m 512 174 l 512 174 l 512 170 l 618 170 q 622 165 618 165 l 626 174 l 512 174 m 203 165 l 203 165 l 207 157 l 231 161 l 231 170 l 203 165 m 296 157 l 296 157 l 296 149 q 345 157 328 157 l 345 161 l 337 161 q 296 157 315 157 m 675 157 l 675 157 l 675 149 l 703 149 l 703 153 q 675 157 691 153 m 829 157 l 829 157 l 833 157 l 833 145 l 829 145 q 821 153 821 145 l 829 157 m 264 149 l 264 149 l 264 141 l 268 141 l 268 149 l 264 149 m 178 129 l 178 129 l 178 121 q 239 133 214 133 l 239 137 l 235 145 q 178 129 186 129 m 109 113 l 109 113 l 109 109 l 121 109 q 166 121 146 121 l 166 129 q 109 113 117 113 m 545 113 l 545 113 l 565 109 l 565 100 q 532 104 555 100 q 284 72 424 104 l 284 80 q 545 113 379 113 m 223 100 l 223 100 l 223 96 l 239 96 l 243 104 l 239 104 q 223 100 232 100 m 73 100 l 73 100 l 73 96 q 64 88 73 88 l 52 88 l 52 96 l 73 100 m -13 80 l -13 80 l -9 80 l -9 68 l -21 68 l -21 72 q -13 80 -20 80 z "},"M":{"ha":709,"x_min":-32,"x_max":753,"o":"m 131 1452 l 131 1452 l 135 1452 l 135 1444 l 123 1444 q 131 1452 123 1452 m 98 1367 l 98 1367 l 102 1367 l 111 1362 q 106 1354 111 1354 l 115 1261 l 111 1236 l 111 1204 l 115 1204 q 143 1301 115 1291 q 147 1269 147 1297 l 151 1269 l 151 1285 l 159 1285 q 163 1273 159 1281 q 159 1228 159 1245 l 159 1220 q 168 1187 168 1212 l 176 1192 q 172 1216 176 1195 l 176 1236 q 155 1338 155 1316 l 168 1338 l 168 1334 q 163 1330 168 1330 q 172 1289 168 1323 l 180 1293 l 184 1293 l 196 1277 q 216 1114 205 1169 q 371 732 294 897 q 375 715 375 725 l 383 715 q 513 1106 432 823 q 554 1249 532 1147 q 583 1322 568 1256 l 591 1322 q 574 1244 591 1315 l 583 1244 q 595 1285 583 1285 l 599 1285 q 587 1216 587 1231 q 591 1204 591 1208 l 595 1204 q 619 1289 612 1289 l 631 1265 q 627 1261 627 1265 q 635 1253 635 1259 l 607 1163 q 611 1147 611 1156 l 615 1147 q 635 1240 627 1194 l 644 1240 l 644 1236 q 640 1196 644 1232 q 648 1183 647 1196 l 631 1094 q 745 479 745 694 q 749 414 749 479 l 749 402 q 729 191 749 294 l 733 182 q 705 52 725 163 l 692 52 q 725 280 725 178 l 717 280 q 692 117 717 205 l 696 109 q 668 20 668 35 l 668 7 q 648 -13 661 7 l 644 -13 l 644 -9 q 705 300 684 72 l 705 321 l 701 321 q 648 77 701 247 q 587 -94 599 -94 l 583 -94 l 583 -90 q 672 223 627 20 q 656 158 664 223 q 644 138 649 138 l 640 138 q 664 284 652 185 q 660 304 660 290 l 664 304 l 664 422 l 660 422 q 644 227 660 366 l 635 227 l 648 374 l 648 406 l 644 406 q 583 101 644 261 l 578 101 l 574 109 q 635 394 615 195 l 635 410 l 631 410 q 607 264 631 375 l 595 264 q 627 459 627 393 l 627 479 l 623 479 l 619 431 l 619 402 l 611 402 l 611 431 l 607 431 q 599 414 607 414 l 595 414 q 603 479 603 461 q 578 707 603 654 q 566 772 578 718 l 562 772 q 473 553 551 678 l 469 553 l 469 557 q 554 768 554 729 l 554 772 l 550 772 q 460 569 511 663 l 436 528 l 460 496 l 460 492 l 456 492 q 436 516 436 503 l 428 516 q 395 463 428 502 l 412 435 l 404 431 q 395 447 395 441 l 391 447 q 375 422 383 447 l 420 333 l 412 329 l 408 329 q 363 418 398 364 q 355 386 355 389 l 351 386 l 342 390 q 359 435 359 425 q 355 447 355 443 l 347 447 q 338 414 338 421 l 326 414 q 342 463 326 418 q 257 622 342 469 l 265 626 l 269 626 q 347 475 269 619 l 351 475 l 355 496 q 212 732 230 694 l 208 732 q 180 475 196 556 l 172 475 l 192 638 l 192 650 l 188 650 q 115 280 188 566 q 102 268 102 280 q 74 182 102 259 l 70 182 l 62 186 q 111 386 111 300 l 111 394 l 106 394 l 102 370 q 106 366 106 370 q 82 337 98 366 l 74 341 l 70 313 l 62 313 l 62 317 q 94 484 62 327 l 94 488 l 90 488 q 58 382 82 441 q 41 325 54 325 l 41 329 q 50 386 45 380 q 45 398 45 394 q 62 471 62 463 l 54 467 l 54 475 l 50 475 q 17 361 28 361 l 13 361 l 13 366 l 41 479 l 37 500 q 98 842 62 573 l 98 850 l 94 850 q 45 549 62 631 l 41 549 l 33 553 q 58 671 45 587 l 58 679 l 54 679 q 9 418 33 595 l -3 418 q 9 500 9 480 l 1 500 q -7 471 1 471 l -3 463 q -16 451 -3 457 l -20 451 l 37 699 l 33 699 q 25 691 33 691 l 21 691 l 21 695 q 74 1045 36 695 q 78 1135 78 1116 l 90 1135 l 86 1114 q 58 825 86 997 l 58 817 l 62 817 q 102 1265 85 942 q 98 1305 98 1286 l 98 1367 m 139 1362 l 139 1362 l 143 1362 l 143 1350 l 139 1350 q 131 1358 131 1350 l 139 1362 m 135 1281 l 135 1281 l 135 1281 q 127 1086 127 1145 l 135 1086 l 135 1102 q 143 1244 135 1175 q 139 1281 139 1266 l 135 1281 m 184 1277 l 184 1277 l 184 1269 q 188 1224 188 1241 l 192 1224 l 192 1265 q 188 1277 188 1273 l 184 1277 m 570 1224 l 570 1224 l 570 1224 q 562 1179 570 1214 q 574 1216 571 1179 l 574 1224 l 570 1224 m 106 1196 l 106 1196 l 106 1175 l 111 1175 l 111 1196 l 106 1196 m 578 1196 l 578 1196 l 578 1196 q 570 1151 578 1173 l 574 1151 q 587 1183 587 1154 l 587 1196 l 578 1196 m 558 1159 l 558 1159 l 558 1151 l 562 1151 l 562 1159 l 558 1159 m 188 1151 l 188 1151 l 188 1122 l 192 1122 l 192 1151 l 188 1151 m 554 1143 l 554 1143 l 554 1143 q 546 1098 554 1127 l 546 1086 l 550 1086 q 558 1131 550 1101 l 558 1143 l 554 1143 m 599 1143 l 599 1143 l 599 1143 q 595 1110 599 1133 l 603 1110 l 607 1139 l 607 1143 l 599 1143 m 188 1082 l 188 1082 l 188 1074 l 192 1074 l 192 1082 l 188 1082 m 513 1078 l 513 1078 l 513 1078 q 481 972 513 1070 l 481 968 l 485 968 q 517 1074 517 1067 l 517 1078 l 513 1078 m 623 1074 l 623 1074 l 623 1065 q 627 1053 627 1057 l 631 1053 l 631 1057 q 627 1074 627 1065 l 623 1074 m 111 1069 l 111 1069 l 111 1045 l 115 1045 l 115 1069 l 111 1069 m 538 1065 l 538 1065 l 534 1045 l 534 1041 l 538 1041 l 542 1061 l 542 1065 l 538 1065 m 216 1061 l 216 1061 l 216 1049 q 249 956 216 1029 l 253 956 l 253 960 q 220 1061 224 1038 l 216 1061 m 155 1045 l 155 1045 l 155 1029 l 159 1029 l 159 1045 l 155 1045 m 188 1029 l 188 1029 l 188 1013 l 192 1013 l 192 1029 l 188 1029 m 526 1029 l 526 1029 l 526 1021 l 530 1021 l 530 1029 l 526 1029 m 607 1013 l 607 1013 l 607 1004 l 611 1004 l 611 1013 l 607 1013 m 631 1004 l 631 1004 l 631 996 l 635 996 l 635 1004 l 631 1004 m 220 988 l 220 988 l 220 984 q 224 972 224 976 l 229 972 l 229 976 q 224 988 224 984 l 220 988 m 102 984 l 102 984 l 102 964 l 106 964 l 106 984 l 102 984 m 615 984 l 615 984 l 615 980 q 627 919 627 932 l 631 919 l 631 927 l 619 984 l 615 984 m 583 976 l 583 976 l 578 960 l 578 956 l 583 956 q 587 972 587 970 l 587 976 l 583 976 m 229 968 l 229 968 l 229 964 q 249 907 249 913 l 253 907 l 253 911 q 233 968 233 960 l 229 968 m 513 968 l 513 968 l 513 968 q 501 935 513 963 l 501 931 l 505 931 l 517 964 l 517 968 l 513 968 m 188 960 l 188 960 l 188 923 l 192 923 l 192 960 l 188 960 m 98 956 l 98 956 l 98 935 l 102 935 l 102 956 l 98 956 m 546 956 l 546 956 l 513 874 l 513 870 l 517 870 q 550 956 542 923 l 546 956 m 481 931 l 481 931 l 440 825 l 440 821 l 444 821 q 485 927 444 826 l 485 931 l 481 931 m 216 927 l 216 927 l 216 919 q 220 907 220 911 l 224 907 l 224 915 q 220 927 220 923 l 216 927 m 119 923 l 119 923 l 119 878 l 123 878 l 123 923 l 119 923 m 599 923 l 599 923 l 599 915 q 619 838 615 861 l 623 838 l 623 846 q 603 923 623 850 l 599 923 m 200 919 l 200 919 l 200 895 l 204 895 l 204 919 l 200 919 m 558 903 l 558 903 l 558 895 l 566 895 l 566 903 l 558 903 m 269 895 l 269 895 l 269 890 q 290 838 290 847 l 294 838 l 294 842 q 273 895 273 890 l 269 895 m 212 882 l 212 882 l 212 878 q 253 768 212 862 l 257 768 l 257 772 q 212 882 216 882 m 550 878 l 550 878 l 550 878 q 513 760 542 839 l 513 756 l 517 756 l 554 866 l 554 878 l 550 878 m 583 866 l 583 866 l 583 862 q 599 781 599 793 l 603 781 l 603 789 l 587 866 l 583 866 m 139 858 l 139 858 l 139 846 l 143 846 l 143 858 l 139 858 m 196 858 l 196 858 l 196 850 l 200 850 l 200 858 l 196 858 m 713 846 l 713 846 l 717 846 q 753 622 745 701 l 745 618 q 705 842 725 764 l 713 846 m 294 833 l 294 833 l 294 829 q 298 817 298 821 l 302 817 l 302 821 q 298 833 298 829 l 294 833 m 623 829 l 623 829 l 623 813 l 627 813 l 627 829 l 623 829 m 212 825 l 212 825 l 212 813 q 253 728 253 734 l 257 728 l 257 732 q 216 825 216 814 l 212 825 m 473 821 l 473 821 l 473 813 l 477 813 l 477 821 l 473 821 m 611 821 l 611 821 l 611 809 q 619 748 619 764 l 623 748 l 623 760 q 615 821 615 811 l 611 821 m 436 817 l 436 817 l 436 809 l 440 809 l 440 817 l 436 817 m 54 813 l 54 813 l 54 793 l 58 793 l 58 813 l 54 813 m 469 809 l 469 809 l 436 724 l 436 720 l 440 720 q 473 805 440 728 l 473 809 l 469 809 m 570 809 l 570 809 l 570 797 q 587 715 578 769 l 591 715 l 591 724 l 574 809 l 570 809 m 627 809 l 627 809 l 627 797 l 631 797 l 631 809 l 627 809 m 542 805 l 542 805 l 542 805 q 477 646 542 791 q 469 622 477 640 l 469 618 l 473 618 q 546 801 546 781 l 546 805 l 542 805 m 188 797 l 188 797 l 188 797 q 196 789 189 789 l 196 797 l 188 797 m 440 793 l 440 793 l 440 793 q 424 748 433 764 l 428 748 l 444 789 l 444 793 l 440 793 m 489 789 l 489 789 l 489 789 q 485 777 489 785 l 485 772 l 489 772 q 493 785 489 777 l 493 789 l 489 789 m 50 785 l 50 785 l 50 772 l 54 772 l 54 785 l 50 785 m 212 785 l 212 785 l 212 777 l 220 772 q 216 785 216 781 l 212 785 m 188 772 l 188 772 l 184 744 l 184 732 l 188 732 q 192 764 188 749 l 192 772 l 188 772 m 481 768 l 481 768 l 481 768 q 469 736 481 759 l 469 728 l 473 728 q 485 764 473 737 l 485 768 l 481 768 m 668 768 l 668 768 l 668 756 l 672 756 l 672 768 l 668 768 m 208 764 l 208 764 l 208 756 q 302 602 295 604 q 212 764 240 707 l 208 764 m 412 752 l 412 752 l 412 744 l 416 744 l 416 752 l 412 752 m 318 744 l 318 744 l 318 740 q 322 728 322 732 l 326 728 l 326 732 q 322 744 322 740 l 318 744 m 623 744 l 623 744 l 623 715 l 627 715 l 627 744 l 623 744 m 404 732 l 404 732 l 404 732 q 387 687 404 727 q 408 728 393 687 l 408 732 l 404 732 m 355 728 l 355 728 l 355 728 q 367 695 367 700 l 371 695 l 371 703 q 355 728 361 728 m 599 724 l 599 724 l 599 711 l 603 711 l 603 724 l 599 724 m 432 715 l 432 715 l 432 715 q 420 683 432 706 l 420 679 l 424 679 q 436 711 424 684 l 436 715 l 432 715 m 399 675 l 399 675 l 399 671 l 404 671 q 416 707 416 703 q 399 675 405 707 m 627 707 l 627 707 l 627 699 l 631 699 l 631 707 l 627 707 m 127 699 l 127 699 l 127 699 q 119 646 127 687 l 119 638 l 123 638 q 131 691 123 650 l 131 699 l 127 699 m 603 699 l 603 699 l 603 667 l 607 667 l 607 699 l 603 699 m 379 679 l 379 679 l 379 667 q 387 675 387 667 l 379 679 m 717 675 l 717 675 l 717 663 l 721 663 l 721 675 l 717 675 m 326 667 l 326 667 l 326 667 q 347 634 340 634 q 326 667 332 667 m 371 663 l 371 663 l 371 654 l 379 650 q 375 663 375 659 l 371 663 m 391 663 l 391 663 l 391 663 q 387 650 391 659 l 395 646 l 395 663 l 391 663 m 607 663 l 607 663 l 607 610 l 611 610 l 611 663 l 607 663 m 428 626 l 428 626 l 428 618 l 432 618 q 444 659 432 627 q 428 626 436 659 m 383 638 l 383 638 l 383 630 l 387 630 l 387 638 l 383 638 m 115 634 l 115 634 l 115 622 l 119 622 l 119 634 l 115 634 m 70 597 l 70 597 l 70 589 l 74 589 q 82 630 74 600 q 70 597 74 630 m 404 622 l 404 622 l 404 618 q 412 626 411 618 l 412 630 q 404 622 404 629 m 139 622 l 139 622 l 139 614 l 143 614 l 143 622 l 139 622 m 351 622 l 351 622 l 351 622 q 342 614 351 614 q 351 593 351 601 l 359 593 q 363 610 359 603 q 359 622 359 618 l 351 622 m 310 614 l 310 614 l 310 614 q 334 565 334 570 l 338 565 l 338 569 q 314 614 321 614 l 310 614 m 416 606 l 416 606 l 416 593 l 424 593 l 424 614 q 416 606 416 612 m 98 606 l 98 606 l 98 597 l 102 597 l 102 606 l 98 606 m 135 606 l 135 606 l 135 606 q 131 581 135 587 l 131 577 l 135 577 q 139 593 139 591 l 139 606 l 135 606 m 168 597 l 168 597 l 147 475 l 147 467 l 151 467 l 172 593 l 172 597 l 168 597 m 302 597 l 302 597 l 302 593 l 310 589 l 310 593 l 302 597 m 367 593 l 367 593 l 367 593 q 359 577 367 587 l 367 573 q 371 589 371 587 l 371 593 l 367 593 m 94 585 l 94 585 l 94 577 l 98 577 l 98 585 l 94 585 m 404 577 l 404 577 l 404 577 q 408 565 408 569 l 412 565 l 412 573 l 404 577 m 611 573 l 611 573 l 611 479 l 615 479 l 615 573 l 611 573 m 379 569 l 379 569 l 375 549 q 383 561 382 549 l 383 569 l 379 569 m 90 565 l 90 565 l 90 553 l 94 553 l 94 565 l 90 565 m 399 561 l 399 561 l 399 553 l 408 553 q 399 561 408 561 m 86 545 l 86 545 l 86 532 l 90 532 l 90 545 l 86 545 m 391 545 l 391 545 l 387 536 l 387 532 q 395 524 388 524 q 399 541 399 538 l 391 545 m 82 524 l 82 524 l 82 516 l 86 516 l 86 524 l 82 524 m 375 512 l 375 512 l 375 500 l 383 500 q 379 512 379 508 l 375 512 m 404 508 l 404 508 l 395 492 l 399 492 l 408 508 l 404 508 m 94 504 l 94 504 l 94 492 l 98 492 l 98 504 l 94 504 m 587 492 l 587 492 l 591 492 l 591 479 l 587 479 l 587 492 m 70 459 l 70 459 l 70 451 l 74 451 l 78 471 q 70 459 70 471 m 355 463 l 355 463 l 355 463 q 367 447 361 447 q 375 467 367 454 l 367 471 l 363 471 q 355 463 355 470 m 729 471 l 729 471 l 729 345 l 733 345 l 733 471 l 729 471 m 143 463 l 143 463 l 143 451 l 147 451 l 147 463 l 143 463 m 66 447 l 66 447 l 66 435 l 70 435 l 70 447 l 66 447 m 684 447 l 684 447 l 680 406 l 680 317 l 684 317 q 688 439 684 351 l 688 447 l 684 447 m 115 443 l 115 443 l 115 431 l 119 431 l 119 443 l 115 443 m 123 418 l 123 418 l 123 406 l 127 406 l 127 418 l 123 418 m 90 410 l 90 410 l 78 349 l 78 345 l 82 345 l 94 406 l 94 410 l 90 410 m -7 390 l -7 390 l -7 390 q 1 382 1 389 l -16 366 q -20 370 -16 370 q -7 390 -15 390 m 119 382 l 119 382 l 119 378 l 115 337 l 115 329 l 119 329 q 131 382 119 347 l 119 382 m 9 341 l 9 341 l 17 341 l 17 337 q 9 329 17 329 l 9 341 m -32 329 l -32 329 l -20 329 l -20 321 q -32 317 -24 321 l -32 329 m 33 284 l 33 284 l 45 284 l 45 280 q 37 272 45 272 l 33 272 l 33 284 m 676 280 l 676 280 l 676 264 l 680 264 l 680 280 l 676 280 m 587 235 l 587 235 l 591 235 q 574 199 587 199 q 570 203 574 203 q 587 235 581 235 m 17 162 l 17 162 l 21 162 l 21 150 l 17 150 q 9 158 9 150 l 17 162 m 546 130 l 546 130 l 550 130 l 550 125 q 542 117 550 117 l 538 117 l 538 121 q 546 130 538 130 m 619 105 l 619 105 l 631 105 l 631 97 l 619 97 l 619 105 m 603 44 l 603 44 l 611 44 l 611 40 q 603 32 611 32 l 595 32 l 595 36 q 603 44 595 44 m 570 -13 l 570 -13 l 574 -21 q 566 -29 574 -29 l 562 -29 l 562 -21 q 570 -13 563 -13 m 627 -58 l 627 -58 l 635 -58 l 635 -66 l 627 -66 l 627 -58 m 566 -123 l 566 -123 l 574 -123 l 574 -127 q 562 -155 562 -144 l 554 -155 q 566 -123 554 -125 m 538 -176 l 538 -176 l 538 -176 q 546 -184 546 -177 l 546 -188 l 538 -188 q 530 -180 530 -188 l 538 -176 z "}}}
